ISO-10303-21;
HEADER;
/* Generated by software containing ST-Developer
 * from STEP Tools, Inc. (www.steptools.com) 
 */

FILE_DESCRIPTION(
/* description */ (''),
/* implementation_level */ '2;1');

FILE_NAME(
/* name */ 'macropad top.step',
/* time_stamp */ '2026-09-10T21:52:54+10:00',
/* author */ (''),
/* organization */ (''),
/* preprocessor_version */ 'ST-DEVELOPER v20.2',
/* originating_system */ 'Autodesk Translation Framework v15.15.0.0',
/* authorisation */ '');

FILE_SCHEMA (('AUTOMOTIVE_DESIGN { 1 0 10303 214 3 1 1 }'));
ENDSEC;

DATA;
#10=MECHANICAL_DESIGN_GEOMETRIC_PRESENTATION_REPRESENTATION('',(#13),#1427);
#11=SHAPE_REPRESENTATION_RELATIONSHIP('SRR','None',#1434,#12);
#12=ADVANCED_BREP_SHAPE_REPRESENTATION('',(#14),#1426);
#13=STYLED_ITEM('',(#1443),#14);
#14=MANIFOLD_SOLID_BREP('Body2',#903);
#15=FACE_BOUND('',#134,.T.);
#16=FACE_BOUND('',#135,.T.);
#17=FACE_BOUND('',#136,.T.);
#18=FACE_BOUND('',#137,.T.);
#19=FACE_BOUND('',#138,.T.);
#20=FACE_BOUND('',#139,.T.);
#21=FACE_BOUND('',#140,.T.);
#22=FACE_BOUND('',#141,.T.);
#23=FACE_BOUND('',#142,.T.);
#24=FACE_BOUND('',#143,.T.);
#25=FACE_BOUND('',#144,.T.);
#26=FACE_BOUND('',#145,.T.);
#27=FACE_BOUND('',#147,.T.);
#28=FACE_BOUND('',#148,.T.);
#29=FACE_BOUND('',#149,.T.);
#30=FACE_BOUND('',#150,.T.);
#31=FACE_BOUND('',#151,.T.);
#32=FACE_BOUND('',#152,.T.);
#33=FACE_BOUND('',#153,.T.);
#34=FACE_BOUND('',#154,.T.);
#35=FACE_BOUND('',#155,.T.);
#36=FACE_BOUND('',#156,.T.);
#37=FACE_BOUND('',#157,.T.);
#38=FACE_BOUND('',#158,.T.);
#39=CIRCLE('',#950,1.45);
#40=CIRCLE('',#951,1.45);
#41=CIRCLE('',#953,1.45);
#42=CIRCLE('',#954,1.45);
#43=CIRCLE('',#956,1.45);
#44=CIRCLE('',#957,1.45);
#45=CIRCLE('',#959,1.45);
#46=CIRCLE('',#960,1.45);
#47=CYLINDRICAL_SURFACE('',#949,1.45);
#48=CYLINDRICAL_SURFACE('',#952,1.45);
#49=CYLINDRICAL_SURFACE('',#955,1.45);
#50=CYLINDRICAL_SURFACE('',#958,1.45);
#51=FACE_OUTER_BOUND('',#93,.T.);
#52=FACE_OUTER_BOUND('',#94,.T.);
#53=FACE_OUTER_BOUND('',#95,.T.);
#54=FACE_OUTER_BOUND('',#96,.T.);
#55=FACE_OUTER_BOUND('',#97,.T.);
#56=FACE_OUTER_BOUND('',#98,.T.);
#57=FACE_OUTER_BOUND('',#99,.T.);
#58=FACE_OUTER_BOUND('',#100,.T.);
#59=FACE_OUTER_BOUND('',#101,.T.);
#60=FACE_OUTER_BOUND('',#102,.T.);
#61=FACE_OUTER_BOUND('',#103,.T.);
#62=FACE_OUTER_BOUND('',#104,.T.);
#63=FACE_OUTER_BOUND('',#105,.T.);
#64=FACE_OUTER_BOUND('',#106,.T.);
#65=FACE_OUTER_BOUND('',#107,.T.);
#66=FACE_OUTER_BOUND('',#108,.T.);
#67=FACE_OUTER_BOUND('',#109,.T.);
#68=FACE_OUTER_BOUND('',#110,.T.);
#69=FACE_OUTER_BOUND('',#111,.T.);
#70=FACE_OUTER_BOUND('',#112,.T.);
#71=FACE_OUTER_BOUND('',#113,.T.);
#72=FACE_OUTER_BOUND('',#114,.T.);
#73=FACE_OUTER_BOUND('',#115,.T.);
#74=FACE_OUTER_BOUND('',#116,.T.);
#75=FACE_OUTER_BOUND('',#117,.T.);
#76=FACE_OUTER_BOUND('',#118,.T.);
#77=FACE_OUTER_BOUND('',#119,.T.);
#78=FACE_OUTER_BOUND('',#120,.T.);
#79=FACE_OUTER_BOUND('',#121,.T.);
#80=FACE_OUTER_BOUND('',#122,.T.);
#81=FACE_OUTER_BOUND('',#123,.T.);
#82=FACE_OUTER_BOUND('',#124,.T.);
#83=FACE_OUTER_BOUND('',#125,.T.);
#84=FACE_OUTER_BOUND('',#126,.T.);
#85=FACE_OUTER_BOUND('',#127,.T.);
#86=FACE_OUTER_BOUND('',#128,.T.);
#87=FACE_OUTER_BOUND('',#129,.T.);
#88=FACE_OUTER_BOUND('',#130,.T.);
#89=FACE_OUTER_BOUND('',#131,.T.);
#90=FACE_OUTER_BOUND('',#132,.T.);
#91=FACE_OUTER_BOUND('',#133,.T.);
#92=FACE_OUTER_BOUND('',#146,.T.);
#93=EDGE_LOOP('',(#583,#584,#585,#586));
#94=EDGE_LOOP('',(#587,#588,#589,#590));
#95=EDGE_LOOP('',(#591,#592,#593,#594));
#96=EDGE_LOOP('',(#595,#596,#597,#598));
#97=EDGE_LOOP('',(#599,#600,#601,#602));
#98=EDGE_LOOP('',(#603,#604,#605,#606));
#99=EDGE_LOOP('',(#607,#608,#609,#610));
#100=EDGE_LOOP('',(#611,#612,#613,#614));
#101=EDGE_LOOP('',(#615,#616,#617,#618));
#102=EDGE_LOOP('',(#619,#620,#621,#622));
#103=EDGE_LOOP('',(#623,#624,#625,#626));
#104=EDGE_LOOP('',(#627,#628,#629,#630));
#105=EDGE_LOOP('',(#631,#632,#633,#634));
#106=EDGE_LOOP('',(#635,#636,#637,#638));
#107=EDGE_LOOP('',(#639,#640,#641,#642));
#108=EDGE_LOOP('',(#643,#644,#645,#646));
#109=EDGE_LOOP('',(#647,#648,#649,#650));
#110=EDGE_LOOP('',(#651,#652,#653,#654));
#111=EDGE_LOOP('',(#655,#656,#657,#658));
#112=EDGE_LOOP('',(#659,#660,#661,#662));
#113=EDGE_LOOP('',(#663,#664,#665,#666));
#114=EDGE_LOOP('',(#667,#668,#669,#670));
#115=EDGE_LOOP('',(#671,#672,#673,#674));
#116=EDGE_LOOP('',(#675,#676,#677,#678));
#117=EDGE_LOOP('',(#679,#680,#681,#682));
#118=EDGE_LOOP('',(#683,#684,#685,#686));
#119=EDGE_LOOP('',(#687,#688,#689,#690));
#120=EDGE_LOOP('',(#691,#692,#693,#694));
#121=EDGE_LOOP('',(#695,#696,#697,#698));
#122=EDGE_LOOP('',(#699,#700,#701,#702));
#123=EDGE_LOOP('',(#703,#704,#705,#706));
#124=EDGE_LOOP('',(#707,#708,#709,#710));
#125=EDGE_LOOP('',(#711,#712,#713,#714));
#126=EDGE_LOOP('',(#715,#716,#717,#718));
#127=EDGE_LOOP('',(#719,#720,#721,#722));
#128=EDGE_LOOP('',(#723,#724,#725,#726));
#129=EDGE_LOOP('',(#727,#728,#729,#730));
#130=EDGE_LOOP('',(#731,#732,#733,#734));
#131=EDGE_LOOP('',(#735,#736,#737,#738));
#132=EDGE_LOOP('',(#739,#740,#741,#742));
#133=EDGE_LOOP('',(#743,#744,#745,#746));
#134=EDGE_LOOP('',(#747,#748,#749,#750));
#135=EDGE_LOOP('',(#751,#752,#753,#754));
#136=EDGE_LOOP('',(#755,#756,#757,#758));
#137=EDGE_LOOP('',(#759,#760,#761,#762));
#138=EDGE_LOOP('',(#763,#764,#765,#766));
#139=EDGE_LOOP('',(#767,#768,#769,#770));
#140=EDGE_LOOP('',(#771,#772,#773,#774));
#141=EDGE_LOOP('',(#775,#776,#777,#778));
#142=EDGE_LOOP('',(#779));
#143=EDGE_LOOP('',(#780));
#144=EDGE_LOOP('',(#781));
#145=EDGE_LOOP('',(#782));
#146=EDGE_LOOP('',(#783,#784,#785,#786));
#147=EDGE_LOOP('',(#787,#788,#789,#790));
#148=EDGE_LOOP('',(#791,#792,#793,#794));
#149=EDGE_LOOP('',(#795,#796,#797,#798));
#150=EDGE_LOOP('',(#799,#800,#801,#802));
#151=EDGE_LOOP('',(#803,#804,#805,#806));
#152=EDGE_LOOP('',(#807,#808,#809,#810));
#153=EDGE_LOOP('',(#811,#812,#813,#814));
#154=EDGE_LOOP('',(#815,#816,#817,#818));
#155=EDGE_LOOP('',(#819));
#156=EDGE_LOOP('',(#820));
#157=EDGE_LOOP('',(#821));
#158=EDGE_LOOP('',(#822));
#159=LINE('',#1185,#271);
#160=LINE('',#1187,#272);
#161=LINE('',#1189,#273);
#162=LINE('',#1190,#274);
#163=LINE('',#1193,#275);
#164=LINE('',#1195,#276);
#165=LINE('',#1196,#277);
#166=LINE('',#1199,#278);
#167=LINE('',#1201,#279);
#168=LINE('',#1202,#280);
#169=LINE('',#1204,#281);
#170=LINE('',#1205,#282);
#171=LINE('',#1209,#283);
#172=LINE('',#1211,#284);
#173=LINE('',#1213,#285);
#174=LINE('',#1214,#286);
#175=LINE('',#1217,#287);
#176=LINE('',#1219,#288);
#177=LINE('',#1220,#289);
#178=LINE('',#1223,#290);
#179=LINE('',#1225,#291);
#180=LINE('',#1226,#292);
#181=LINE('',#1228,#293);
#182=LINE('',#1229,#294);
#183=LINE('',#1233,#295);
#184=LINE('',#1235,#296);
#185=LINE('',#1237,#297);
#186=LINE('',#1238,#298);
#187=LINE('',#1241,#299);
#188=LINE('',#1243,#300);
#189=LINE('',#1244,#301);
#190=LINE('',#1247,#302);
#191=LINE('',#1249,#303);
#192=LINE('',#1250,#304);
#193=LINE('',#1252,#305);
#194=LINE('',#1253,#306);
#195=LINE('',#1257,#307);
#196=LINE('',#1259,#308);
#197=LINE('',#1261,#309);
#198=LINE('',#1262,#310);
#199=LINE('',#1265,#311);
#200=LINE('',#1267,#312);
#201=LINE('',#1268,#313);
#202=LINE('',#1271,#314);
#203=LINE('',#1273,#315);
#204=LINE('',#1274,#316);
#205=LINE('',#1276,#317);
#206=LINE('',#1277,#318);
#207=LINE('',#1281,#319);
#208=LINE('',#1283,#320);
#209=LINE('',#1285,#321);
#210=LINE('',#1286,#322);
#211=LINE('',#1289,#323);
#212=LINE('',#1291,#324);
#213=LINE('',#1292,#325);
#214=LINE('',#1295,#326);
#215=LINE('',#1297,#327);
#216=LINE('',#1298,#328);
#217=LINE('',#1300,#329);
#218=LINE('',#1301,#330);
#219=LINE('',#1305,#331);
#220=LINE('',#1307,#332);
#221=LINE('',#1309,#333);
#222=LINE('',#1310,#334);
#223=LINE('',#1313,#335);
#224=LINE('',#1315,#336);
#225=LINE('',#1316,#337);
#226=LINE('',#1319,#338);
#227=LINE('',#1321,#339);
#228=LINE('',#1322,#340);
#229=LINE('',#1324,#341);
#230=LINE('',#1325,#342);
#231=LINE('',#1329,#343);
#232=LINE('',#1331,#344);
#233=LINE('',#1333,#345);
#234=LINE('',#1334,#346);
#235=LINE('',#1337,#347);
#236=LINE('',#1339,#348);
#237=LINE('',#1340,#349);
#238=LINE('',#1343,#350);
#239=LINE('',#1345,#351);
#240=LINE('',#1346,#352);
#241=LINE('',#1348,#353);
#242=LINE('',#1349,#354);
#243=LINE('',#1353,#355);
#244=LINE('',#1355,#356);
#245=LINE('',#1357,#357);
#246=LINE('',#1358,#358);
#247=LINE('',#1361,#359);
#248=LINE('',#1363,#360);
#249=LINE('',#1364,#361);
#250=LINE('',#1367,#362);
#251=LINE('',#1369,#363);
#252=LINE('',#1370,#364);
#253=LINE('',#1372,#365);
#254=LINE('',#1373,#366);
#255=LINE('',#1378,#367);
#256=LINE('',#1384,#368);
#257=LINE('',#1390,#369);
#258=LINE('',#1396,#370);
#259=LINE('',#1401,#371);
#260=LINE('',#1403,#372);
#261=LINE('',#1405,#373);
#262=LINE('',#1406,#374);
#263=LINE('',#1409,#375);
#264=LINE('',#1411,#376);
#265=LINE('',#1412,#377);
#266=LINE('',#1415,#378);
#267=LINE('',#1417,#379);
#268=LINE('',#1418,#380);
#269=LINE('',#1420,#381);
#270=LINE('',#1421,#382);
#271=VECTOR('',#971,10.);
#272=VECTOR('',#972,10.);
#273=VECTOR('',#973,10.);
#274=VECTOR('',#974,10.);
#275=VECTOR('',#977,10.);
#276=VECTOR('',#978,10.);
#277=VECTOR('',#979,10.);
#278=VECTOR('',#982,10.);
#279=VECTOR('',#983,10.);
#280=VECTOR('',#984,10.);
#281=VECTOR('',#987,10.);
#282=VECTOR('',#988,10.);
#283=VECTOR('',#991,10.);
#284=VECTOR('',#992,10.);
#285=VECTOR('',#993,10.);
#286=VECTOR('',#994,10.);
#287=VECTOR('',#997,10.);
#288=VECTOR('',#998,10.);
#289=VECTOR('',#999,10.);
#290=VECTOR('',#1002,10.);
#291=VECTOR('',#1003,10.);
#292=VECTOR('',#1004,10.);
#293=VECTOR('',#1007,10.);
#294=VECTOR('',#1008,10.);
#295=VECTOR('',#1011,10.);
#296=VECTOR('',#1012,10.);
#297=VECTOR('',#1013,10.);
#298=VECTOR('',#1014,10.);
#299=VECTOR('',#1017,10.);
#300=VECTOR('',#1018,10.);
#301=VECTOR('',#1019,10.);
#302=VECTOR('',#1022,10.);
#303=VECTOR('',#1023,10.);
#304=VECTOR('',#1024,10.);
#305=VECTOR('',#1027,10.);
#306=VECTOR('',#1028,10.);
#307=VECTOR('',#1031,10.);
#308=VECTOR('',#1032,10.);
#309=VECTOR('',#1033,10.);
#310=VECTOR('',#1034,10.);
#311=VECTOR('',#1037,10.);
#312=VECTOR('',#1038,10.);
#313=VECTOR('',#1039,10.);
#314=VECTOR('',#1042,10.);
#315=VECTOR('',#1043,10.);
#316=VECTOR('',#1044,10.);
#317=VECTOR('',#1047,10.);
#318=VECTOR('',#1048,10.);
#319=VECTOR('',#1051,10.);
#320=VECTOR('',#1052,10.);
#321=VECTOR('',#1053,10.);
#322=VECTOR('',#1054,10.);
#323=VECTOR('',#1057,10.);
#324=VECTOR('',#1058,10.);
#325=VECTOR('',#1059,10.);
#326=VECTOR('',#1062,10.);
#327=VECTOR('',#1063,10.);
#328=VECTOR('',#1064,10.);
#329=VECTOR('',#1067,10.);
#330=VECTOR('',#1068,10.);
#331=VECTOR('',#1071,10.);
#332=VECTOR('',#1072,10.);
#333=VECTOR('',#1073,10.);
#334=VECTOR('',#1074,10.);
#335=VECTOR('',#1077,10.);
#336=VECTOR('',#1078,10.);
#337=VECTOR('',#1079,10.);
#338=VECTOR('',#1082,10.);
#339=VECTOR('',#1083,10.);
#340=VECTOR('',#1084,10.);
#341=VECTOR('',#1087,10.);
#342=VECTOR('',#1088,10.);
#343=VECTOR('',#1091,10.);
#344=VECTOR('',#1092,10.);
#345=VECTOR('',#1093,10.);
#346=VECTOR('',#1094,10.);
#347=VECTOR('',#1097,10.);
#348=VECTOR('',#1098,10.);
#349=VECTOR('',#1099,10.);
#350=VECTOR('',#1102,10.);
#351=VECTOR('',#1103,10.);
#352=VECTOR('',#1104,10.);
#353=VECTOR('',#1107,10.);
#354=VECTOR('',#1108,10.);
#355=VECTOR('',#1111,10.);
#356=VECTOR('',#1112,10.);
#357=VECTOR('',#1113,10.);
#358=VECTOR('',#1114,10.);
#359=VECTOR('',#1117,10.);
#360=VECTOR('',#1118,10.);
#361=VECTOR('',#1119,10.);
#362=VECTOR('',#1122,10.);
#363=VECTOR('',#1123,10.);
#364=VECTOR('',#1124,10.);
#365=VECTOR('',#1127,10.);
#366=VECTOR('',#1128,10.);
#367=VECTOR('',#1133,1.45);
#368=VECTOR('',#1140,1.45);
#369=VECTOR('',#1147,1.45);
#370=VECTOR('',#1154,1.45);
#371=VECTOR('',#1159,10.);
#372=VECTOR('',#1160,10.);
#373=VECTOR('',#1161,10.);
#374=VECTOR('',#1162,10.);
#375=VECTOR('',#1165,10.);
#376=VECTOR('',#1166,10.);
#377=VECTOR('',#1167,10.);
#378=VECTOR('',#1170,10.);
#379=VECTOR('',#1171,10.);
#380=VECTOR('',#1172,10.);
#381=VECTOR('',#1175,10.);
#382=VECTOR('',#1176,10.);
#383=VERTEX_POINT('',#1183);
#384=VERTEX_POINT('',#1184);
#385=VERTEX_POINT('',#1186);
#386=VERTEX_POINT('',#1188);
#387=VERTEX_POINT('',#1192);
#388=VERTEX_POINT('',#1194);
#389=VERTEX_POINT('',#1198);
#390=VERTEX_POINT('',#1200);
#391=VERTEX_POINT('',#1207);
#392=VERTEX_POINT('',#1208);
#393=VERTEX_POINT('',#1210);
#394=VERTEX_POINT('',#1212);
#395=VERTEX_POINT('',#1216);
#396=VERTEX_POINT('',#1218);
#397=VERTEX_POINT('',#1222);
#398=VERTEX_POINT('',#1224);
#399=VERTEX_POINT('',#1231);
#400=VERTEX_POINT('',#1232);
#401=VERTEX_POINT('',#1234);
#402=VERTEX_POINT('',#1236);
#403=VERTEX_POINT('',#1240);
#404=VERTEX_POINT('',#1242);
#405=VERTEX_POINT('',#1246);
#406=VERTEX_POINT('',#1248);
#407=VERTEX_POINT('',#1255);
#408=VERTEX_POINT('',#1256);
#409=VERTEX_POINT('',#1258);
#410=VERTEX_POINT('',#1260);
#411=VERTEX_POINT('',#1264);
#412=VERTEX_POINT('',#1266);
#413=VERTEX_POINT('',#1270);
#414=VERTEX_POINT('',#1272);
#415=VERTEX_POINT('',#1279);
#416=VERTEX_POINT('',#1280);
#417=VERTEX_POINT('',#1282);
#418=VERTEX_POINT('',#1284);
#419=VERTEX_POINT('',#1288);
#420=VERTEX_POINT('',#1290);
#421=VERTEX_POINT('',#1294);
#422=VERTEX_POINT('',#1296);
#423=VERTEX_POINT('',#1303);
#424=VERTEX_POINT('',#1304);
#425=VERTEX_POINT('',#1306);
#426=VERTEX_POINT('',#1308);
#427=VERTEX_POINT('',#1312);
#428=VERTEX_POINT('',#1314);
#429=VERTEX_POINT('',#1318);
#430=VERTEX_POINT('',#1320);
#431=VERTEX_POINT('',#1327);
#432=VERTEX_POINT('',#1328);
#433=VERTEX_POINT('',#1330);
#434=VERTEX_POINT('',#1332);
#435=VERTEX_POINT('',#1336);
#436=VERTEX_POINT('',#1338);
#437=VERTEX_POINT('',#1342);
#438=VERTEX_POINT('',#1344);
#439=VERTEX_POINT('',#1351);
#440=VERTEX_POINT('',#1352);
#441=VERTEX_POINT('',#1354);
#442=VERTEX_POINT('',#1356);
#443=VERTEX_POINT('',#1360);
#444=VERTEX_POINT('',#1362);
#445=VERTEX_POINT('',#1366);
#446=VERTEX_POINT('',#1368);
#447=VERTEX_POINT('',#1375);
#448=VERTEX_POINT('',#1377);
#449=VERTEX_POINT('',#1381);
#450=VERTEX_POINT('',#1383);
#451=VERTEX_POINT('',#1387);
#452=VERTEX_POINT('',#1389);
#453=VERTEX_POINT('',#1393);
#454=VERTEX_POINT('',#1395);
#455=VERTEX_POINT('',#1399);
#456=VERTEX_POINT('',#1400);
#457=VERTEX_POINT('',#1402);
#458=VERTEX_POINT('',#1404);
#459=VERTEX_POINT('',#1408);
#460=VERTEX_POINT('',#1410);
#461=VERTEX_POINT('',#1414);
#462=VERTEX_POINT('',#1416);
#463=EDGE_CURVE('',#383,#384,#159,.T.);
#464=EDGE_CURVE('',#384,#385,#160,.T.);
#465=EDGE_CURVE('',#386,#385,#161,.T.);
#466=EDGE_CURVE('',#383,#386,#162,.T.);
#467=EDGE_CURVE('',#387,#383,#163,.T.);
#468=EDGE_CURVE('',#388,#386,#164,.T.);
#469=EDGE_CURVE('',#387,#388,#165,.T.);
#470=EDGE_CURVE('',#389,#387,#166,.T.);
#471=EDGE_CURVE('',#390,#388,#167,.T.);
#472=EDGE_CURVE('',#389,#390,#168,.T.);
#473=EDGE_CURVE('',#384,#389,#169,.T.);
#474=EDGE_CURVE('',#385,#390,#170,.T.);
#475=EDGE_CURVE('',#391,#392,#171,.T.);
#476=EDGE_CURVE('',#392,#393,#172,.T.);
#477=EDGE_CURVE('',#394,#393,#173,.T.);
#478=EDGE_CURVE('',#391,#394,#174,.T.);
#479=EDGE_CURVE('',#395,#391,#175,.T.);
#480=EDGE_CURVE('',#396,#394,#176,.T.);
#481=EDGE_CURVE('',#395,#396,#177,.T.);
#482=EDGE_CURVE('',#397,#395,#178,.T.);
#483=EDGE_CURVE('',#398,#396,#179,.T.);
#484=EDGE_CURVE('',#397,#398,#180,.T.);
#485=EDGE_CURVE('',#392,#397,#181,.T.);
#486=EDGE_CURVE('',#393,#398,#182,.T.);
#487=EDGE_CURVE('',#399,#400,#183,.T.);
#488=EDGE_CURVE('',#400,#401,#184,.T.);
#489=EDGE_CURVE('',#402,#401,#185,.T.);
#490=EDGE_CURVE('',#399,#402,#186,.T.);
#491=EDGE_CURVE('',#403,#399,#187,.T.);
#492=EDGE_CURVE('',#404,#402,#188,.T.);
#493=EDGE_CURVE('',#403,#404,#189,.T.);
#494=EDGE_CURVE('',#405,#403,#190,.T.);
#495=EDGE_CURVE('',#406,#404,#191,.T.);
#496=EDGE_CURVE('',#405,#406,#192,.T.);
#497=EDGE_CURVE('',#400,#405,#193,.T.);
#498=EDGE_CURVE('',#401,#406,#194,.T.);
#499=EDGE_CURVE('',#407,#408,#195,.T.);
#500=EDGE_CURVE('',#408,#409,#196,.T.);
#501=EDGE_CURVE('',#410,#409,#197,.T.);
#502=EDGE_CURVE('',#407,#410,#198,.T.);
#503=EDGE_CURVE('',#411,#407,#199,.T.);
#504=EDGE_CURVE('',#412,#410,#200,.T.);
#505=EDGE_CURVE('',#411,#412,#201,.T.);
#506=EDGE_CURVE('',#413,#411,#202,.T.);
#507=EDGE_CURVE('',#414,#412,#203,.T.);
#508=EDGE_CURVE('',#413,#414,#204,.T.);
#509=EDGE_CURVE('',#408,#413,#205,.T.);
#510=EDGE_CURVE('',#409,#414,#206,.T.);
#511=EDGE_CURVE('',#415,#416,#207,.T.);
#512=EDGE_CURVE('',#416,#417,#208,.T.);
#513=EDGE_CURVE('',#418,#417,#209,.T.);
#514=EDGE_CURVE('',#415,#418,#210,.T.);
#515=EDGE_CURVE('',#419,#415,#211,.T.);
#516=EDGE_CURVE('',#420,#418,#212,.T.);
#517=EDGE_CURVE('',#419,#420,#213,.T.);
#518=EDGE_CURVE('',#421,#419,#214,.T.);
#519=EDGE_CURVE('',#422,#420,#215,.T.);
#520=EDGE_CURVE('',#421,#422,#216,.T.);
#521=EDGE_CURVE('',#416,#421,#217,.T.);
#522=EDGE_CURVE('',#417,#422,#218,.T.);
#523=EDGE_CURVE('',#423,#424,#219,.T.);
#524=EDGE_CURVE('',#424,#425,#220,.T.);
#525=EDGE_CURVE('',#426,#425,#221,.T.);
#526=EDGE_CURVE('',#423,#426,#222,.T.);
#527=EDGE_CURVE('',#427,#423,#223,.T.);
#528=EDGE_CURVE('',#428,#426,#224,.T.);
#529=EDGE_CURVE('',#427,#428,#225,.T.);
#530=EDGE_CURVE('',#429,#427,#226,.T.);
#531=EDGE_CURVE('',#430,#428,#227,.T.);
#532=EDGE_CURVE('',#429,#430,#228,.T.);
#533=EDGE_CURVE('',#424,#429,#229,.T.);
#534=EDGE_CURVE('',#425,#430,#230,.T.);
#535=EDGE_CURVE('',#431,#432,#231,.T.);
#536=EDGE_CURVE('',#432,#433,#232,.T.);
#537=EDGE_CURVE('',#434,#433,#233,.T.);
#538=EDGE_CURVE('',#431,#434,#234,.T.);
#539=EDGE_CURVE('',#435,#431,#235,.T.);
#540=EDGE_CURVE('',#436,#434,#236,.T.);
#541=EDGE_CURVE('',#435,#436,#237,.T.);
#542=EDGE_CURVE('',#437,#435,#238,.T.);
#543=EDGE_CURVE('',#438,#436,#239,.T.);
#544=EDGE_CURVE('',#437,#438,#240,.T.);
#545=EDGE_CURVE('',#432,#437,#241,.T.);
#546=EDGE_CURVE('',#433,#438,#242,.T.);
#547=EDGE_CURVE('',#439,#440,#243,.T.);
#548=EDGE_CURVE('',#440,#441,#244,.T.);
#549=EDGE_CURVE('',#442,#441,#245,.T.);
#550=EDGE_CURVE('',#439,#442,#246,.T.);
#551=EDGE_CURVE('',#443,#439,#247,.T.);
#552=EDGE_CURVE('',#444,#442,#248,.T.);
#553=EDGE_CURVE('',#443,#444,#249,.T.);
#554=EDGE_CURVE('',#445,#443,#250,.T.);
#555=EDGE_CURVE('',#446,#444,#251,.T.);
#556=EDGE_CURVE('',#445,#446,#252,.T.);
#557=EDGE_CURVE('',#440,#445,#253,.T.);
#558=EDGE_CURVE('',#441,#446,#254,.T.);
#559=EDGE_CURVE('',#447,#447,#39,.T.);
#560=EDGE_CURVE('',#447,#448,#255,.T.);
#561=EDGE_CURVE('',#448,#448,#40,.T.);
#562=EDGE_CURVE('',#449,#449,#41,.T.);
#563=EDGE_CURVE('',#449,#450,#256,.T.);
#564=EDGE_CURVE('',#450,#450,#42,.T.);
#565=EDGE_CURVE('',#451,#451,#43,.T.);
#566=EDGE_CURVE('',#451,#452,#257,.T.);
#567=EDGE_CURVE('',#452,#452,#44,.T.);
#568=EDGE_CURVE('',#453,#453,#45,.T.);
#569=EDGE_CURVE('',#453,#454,#258,.T.);
#570=EDGE_CURVE('',#454,#454,#46,.T.);
#571=EDGE_CURVE('',#455,#456,#259,.T.);
#572=EDGE_CURVE('',#455,#457,#260,.T.);
#573=EDGE_CURVE('',#458,#457,#261,.T.);
#574=EDGE_CURVE('',#456,#458,#262,.T.);
#575=EDGE_CURVE('',#456,#459,#263,.T.);
#576=EDGE_CURVE('',#460,#458,#264,.T.);
#577=EDGE_CURVE('',#459,#460,#265,.T.);
#578=EDGE_CURVE('',#461,#459,#266,.T.);
#579=EDGE_CURVE('',#462,#460,#267,.T.);
#580=EDGE_CURVE('',#461,#462,#268,.T.);
#581=EDGE_CURVE('',#455,#461,#269,.T.);
#582=EDGE_CURVE('',#457,#462,#270,.T.);
#583=ORIENTED_EDGE('',*,*,#463,.T.);
#584=ORIENTED_EDGE('',*,*,#464,.T.);
#585=ORIENTED_EDGE('',*,*,#465,.F.);
#586=ORIENTED_EDGE('',*,*,#466,.F.);
#587=ORIENTED_EDGE('',*,*,#467,.T.);
#588=ORIENTED_EDGE('',*,*,#466,.T.);
#589=ORIENTED_EDGE('',*,*,#468,.F.);
#590=ORIENTED_EDGE('',*,*,#469,.F.);
#591=ORIENTED_EDGE('',*,*,#470,.T.);
#592=ORIENTED_EDGE('',*,*,#469,.T.);
#593=ORIENTED_EDGE('',*,*,#471,.F.);
#594=ORIENTED_EDGE('',*,*,#472,.F.);
#595=ORIENTED_EDGE('',*,*,#473,.T.);
#596=ORIENTED_EDGE('',*,*,#472,.T.);
#597=ORIENTED_EDGE('',*,*,#474,.F.);
#598=ORIENTED_EDGE('',*,*,#464,.F.);
#599=ORIENTED_EDGE('',*,*,#475,.T.);
#600=ORIENTED_EDGE('',*,*,#476,.T.);
#601=ORIENTED_EDGE('',*,*,#477,.F.);
#602=ORIENTED_EDGE('',*,*,#478,.F.);
#603=ORIENTED_EDGE('',*,*,#479,.T.);
#604=ORIENTED_EDGE('',*,*,#478,.T.);
#605=ORIENTED_EDGE('',*,*,#480,.F.);
#606=ORIENTED_EDGE('',*,*,#481,.F.);
#607=ORIENTED_EDGE('',*,*,#482,.T.);
#608=ORIENTED_EDGE('',*,*,#481,.T.);
#609=ORIENTED_EDGE('',*,*,#483,.F.);
#610=ORIENTED_EDGE('',*,*,#484,.F.);
#611=ORIENTED_EDGE('',*,*,#485,.T.);
#612=ORIENTED_EDGE('',*,*,#484,.T.);
#613=ORIENTED_EDGE('',*,*,#486,.F.);
#614=ORIENTED_EDGE('',*,*,#476,.F.);
#615=ORIENTED_EDGE('',*,*,#487,.T.);
#616=ORIENTED_EDGE('',*,*,#488,.T.);
#617=ORIENTED_EDGE('',*,*,#489,.F.);
#618=ORIENTED_EDGE('',*,*,#490,.F.);
#619=ORIENTED_EDGE('',*,*,#491,.T.);
#620=ORIENTED_EDGE('',*,*,#490,.T.);
#621=ORIENTED_EDGE('',*,*,#492,.F.);
#622=ORIENTED_EDGE('',*,*,#493,.F.);
#623=ORIENTED_EDGE('',*,*,#494,.T.);
#624=ORIENTED_EDGE('',*,*,#493,.T.);
#625=ORIENTED_EDGE('',*,*,#495,.F.);
#626=ORIENTED_EDGE('',*,*,#496,.F.);
#627=ORIENTED_EDGE('',*,*,#497,.T.);
#628=ORIENTED_EDGE('',*,*,#496,.T.);
#629=ORIENTED_EDGE('',*,*,#498,.F.);
#630=ORIENTED_EDGE('',*,*,#488,.F.);
#631=ORIENTED_EDGE('',*,*,#499,.T.);
#632=ORIENTED_EDGE('',*,*,#500,.T.);
#633=ORIENTED_EDGE('',*,*,#501,.F.);
#634=ORIENTED_EDGE('',*,*,#502,.F.);
#635=ORIENTED_EDGE('',*,*,#503,.T.);
#636=ORIENTED_EDGE('',*,*,#502,.T.);
#637=ORIENTED_EDGE('',*,*,#504,.F.);
#638=ORIENTED_EDGE('',*,*,#505,.F.);
#639=ORIENTED_EDGE('',*,*,#506,.T.);
#640=ORIENTED_EDGE('',*,*,#505,.T.);
#641=ORIENTED_EDGE('',*,*,#507,.F.);
#642=ORIENTED_EDGE('',*,*,#508,.F.);
#643=ORIENTED_EDGE('',*,*,#509,.T.);
#644=ORIENTED_EDGE('',*,*,#508,.T.);
#645=ORIENTED_EDGE('',*,*,#510,.F.);
#646=ORIENTED_EDGE('',*,*,#500,.F.);
#647=ORIENTED_EDGE('',*,*,#511,.T.);
#648=ORIENTED_EDGE('',*,*,#512,.T.);
#649=ORIENTED_EDGE('',*,*,#513,.F.);
#650=ORIENTED_EDGE('',*,*,#514,.F.);
#651=ORIENTED_EDGE('',*,*,#515,.T.);
#652=ORIENTED_EDGE('',*,*,#514,.T.);
#653=ORIENTED_EDGE('',*,*,#516,.F.);
#654=ORIENTED_EDGE('',*,*,#517,.F.);
#655=ORIENTED_EDGE('',*,*,#518,.T.);
#656=ORIENTED_EDGE('',*,*,#517,.T.);
#657=ORIENTED_EDGE('',*,*,#519,.F.);
#658=ORIENTED_EDGE('',*,*,#520,.F.);
#659=ORIENTED_EDGE('',*,*,#521,.T.);
#660=ORIENTED_EDGE('',*,*,#520,.T.);
#661=ORIENTED_EDGE('',*,*,#522,.F.);
#662=ORIENTED_EDGE('',*,*,#512,.F.);
#663=ORIENTED_EDGE('',*,*,#523,.T.);
#664=ORIENTED_EDGE('',*,*,#524,.T.);
#665=ORIENTED_EDGE('',*,*,#525,.F.);
#666=ORIENTED_EDGE('',*,*,#526,.F.);
#667=ORIENTED_EDGE('',*,*,#527,.T.);
#668=ORIENTED_EDGE('',*,*,#526,.T.);
#669=ORIENTED_EDGE('',*,*,#528,.F.);
#670=ORIENTED_EDGE('',*,*,#529,.F.);
#671=ORIENTED_EDGE('',*,*,#530,.T.);
#672=ORIENTED_EDGE('',*,*,#529,.T.);
#673=ORIENTED_EDGE('',*,*,#531,.F.);
#674=ORIENTED_EDGE('',*,*,#532,.F.);
#675=ORIENTED_EDGE('',*,*,#533,.T.);
#676=ORIENTED_EDGE('',*,*,#532,.T.);
#677=ORIENTED_EDGE('',*,*,#534,.F.);
#678=ORIENTED_EDGE('',*,*,#524,.F.);
#679=ORIENTED_EDGE('',*,*,#535,.T.);
#680=ORIENTED_EDGE('',*,*,#536,.T.);
#681=ORIENTED_EDGE('',*,*,#537,.F.);
#682=ORIENTED_EDGE('',*,*,#538,.F.);
#683=ORIENTED_EDGE('',*,*,#539,.T.);
#684=ORIENTED_EDGE('',*,*,#538,.T.);
#685=ORIENTED_EDGE('',*,*,#540,.F.);
#686=ORIENTED_EDGE('',*,*,#541,.F.);
#687=ORIENTED_EDGE('',*,*,#542,.T.);
#688=ORIENTED_EDGE('',*,*,#541,.T.);
#689=ORIENTED_EDGE('',*,*,#543,.F.);
#690=ORIENTED_EDGE('',*,*,#544,.F.);
#691=ORIENTED_EDGE('',*,*,#545,.T.);
#692=ORIENTED_EDGE('',*,*,#544,.T.);
#693=ORIENTED_EDGE('',*,*,#546,.F.);
#694=ORIENTED_EDGE('',*,*,#536,.F.);
#695=ORIENTED_EDGE('',*,*,#547,.T.);
#696=ORIENTED_EDGE('',*,*,#548,.T.);
#697=ORIENTED_EDGE('',*,*,#549,.F.);
#698=ORIENTED_EDGE('',*,*,#550,.F.);
#699=ORIENTED_EDGE('',*,*,#551,.T.);
#700=ORIENTED_EDGE('',*,*,#550,.T.);
#701=ORIENTED_EDGE('',*,*,#552,.F.);
#702=ORIENTED_EDGE('',*,*,#553,.F.);
#703=ORIENTED_EDGE('',*,*,#554,.T.);
#704=ORIENTED_EDGE('',*,*,#553,.T.);
#705=ORIENTED_EDGE('',*,*,#555,.F.);
#706=ORIENTED_EDGE('',*,*,#556,.F.);
#707=ORIENTED_EDGE('',*,*,#557,.T.);
#708=ORIENTED_EDGE('',*,*,#556,.T.);
#709=ORIENTED_EDGE('',*,*,#558,.F.);
#710=ORIENTED_EDGE('',*,*,#548,.F.);
#711=ORIENTED_EDGE('',*,*,#559,.F.);
#712=ORIENTED_EDGE('',*,*,#560,.T.);
#713=ORIENTED_EDGE('',*,*,#561,.T.);
#714=ORIENTED_EDGE('',*,*,#560,.F.);
#715=ORIENTED_EDGE('',*,*,#562,.F.);
#716=ORIENTED_EDGE('',*,*,#563,.T.);
#717=ORIENTED_EDGE('',*,*,#564,.T.);
#718=ORIENTED_EDGE('',*,*,#563,.F.);
#719=ORIENTED_EDGE('',*,*,#565,.F.);
#720=ORIENTED_EDGE('',*,*,#566,.T.);
#721=ORIENTED_EDGE('',*,*,#567,.T.);
#722=ORIENTED_EDGE('',*,*,#566,.F.);
#723=ORIENTED_EDGE('',*,*,#568,.F.);
#724=ORIENTED_EDGE('',*,*,#569,.T.);
#725=ORIENTED_EDGE('',*,*,#570,.T.);
#726=ORIENTED_EDGE('',*,*,#569,.F.);
#727=ORIENTED_EDGE('',*,*,#571,.F.);
#728=ORIENTED_EDGE('',*,*,#572,.T.);
#729=ORIENTED_EDGE('',*,*,#573,.F.);
#730=ORIENTED_EDGE('',*,*,#574,.F.);
#731=ORIENTED_EDGE('',*,*,#575,.F.);
#732=ORIENTED_EDGE('',*,*,#574,.T.);
#733=ORIENTED_EDGE('',*,*,#576,.F.);
#734=ORIENTED_EDGE('',*,*,#577,.F.);
#735=ORIENTED_EDGE('',*,*,#578,.T.);
#736=ORIENTED_EDGE('',*,*,#577,.T.);
#737=ORIENTED_EDGE('',*,*,#579,.F.);
#738=ORIENTED_EDGE('',*,*,#580,.F.);
#739=ORIENTED_EDGE('',*,*,#581,.T.);
#740=ORIENTED_EDGE('',*,*,#580,.T.);
#741=ORIENTED_EDGE('',*,*,#582,.F.);
#742=ORIENTED_EDGE('',*,*,#572,.F.);
#743=ORIENTED_EDGE('',*,*,#582,.T.);
#744=ORIENTED_EDGE('',*,*,#579,.T.);
#745=ORIENTED_EDGE('',*,*,#576,.T.);
#746=ORIENTED_EDGE('',*,*,#573,.T.);
#747=ORIENTED_EDGE('',*,*,#474,.T.);
#748=ORIENTED_EDGE('',*,*,#471,.T.);
#749=ORIENTED_EDGE('',*,*,#468,.T.);
#750=ORIENTED_EDGE('',*,*,#465,.T.);
#751=ORIENTED_EDGE('',*,*,#486,.T.);
#752=ORIENTED_EDGE('',*,*,#483,.T.);
#753=ORIENTED_EDGE('',*,*,#480,.T.);
#754=ORIENTED_EDGE('',*,*,#477,.T.);
#755=ORIENTED_EDGE('',*,*,#498,.T.);
#756=ORIENTED_EDGE('',*,*,#495,.T.);
#757=ORIENTED_EDGE('',*,*,#492,.T.);
#758=ORIENTED_EDGE('',*,*,#489,.T.);
#759=ORIENTED_EDGE('',*,*,#510,.T.);
#760=ORIENTED_EDGE('',*,*,#507,.T.);
#761=ORIENTED_EDGE('',*,*,#504,.T.);
#762=ORIENTED_EDGE('',*,*,#501,.T.);
#763=ORIENTED_EDGE('',*,*,#522,.T.);
#764=ORIENTED_EDGE('',*,*,#519,.T.);
#765=ORIENTED_EDGE('',*,*,#516,.T.);
#766=ORIENTED_EDGE('',*,*,#513,.T.);
#767=ORIENTED_EDGE('',*,*,#534,.T.);
#768=ORIENTED_EDGE('',*,*,#531,.T.);
#769=ORIENTED_EDGE('',*,*,#528,.T.);
#770=ORIENTED_EDGE('',*,*,#525,.T.);
#771=ORIENTED_EDGE('',*,*,#546,.T.);
#772=ORIENTED_EDGE('',*,*,#543,.T.);
#773=ORIENTED_EDGE('',*,*,#540,.T.);
#774=ORIENTED_EDGE('',*,*,#537,.T.);
#775=ORIENTED_EDGE('',*,*,#558,.T.);
#776=ORIENTED_EDGE('',*,*,#555,.T.);
#777=ORIENTED_EDGE('',*,*,#552,.T.);
#778=ORIENTED_EDGE('',*,*,#549,.T.);
#779=ORIENTED_EDGE('',*,*,#568,.T.);
#780=ORIENTED_EDGE('',*,*,#565,.T.);
#781=ORIENTED_EDGE('',*,*,#562,.T.);
#782=ORIENTED_EDGE('',*,*,#559,.T.);
#783=ORIENTED_EDGE('',*,*,#581,.F.);
#784=ORIENTED_EDGE('',*,*,#571,.T.);
#785=ORIENTED_EDGE('',*,*,#575,.T.);
#786=ORIENTED_EDGE('',*,*,#578,.F.);
#787=ORIENTED_EDGE('',*,*,#473,.F.);
#788=ORIENTED_EDGE('',*,*,#463,.F.);
#789=ORIENTED_EDGE('',*,*,#467,.F.);
#790=ORIENTED_EDGE('',*,*,#470,.F.);
#791=ORIENTED_EDGE('',*,*,#485,.F.);
#792=ORIENTED_EDGE('',*,*,#475,.F.);
#793=ORIENTED_EDGE('',*,*,#479,.F.);
#794=ORIENTED_EDGE('',*,*,#482,.F.);
#795=ORIENTED_EDGE('',*,*,#497,.F.);
#796=ORIENTED_EDGE('',*,*,#487,.F.);
#797=ORIENTED_EDGE('',*,*,#491,.F.);
#798=ORIENTED_EDGE('',*,*,#494,.F.);
#799=ORIENTED_EDGE('',*,*,#509,.F.);
#800=ORIENTED_EDGE('',*,*,#499,.F.);
#801=ORIENTED_EDGE('',*,*,#503,.F.);
#802=ORIENTED_EDGE('',*,*,#506,.F.);
#803=ORIENTED_EDGE('',*,*,#521,.F.);
#804=ORIENTED_EDGE('',*,*,#511,.F.);
#805=ORIENTED_EDGE('',*,*,#515,.F.);
#806=ORIENTED_EDGE('',*,*,#518,.F.);
#807=ORIENTED_EDGE('',*,*,#533,.F.);
#808=ORIENTED_EDGE('',*,*,#523,.F.);
#809=ORIENTED_EDGE('',*,*,#527,.F.);
#810=ORIENTED_EDGE('',*,*,#530,.F.);
#811=ORIENTED_EDGE('',*,*,#545,.F.);
#812=ORIENTED_EDGE('',*,*,#535,.F.);
#813=ORIENTED_EDGE('',*,*,#539,.F.);
#814=ORIENTED_EDGE('',*,*,#542,.F.);
#815=ORIENTED_EDGE('',*,*,#557,.F.);
#816=ORIENTED_EDGE('',*,*,#547,.F.);
#817=ORIENTED_EDGE('',*,*,#551,.F.);
#818=ORIENTED_EDGE('',*,*,#554,.F.);
#819=ORIENTED_EDGE('',*,*,#570,.F.);
#820=ORIENTED_EDGE('',*,*,#567,.F.);
#821=ORIENTED_EDGE('',*,*,#564,.F.);
#822=ORIENTED_EDGE('',*,*,#561,.F.);
#823=PLANE('',#917);
#824=PLANE('',#918);
#825=PLANE('',#919);
#826=PLANE('',#920);
#827=PLANE('',#921);
#828=PLANE('',#922);
#829=PLANE('',#923);
#830=PLANE('',#924);
#831=PLANE('',#925);
#832=PLANE('',#926);
#833=PLANE('',#927);
#834=PLANE('',#928);
#835=PLANE('',#929);
#836=PLANE('',#930);
#837=PLANE('',#931);
#838=PLANE('',#932);
#839=PLANE('',#933);
#840=PLANE('',#934);
#841=PLANE('',#935);
#842=PLANE('',#936);
#843=PLANE('',#937);
#844=PLANE('',#938);
#845=PLANE('',#939);
#846=PLANE('',#940);
#847=PLANE('',#941);
#848=PLANE('',#942);
#849=PLANE('',#943);
#850=PLANE('',#944);
#851=PLANE('',#945);
#852=PLANE('',#946);
#853=PLANE('',#947);
#854=PLANE('',#948);
#855=PLANE('',#961);
#856=PLANE('',#962);
#857=PLANE('',#963);
#858=PLANE('',#964);
#859=PLANE('',#965);
#860=PLANE('',#966);
#861=ADVANCED_FACE('',(#51),#823,.T.);
#862=ADVANCED_FACE('',(#52),#824,.T.);
#863=ADVANCED_FACE('',(#53),#825,.T.);
#864=ADVANCED_FACE('',(#54),#826,.T.);
#865=ADVANCED_FACE('',(#55),#827,.T.);
#866=ADVANCED_FACE('',(#56),#828,.T.);
#867=ADVANCED_FACE('',(#57),#829,.T.);
#868=ADVANCED_FACE('',(#58),#830,.T.);
#869=ADVANCED_FACE('',(#59),#831,.T.);
#870=ADVANCED_FACE('',(#60),#832,.T.);
#871=ADVANCED_FACE('',(#61),#833,.T.);
#872=ADVANCED_FACE('',(#62),#834,.T.);
#873=ADVANCED_FACE('',(#63),#835,.T.);
#874=ADVANCED_FACE('',(#64),#836,.T.);
#875=ADVANCED_FACE('',(#65),#837,.T.);
#876=ADVANCED_FACE('',(#66),#838,.T.);
#877=ADVANCED_FACE('',(#67),#839,.T.);
#878=ADVANCED_FACE('',(#68),#840,.T.);
#879=ADVANCED_FACE('',(#69),#841,.T.);
#880=ADVANCED_FACE('',(#70),#842,.T.);
#881=ADVANCED_FACE('',(#71),#843,.T.);
#882=ADVANCED_FACE('',(#72),#844,.T.);
#883=ADVANCED_FACE('',(#73),#845,.T.);
#884=ADVANCED_FACE('',(#74),#846,.T.);
#885=ADVANCED_FACE('',(#75),#847,.T.);
#886=ADVANCED_FACE('',(#76),#848,.T.);
#887=ADVANCED_FACE('',(#77),#849,.T.);
#888=ADVANCED_FACE('',(#78),#850,.T.);
#889=ADVANCED_FACE('',(#79),#851,.T.);
#890=ADVANCED_FACE('',(#80),#852,.T.);
#891=ADVANCED_FACE('',(#81),#853,.T.);
#892=ADVANCED_FACE('',(#82),#854,.T.);
#893=ADVANCED_FACE('',(#83),#47,.F.);
#894=ADVANCED_FACE('',(#84),#48,.F.);
#895=ADVANCED_FACE('',(#85),#49,.F.);
#896=ADVANCED_FACE('',(#86),#50,.F.);
#897=ADVANCED_FACE('',(#87),#855,.T.);
#898=ADVANCED_FACE('',(#88),#856,.T.);
#899=ADVANCED_FACE('',(#89),#857,.T.);
#900=ADVANCED_FACE('',(#90),#858,.T.);
#901=ADVANCED_FACE('',(#91,#15,#16,#17,#18,#19,#20,#21,#22,#23,#24,#25,
#26),#859,.T.);
#902=ADVANCED_FACE('',(#92,#27,#28,#29,#30,#31,#32,#33,#34,#35,#36,#37,
#38),#860,.F.);
#903=CLOSED_SHELL('',(#861,#862,#863,#864,#865,#866,#867,#868,#869,#870,
#871,#872,#873,#874,#875,#876,#877,#878,#879,#880,#881,#882,#883,#884,#885,
#886,#887,#888,#889,#890,#891,#892,#893,#894,#895,#896,#897,#898,#899,#900,
#901,#902));
#904=DERIVED_UNIT_ELEMENT(#906,1.);
#905=DERIVED_UNIT_ELEMENT(#1429,-3.);
#906=(
MASS_UNIT()
NAMED_UNIT(*)
SI_UNIT(.KILO.,.GRAM.)
);
#907=DERIVED_UNIT((#904,#905));
#908=MEASURE_REPRESENTATION_ITEM('density measure',
POSITIVE_RATIO_MEASURE(7850.),#907);
#909=PROPERTY_DEFINITION_REPRESENTATION(#914,#911);
#910=PROPERTY_DEFINITION_REPRESENTATION(#915,#912);
#911=REPRESENTATION('material name',(#913),#1426);
#912=REPRESENTATION('density',(#908),#1426);
#913=DESCRIPTIVE_REPRESENTATION_ITEM('Steel','Steel');
#914=PROPERTY_DEFINITION('material property','material name',#1436);
#915=PROPERTY_DEFINITION('material property','density of part',#1436);
#916=AXIS2_PLACEMENT_3D('',#1181,#967,#968);
#917=AXIS2_PLACEMENT_3D('',#1182,#969,#970);
#918=AXIS2_PLACEMENT_3D('',#1191,#975,#976);
#919=AXIS2_PLACEMENT_3D('',#1197,#980,#981);
#920=AXIS2_PLACEMENT_3D('',#1203,#985,#986);
#921=AXIS2_PLACEMENT_3D('',#1206,#989,#990);
#922=AXIS2_PLACEMENT_3D('',#1215,#995,#996);
#923=AXIS2_PLACEMENT_3D('',#1221,#1000,#1001);
#924=AXIS2_PLACEMENT_3D('',#1227,#1005,#1006);
#925=AXIS2_PLACEMENT_3D('',#1230,#1009,#1010);
#926=AXIS2_PLACEMENT_3D('',#1239,#1015,#1016);
#927=AXIS2_PLACEMENT_3D('',#1245,#1020,#1021);
#928=AXIS2_PLACEMENT_3D('',#1251,#1025,#1026);
#929=AXIS2_PLACEMENT_3D('',#1254,#1029,#1030);
#930=AXIS2_PLACEMENT_3D('',#1263,#1035,#1036);
#931=AXIS2_PLACEMENT_3D('',#1269,#1040,#1041);
#932=AXIS2_PLACEMENT_3D('',#1275,#1045,#1046);
#933=AXIS2_PLACEMENT_3D('',#1278,#1049,#1050);
#934=AXIS2_PLACEMENT_3D('',#1287,#1055,#1056);
#935=AXIS2_PLACEMENT_3D('',#1293,#1060,#1061);
#936=AXIS2_PLACEMENT_3D('',#1299,#1065,#1066);
#937=AXIS2_PLACEMENT_3D('',#1302,#1069,#1070);
#938=AXIS2_PLACEMENT_3D('',#1311,#1075,#1076);
#939=AXIS2_PLACEMENT_3D('',#1317,#1080,#1081);
#940=AXIS2_PLACEMENT_3D('',#1323,#1085,#1086);
#941=AXIS2_PLACEMENT_3D('',#1326,#1089,#1090);
#942=AXIS2_PLACEMENT_3D('',#1335,#1095,#1096);
#943=AXIS2_PLACEMENT_3D('',#1341,#1100,#1101);
#944=AXIS2_PLACEMENT_3D('',#1347,#1105,#1106);
#945=AXIS2_PLACEMENT_3D('',#1350,#1109,#1110);
#946=AXIS2_PLACEMENT_3D('',#1359,#1115,#1116);
#947=AXIS2_PLACEMENT_3D('',#1365,#1120,#1121);
#948=AXIS2_PLACEMENT_3D('',#1371,#1125,#1126);
#949=AXIS2_PLACEMENT_3D('',#1374,#1129,#1130);
#950=AXIS2_PLACEMENT_3D('',#1376,#1131,#1132);
#951=AXIS2_PLACEMENT_3D('',#1379,#1134,#1135);
#952=AXIS2_PLACEMENT_3D('',#1380,#1136,#1137);
#953=AXIS2_PLACEMENT_3D('',#1382,#1138,#1139);
#954=AXIS2_PLACEMENT_3D('',#1385,#1141,#1142);
#955=AXIS2_PLACEMENT_3D('',#1386,#1143,#1144);
#956=AXIS2_PLACEMENT_3D('',#1388,#1145,#1146);
#957=AXIS2_PLACEMENT_3D('',#1391,#1148,#1149);
#958=AXIS2_PLACEMENT_3D('',#1392,#1150,#1151);
#959=AXIS2_PLACEMENT_3D('',#1394,#1152,#1153);
#960=AXIS2_PLACEMENT_3D('',#1397,#1155,#1156);
#961=AXIS2_PLACEMENT_3D('',#1398,#1157,#1158);
#962=AXIS2_PLACEMENT_3D('',#1407,#1163,#1164);
#963=AXIS2_PLACEMENT_3D('',#1413,#1168,#1169);
#964=AXIS2_PLACEMENT_3D('',#1419,#1173,#1174);
#965=AXIS2_PLACEMENT_3D('',#1422,#1177,#1178);
#966=AXIS2_PLACEMENT_3D('',#1423,#1179,#1180);
#967=DIRECTION('axis',(0.,0.,1.));
#968=DIRECTION('refdir',(1.,0.,0.));
#969=DIRECTION('center_axis',(-1.,0.,0.));
#970=DIRECTION('ref_axis',(0.,-1.,0.));
#971=DIRECTION('',(0.,-1.,0.));
#972=DIRECTION('',(0.,0.,1.));
#973=DIRECTION('',(0.,-1.,0.));
#974=DIRECTION('',(0.,0.,1.));
#975=DIRECTION('center_axis',(0.,-1.,0.));
#976=DIRECTION('ref_axis',(1.,0.,0.));
#977=DIRECTION('',(1.,0.,0.));
#978=DIRECTION('',(1.,0.,0.));
#979=DIRECTION('',(0.,0.,1.));
#980=DIRECTION('center_axis',(1.,0.,0.));
#981=DIRECTION('ref_axis',(0.,1.,0.));
#982=DIRECTION('',(0.,1.,0.));
#983=DIRECTION('',(0.,1.,0.));
#984=DIRECTION('',(0.,0.,1.));
#985=DIRECTION('center_axis',(0.,1.,0.));
#986=DIRECTION('ref_axis',(-1.,0.,0.));
#987=DIRECTION('',(-1.,0.,0.));
#988=DIRECTION('',(-1.,0.,0.));
#989=DIRECTION('center_axis',(0.,1.,0.));
#990=DIRECTION('ref_axis',(-1.,0.,0.));
#991=DIRECTION('',(-1.,0.,0.));
#992=DIRECTION('',(0.,0.,1.));
#993=DIRECTION('',(-1.,0.,0.));
#994=DIRECTION('',(0.,0.,1.));
#995=DIRECTION('center_axis',(-1.,0.,0.));
#996=DIRECTION('ref_axis',(0.,-1.,0.));
#997=DIRECTION('',(0.,-1.,0.));
#998=DIRECTION('',(0.,-1.,0.));
#999=DIRECTION('',(0.,0.,1.));
#1000=DIRECTION('center_axis',(0.,-1.,0.));
#1001=DIRECTION('ref_axis',(1.,0.,0.));
#1002=DIRECTION('',(1.,0.,0.));
#1003=DIRECTION('',(1.,0.,0.));
#1004=DIRECTION('',(0.,0.,1.));
#1005=DIRECTION('center_axis',(1.,0.,0.));
#1006=DIRECTION('ref_axis',(0.,1.,0.));
#1007=DIRECTION('',(0.,1.,0.));
#1008=DIRECTION('',(0.,1.,0.));
#1009=DIRECTION('center_axis',(-1.,0.,0.));
#1010=DIRECTION('ref_axis',(0.,-1.,0.));
#1011=DIRECTION('',(0.,-1.,0.));
#1012=DIRECTION('',(0.,0.,1.));
#1013=DIRECTION('',(0.,-1.,0.));
#1014=DIRECTION('',(0.,0.,1.));
#1015=DIRECTION('center_axis',(0.,-1.,0.));
#1016=DIRECTION('ref_axis',(1.,0.,0.));
#1017=DIRECTION('',(1.,0.,0.));
#1018=DIRECTION('',(1.,0.,0.));
#1019=DIRECTION('',(0.,0.,1.));
#1020=DIRECTION('center_axis',(1.,0.,0.));
#1021=DIRECTION('ref_axis',(0.,1.,0.));
#1022=DIRECTION('',(0.,1.,0.));
#1023=DIRECTION('',(0.,1.,0.));
#1024=DIRECTION('',(0.,0.,1.));
#1025=DIRECTION('center_axis',(0.,1.,0.));
#1026=DIRECTION('ref_axis',(-1.,0.,0.));
#1027=DIRECTION('',(-1.,0.,0.));
#1028=DIRECTION('',(-1.,0.,0.));
#1029=DIRECTION('center_axis',(0.,1.,0.));
#1030=DIRECTION('ref_axis',(-1.,0.,0.));
#1031=DIRECTION('',(-1.,0.,0.));
#1032=DIRECTION('',(0.,0.,1.));
#1033=DIRECTION('',(-1.,0.,0.));
#1034=DIRECTION('',(0.,0.,1.));
#1035=DIRECTION('center_axis',(-1.,0.,0.));
#1036=DIRECTION('ref_axis',(0.,-1.,0.));
#1037=DIRECTION('',(0.,-1.,0.));
#1038=DIRECTION('',(0.,-1.,0.));
#1039=DIRECTION('',(0.,0.,1.));
#1040=DIRECTION('center_axis',(0.,-1.,0.));
#1041=DIRECTION('ref_axis',(1.,0.,0.));
#1042=DIRECTION('',(1.,0.,0.));
#1043=DIRECTION('',(1.,0.,0.));
#1044=DIRECTION('',(0.,0.,1.));
#1045=DIRECTION('center_axis',(1.,0.,0.));
#1046=DIRECTION('ref_axis',(0.,1.,0.));
#1047=DIRECTION('',(0.,1.,0.));
#1048=DIRECTION('',(0.,1.,0.));
#1049=DIRECTION('center_axis',(-1.,0.,0.));
#1050=DIRECTION('ref_axis',(0.,-1.,0.));
#1051=DIRECTION('',(0.,-1.,0.));
#1052=DIRECTION('',(0.,0.,1.));
#1053=DIRECTION('',(0.,-1.,0.));
#1054=DIRECTION('',(0.,0.,1.));
#1055=DIRECTION('center_axis',(0.,-1.,0.));
#1056=DIRECTION('ref_axis',(1.,0.,0.));
#1057=DIRECTION('',(1.,0.,0.));
#1058=DIRECTION('',(1.,0.,0.));
#1059=DIRECTION('',(0.,0.,1.));
#1060=DIRECTION('center_axis',(1.,0.,0.));
#1061=DIRECTION('ref_axis',(0.,1.,0.));
#1062=DIRECTION('',(0.,1.,0.));
#1063=DIRECTION('',(0.,1.,0.));
#1064=DIRECTION('',(0.,0.,1.));
#1065=DIRECTION('center_axis',(0.,1.,0.));
#1066=DIRECTION('ref_axis',(-1.,0.,0.));
#1067=DIRECTION('',(-1.,0.,0.));
#1068=DIRECTION('',(-1.,0.,0.));
#1069=DIRECTION('center_axis',(-1.,0.,0.));
#1070=DIRECTION('ref_axis',(0.,-1.,0.));
#1071=DIRECTION('',(0.,-1.,0.));
#1072=DIRECTION('',(0.,0.,1.));
#1073=DIRECTION('',(0.,-1.,0.));
#1074=DIRECTION('',(0.,0.,1.));
#1075=DIRECTION('center_axis',(0.,-1.,0.));
#1076=DIRECTION('ref_axis',(1.,0.,0.));
#1077=DIRECTION('',(1.,0.,0.));
#1078=DIRECTION('',(1.,0.,0.));
#1079=DIRECTION('',(0.,0.,1.));
#1080=DIRECTION('center_axis',(1.,0.,0.));
#1081=DIRECTION('ref_axis',(0.,1.,0.));
#1082=DIRECTION('',(0.,1.,0.));
#1083=DIRECTION('',(0.,1.,0.));
#1084=DIRECTION('',(0.,0.,1.));
#1085=DIRECTION('center_axis',(0.,1.,0.));
#1086=DIRECTION('ref_axis',(-1.,0.,0.));
#1087=DIRECTION('',(-1.,0.,0.));
#1088=DIRECTION('',(-1.,0.,0.));
#1089=DIRECTION('center_axis',(-1.,0.,0.));
#1090=DIRECTION('ref_axis',(0.,-1.,0.));
#1091=DIRECTION('',(0.,-1.,0.));
#1092=DIRECTION('',(0.,0.,1.));
#1093=DIRECTION('',(0.,-1.,0.));
#1094=DIRECTION('',(0.,0.,1.));
#1095=DIRECTION('center_axis',(0.,-1.,0.));
#1096=DIRECTION('ref_axis',(1.,0.,0.));
#1097=DIRECTION('',(1.,0.,0.));
#1098=DIRECTION('',(1.,0.,0.));
#1099=DIRECTION('',(0.,0.,1.));
#1100=DIRECTION('center_axis',(1.,0.,0.));
#1101=DIRECTION('ref_axis',(0.,1.,0.));
#1102=DIRECTION('',(0.,1.,0.));
#1103=DIRECTION('',(0.,1.,0.));
#1104=DIRECTION('',(0.,0.,1.));
#1105=DIRECTION('center_axis',(0.,1.,0.));
#1106=DIRECTION('ref_axis',(-1.,0.,0.));
#1107=DIRECTION('',(-1.,0.,0.));
#1108=DIRECTION('',(-1.,0.,0.));
#1109=DIRECTION('center_axis',(0.,1.,0.));
#1110=DIRECTION('ref_axis',(-1.,0.,0.));
#1111=DIRECTION('',(-1.,0.,0.));
#1112=DIRECTION('',(0.,0.,1.));
#1113=DIRECTION('',(-1.,0.,0.));
#1114=DIRECTION('',(0.,0.,1.));
#1115=DIRECTION('center_axis',(-1.,0.,0.));
#1116=DIRECTION('ref_axis',(0.,-1.,0.));
#1117=DIRECTION('',(0.,-1.,0.));
#1118=DIRECTION('',(0.,-1.,0.));
#1119=DIRECTION('',(0.,0.,1.));
#1120=DIRECTION('center_axis',(0.,-1.,0.));
#1121=DIRECTION('ref_axis',(1.,0.,0.));
#1122=DIRECTION('',(1.,0.,0.));
#1123=DIRECTION('',(1.,0.,0.));
#1124=DIRECTION('',(0.,0.,1.));
#1125=DIRECTION('center_axis',(1.,0.,0.));
#1126=DIRECTION('ref_axis',(0.,1.,0.));
#1127=DIRECTION('',(0.,1.,0.));
#1128=DIRECTION('',(0.,1.,0.));
#1129=DIRECTION('center_axis',(0.,0.,1.));
#1130=DIRECTION('ref_axis',(1.,0.,0.));
#1131=DIRECTION('center_axis',(0.,0.,-1.));
#1132=DIRECTION('ref_axis',(1.,0.,0.));
#1133=DIRECTION('',(0.,0.,-1.));
#1134=DIRECTION('center_axis',(0.,0.,-1.));
#1135=DIRECTION('ref_axis',(1.,0.,0.));
#1136=DIRECTION('center_axis',(0.,0.,1.));
#1137=DIRECTION('ref_axis',(1.,0.,0.));
#1138=DIRECTION('center_axis',(0.,0.,-1.));
#1139=DIRECTION('ref_axis',(1.,0.,0.));
#1140=DIRECTION('',(0.,0.,-1.));
#1141=DIRECTION('center_axis',(0.,0.,-1.));
#1142=DIRECTION('ref_axis',(1.,0.,0.));
#1143=DIRECTION('center_axis',(0.,0.,1.));
#1144=DIRECTION('ref_axis',(1.,0.,0.));
#1145=DIRECTION('center_axis',(0.,0.,-1.));
#1146=DIRECTION('ref_axis',(1.,0.,0.));
#1147=DIRECTION('',(0.,0.,-1.));
#1148=DIRECTION('center_axis',(0.,0.,-1.));
#1149=DIRECTION('ref_axis',(1.,0.,0.));
#1150=DIRECTION('center_axis',(0.,0.,1.));
#1151=DIRECTION('ref_axis',(1.,0.,0.));
#1152=DIRECTION('center_axis',(0.,0.,-1.));
#1153=DIRECTION('ref_axis',(1.,0.,0.));
#1154=DIRECTION('',(0.,0.,-1.));
#1155=DIRECTION('center_axis',(0.,0.,-1.));
#1156=DIRECTION('ref_axis',(1.,0.,0.));
#1157=DIRECTION('center_axis',(-1.,0.,0.));
#1158=DIRECTION('ref_axis',(0.,-1.,0.));
#1159=DIRECTION('',(0.,1.,0.));
#1160=DIRECTION('',(0.,0.,1.));
#1161=DIRECTION('',(0.,-1.,0.));
#1162=DIRECTION('',(0.,0.,1.));
#1163=DIRECTION('center_axis',(0.,1.,0.));
#1164=DIRECTION('ref_axis',(-1.,0.,0.));
#1165=DIRECTION('',(1.,0.,0.));
#1166=DIRECTION('',(-1.,0.,0.));
#1167=DIRECTION('',(0.,0.,1.));
#1168=DIRECTION('center_axis',(1.,0.,0.));
#1169=DIRECTION('ref_axis',(0.,1.,0.));
#1170=DIRECTION('',(0.,1.,0.));
#1171=DIRECTION('',(0.,1.,0.));
#1172=DIRECTION('',(0.,0.,1.));
#1173=DIRECTION('center_axis',(0.,-1.,0.));
#1174=DIRECTION('ref_axis',(1.,0.,0.));
#1175=DIRECTION('',(1.,0.,0.));
#1176=DIRECTION('',(1.,0.,0.));
#1177=DIRECTION('center_axis',(0.,0.,1.));
#1178=DIRECTION('ref_axis',(1.,0.,0.));
#1179=DIRECTION('center_axis',(0.,0.,1.));
#1180=DIRECTION('ref_axis',(1.,0.,0.));
#1181=CARTESIAN_POINT('',(0.,0.,0.));
#1182=CARTESIAN_POINT('Origin',(148.185001326203,65.2850010430813,0.));
#1183=CARTESIAN_POINT('',(148.185001326203,65.2850010430813,0.));
#1184=CARTESIAN_POINT('',(148.185001326203,51.3150010430813,0.));
#1185=CARTESIAN_POINT('',(148.185001326203,65.2850010430813,0.));
#1186=CARTESIAN_POINT('',(148.185001326203,51.3150010430813,3.));
#1187=CARTESIAN_POINT('',(148.185001326203,51.3150010430813,0.));
#1188=CARTESIAN_POINT('',(148.185001326203,65.2850010430813,3.));
#1189=CARTESIAN_POINT('',(148.185001326203,65.2850010430813,3.));
#1190=CARTESIAN_POINT('',(148.185001326203,65.2850010430813,0.));
#1191=CARTESIAN_POINT('Origin',(134.215001326203,65.2850010430813,0.));
#1192=CARTESIAN_POINT('',(134.215001326203,65.2850010430813,0.));
#1193=CARTESIAN_POINT('',(134.215001326203,65.2850010430813,0.));
#1194=CARTESIAN_POINT('',(134.215001326203,65.2850010430813,3.));
#1195=CARTESIAN_POINT('',(134.215001326203,65.2850010430813,3.));
#1196=CARTESIAN_POINT('',(134.215001326203,65.2850010430813,0.));
#1197=CARTESIAN_POINT('Origin',(134.215001326203,51.3150010430813,0.));
#1198=CARTESIAN_POINT('',(134.215001326203,51.3150010430813,0.));
#1199=CARTESIAN_POINT('',(134.215001326203,51.3150010430813,0.));
#1200=CARTESIAN_POINT('',(134.215001326203,51.3150010430813,3.));
#1201=CARTESIAN_POINT('',(134.215001326203,51.3150010430813,3.));
#1202=CARTESIAN_POINT('',(134.215001326203,51.3150010430813,0.));
#1203=CARTESIAN_POINT('Origin',(148.185001326203,51.3150010430813,0.));
#1204=CARTESIAN_POINT('',(134.215001326203,51.3150010430813,0.));
#1205=CARTESIAN_POINT('',(134.215001326203,51.3150010430813,3.));
#1206=CARTESIAN_POINT('Origin',(106.875001326203,51.3150010430813,0.));
#1207=CARTESIAN_POINT('',(106.875001326203,51.3150010430813,0.));
#1208=CARTESIAN_POINT('',(92.9050013262033,51.3150010430813,0.));
#1209=CARTESIAN_POINT('',(92.9050013262033,51.3150010430813,0.));
#1210=CARTESIAN_POINT('',(92.9050013262033,51.3150010430813,3.));
#1211=CARTESIAN_POINT('',(92.9050013262033,51.3150010430813,0.));
#1212=CARTESIAN_POINT('',(106.875001326203,51.3150010430813,3.));
#1213=CARTESIAN_POINT('',(92.9050013262033,51.3150010430813,3.));
#1214=CARTESIAN_POINT('',(106.875001326203,51.3150010430813,0.));
#1215=CARTESIAN_POINT('Origin',(106.875001326203,65.2850010430813,0.));
#1216=CARTESIAN_POINT('',(106.875001326203,65.2850010430813,0.));
#1217=CARTESIAN_POINT('',(106.875001326203,65.2850010430813,0.));
#1218=CARTESIAN_POINT('',(106.875001326203,65.2850010430813,3.));
#1219=CARTESIAN_POINT('',(106.875001326203,65.2850010430813,3.));
#1220=CARTESIAN_POINT('',(106.875001326203,65.2850010430813,0.));
#1221=CARTESIAN_POINT('Origin',(92.9050013262033,65.2850010430813,0.));
#1222=CARTESIAN_POINT('',(92.9050013262033,65.2850010430813,0.));
#1223=CARTESIAN_POINT('',(92.9050013262033,65.2850010430813,0.));
#1224=CARTESIAN_POINT('',(92.9050013262033,65.2850010430813,3.));
#1225=CARTESIAN_POINT('',(92.9050013262033,65.2850010430813,3.));
#1226=CARTESIAN_POINT('',(92.9050013262033,65.2850010430813,0.));
#1227=CARTESIAN_POINT('Origin',(92.9050013262033,51.3150010430813,0.));
#1228=CARTESIAN_POINT('',(92.9050013262033,65.2850010430813,0.));
#1229=CARTESIAN_POINT('',(92.9050013262033,65.2850010430813,3.));
#1230=CARTESIAN_POINT('Origin',(148.185001326203,46.2850010430813,0.));
#1231=CARTESIAN_POINT('',(148.185001326203,46.2850010430813,0.));
#1232=CARTESIAN_POINT('',(148.185001326203,32.3150010430813,0.));
#1233=CARTESIAN_POINT('',(148.185001326203,46.2850010430813,0.));
#1234=CARTESIAN_POINT('',(148.185001326203,32.3150010430813,3.));
#1235=CARTESIAN_POINT('',(148.185001326203,32.3150010430813,0.));
#1236=CARTESIAN_POINT('',(148.185001326203,46.2850010430813,3.));
#1237=CARTESIAN_POINT('',(148.185001326203,46.2850010430813,3.));
#1238=CARTESIAN_POINT('',(148.185001326203,46.2850010430813,0.));
#1239=CARTESIAN_POINT('Origin',(134.215001326203,46.2850010430813,0.));
#1240=CARTESIAN_POINT('',(134.215001326203,46.2850010430813,0.));
#1241=CARTESIAN_POINT('',(134.215001326203,46.2850010430813,0.));
#1242=CARTESIAN_POINT('',(134.215001326203,46.2850010430813,3.));
#1243=CARTESIAN_POINT('',(134.215001326203,46.2850010430813,3.));
#1244=CARTESIAN_POINT('',(134.215001326203,46.2850010430813,0.));
#1245=CARTESIAN_POINT('Origin',(134.215001326203,32.3150010430813,0.));
#1246=CARTESIAN_POINT('',(134.215001326203,32.3150010430813,0.));
#1247=CARTESIAN_POINT('',(134.215001326203,32.3150010430813,0.));
#1248=CARTESIAN_POINT('',(134.215001326203,32.3150010430813,3.));
#1249=CARTESIAN_POINT('',(134.215001326203,32.3150010430813,3.));
#1250=CARTESIAN_POINT('',(134.215001326203,32.3150010430813,0.));
#1251=CARTESIAN_POINT('Origin',(148.185001326203,32.3150010430813,0.));
#1252=CARTESIAN_POINT('',(134.215001326203,32.3150010430813,0.));
#1253=CARTESIAN_POINT('',(134.215001326203,32.3150010430813,3.));
#1254=CARTESIAN_POINT('Origin',(106.875001326203,32.3150010430813,0.));
#1255=CARTESIAN_POINT('',(106.875001326203,32.3150010430813,0.));
#1256=CARTESIAN_POINT('',(92.9050013262033,32.3150010430813,0.));
#1257=CARTESIAN_POINT('',(92.9050013262033,32.3150010430813,0.));
#1258=CARTESIAN_POINT('',(92.9050013262033,32.3150010430813,3.));
#1259=CARTESIAN_POINT('',(92.9050013262033,32.3150010430813,0.));
#1260=CARTESIAN_POINT('',(106.875001326203,32.3150010430813,3.));
#1261=CARTESIAN_POINT('',(92.9050013262033,32.3150010430813,3.));
#1262=CARTESIAN_POINT('',(106.875001326203,32.3150010430813,0.));
#1263=CARTESIAN_POINT('Origin',(106.875001326203,46.2850010430813,0.));
#1264=CARTESIAN_POINT('',(106.875001326203,46.2850010430813,0.));
#1265=CARTESIAN_POINT('',(106.875001326203,46.2850010430813,0.));
#1266=CARTESIAN_POINT('',(106.875001326203,46.2850010430813,3.));
#1267=CARTESIAN_POINT('',(106.875001326203,46.2850010430813,3.));
#1268=CARTESIAN_POINT('',(106.875001326203,46.2850010430813,0.));
#1269=CARTESIAN_POINT('Origin',(92.9050013262033,46.2850010430813,0.));
#1270=CARTESIAN_POINT('',(92.9050013262033,46.2850010430813,0.));
#1271=CARTESIAN_POINT('',(92.9050013262033,46.2850010430813,0.));
#1272=CARTESIAN_POINT('',(92.9050013262033,46.2850010430813,3.));
#1273=CARTESIAN_POINT('',(92.9050013262033,46.2850010430813,3.));
#1274=CARTESIAN_POINT('',(92.9050013262033,46.2850010430813,0.));
#1275=CARTESIAN_POINT('Origin',(92.9050013262033,32.3150010430813,0.));
#1276=CARTESIAN_POINT('',(92.9050013262033,46.2850010430813,0.));
#1277=CARTESIAN_POINT('',(92.9050013262033,46.2850010430813,3.));
#1278=CARTESIAN_POINT('Origin',(148.185001326203,27.2850010430813,0.));
#1279=CARTESIAN_POINT('',(148.185001326203,27.2850010430813,0.));
#1280=CARTESIAN_POINT('',(148.185001326203,13.3150010430813,0.));
#1281=CARTESIAN_POINT('',(148.185001326203,27.2850010430813,0.));
#1282=CARTESIAN_POINT('',(148.185001326203,13.3150010430813,3.));
#1283=CARTESIAN_POINT('',(148.185001326203,13.3150010430813,0.));
#1284=CARTESIAN_POINT('',(148.185001326203,27.2850010430813,3.));
#1285=CARTESIAN_POINT('',(148.185001326203,27.2850010430813,3.));
#1286=CARTESIAN_POINT('',(148.185001326203,27.2850010430813,0.));
#1287=CARTESIAN_POINT('Origin',(134.215001326203,27.2850010430813,0.));
#1288=CARTESIAN_POINT('',(134.215001326203,27.2850010430813,0.));
#1289=CARTESIAN_POINT('',(134.215001326203,27.2850010430813,0.));
#1290=CARTESIAN_POINT('',(134.215001326203,27.2850010430813,3.));
#1291=CARTESIAN_POINT('',(134.215001326203,27.2850010430813,3.));
#1292=CARTESIAN_POINT('',(134.215001326203,27.2850010430813,0.));
#1293=CARTESIAN_POINT('Origin',(134.215001326203,13.3150010430813,0.));
#1294=CARTESIAN_POINT('',(134.215001326203,13.3150010430813,0.));
#1295=CARTESIAN_POINT('',(134.215001326203,13.3150010430813,0.));
#1296=CARTESIAN_POINT('',(134.215001326203,13.3150010430813,3.));
#1297=CARTESIAN_POINT('',(134.215001326203,13.3150010430813,3.));
#1298=CARTESIAN_POINT('',(134.215001326203,13.3150010430813,0.));
#1299=CARTESIAN_POINT('Origin',(148.185001326203,13.3150010430813,0.));
#1300=CARTESIAN_POINT('',(134.215001326203,13.3150010430813,0.));
#1301=CARTESIAN_POINT('',(134.215001326203,13.3150010430813,3.));
#1302=CARTESIAN_POINT('Origin',(127.645001326203,27.2850010430813,0.));
#1303=CARTESIAN_POINT('',(127.645001326203,27.2850010430813,0.));
#1304=CARTESIAN_POINT('',(127.645001326203,13.3150010430813,0.));
#1305=CARTESIAN_POINT('',(127.645001326203,13.3150010430813,0.));
#1306=CARTESIAN_POINT('',(127.645001326203,13.3150010430813,3.));
#1307=CARTESIAN_POINT('',(127.645001326203,13.3150010430813,0.));
#1308=CARTESIAN_POINT('',(127.645001326203,27.2850010430813,3.));
#1309=CARTESIAN_POINT('',(127.645001326203,13.3150010430813,3.));
#1310=CARTESIAN_POINT('',(127.645001326203,27.2850010430813,0.));
#1311=CARTESIAN_POINT('Origin',(113.675001326203,27.2850010430813,0.));
#1312=CARTESIAN_POINT('',(113.675001326203,27.2850010430813,0.));
#1313=CARTESIAN_POINT('',(113.675001326203,27.2850010430813,0.));
#1314=CARTESIAN_POINT('',(113.675001326203,27.2850010430813,3.));
#1315=CARTESIAN_POINT('',(113.675001326203,27.2850010430813,3.));
#1316=CARTESIAN_POINT('',(113.675001326203,27.2850010430813,0.));
#1317=CARTESIAN_POINT('Origin',(113.675001326203,13.3150010430813,0.));
#1318=CARTESIAN_POINT('',(113.675001326203,13.3150010430813,0.));
#1319=CARTESIAN_POINT('',(113.675001326203,13.3150010430813,0.));
#1320=CARTESIAN_POINT('',(113.675001326203,13.3150010430813,3.));
#1321=CARTESIAN_POINT('',(113.675001326203,13.3150010430813,3.));
#1322=CARTESIAN_POINT('',(113.675001326203,13.3150010430813,0.));
#1323=CARTESIAN_POINT('Origin',(127.645001326203,13.3150010430813,0.));
#1324=CARTESIAN_POINT('',(113.675001326203,13.3150010430813,0.));
#1325=CARTESIAN_POINT('',(113.675001326203,13.3150010430813,3.));
#1326=CARTESIAN_POINT('Origin',(127.645001326203,46.5010010430813,0.));
#1327=CARTESIAN_POINT('',(127.645001326203,46.5010010430813,0.));
#1328=CARTESIAN_POINT('',(127.645001326203,32.5310010430813,0.));
#1329=CARTESIAN_POINT('',(127.645001326203,46.5010010430813,0.));
#1330=CARTESIAN_POINT('',(127.645001326203,32.5310010430813,3.));
#1331=CARTESIAN_POINT('',(127.645001326203,32.5310010430813,0.));
#1332=CARTESIAN_POINT('',(127.645001326203,46.5010010430813,3.));
#1333=CARTESIAN_POINT('',(127.645001326203,46.5010010430813,3.));
#1334=CARTESIAN_POINT('',(127.645001326203,46.5010010430813,0.));
#1335=CARTESIAN_POINT('Origin',(113.675001326203,46.5010010430813,0.));
#1336=CARTESIAN_POINT('',(113.675001326203,46.5010010430813,0.));
#1337=CARTESIAN_POINT('',(113.675001326203,46.5010010430813,0.));
#1338=CARTESIAN_POINT('',(113.675001326203,46.5010010430813,3.));
#1339=CARTESIAN_POINT('',(113.675001326203,46.5010010430813,3.));
#1340=CARTESIAN_POINT('',(113.675001326203,46.5010010430813,0.));
#1341=CARTESIAN_POINT('Origin',(113.675001326203,32.5310010430813,0.));
#1342=CARTESIAN_POINT('',(113.675001326203,32.5310010430813,0.));
#1343=CARTESIAN_POINT('',(113.675001326203,32.5310010430813,0.));
#1344=CARTESIAN_POINT('',(113.675001326203,32.5310010430813,3.));
#1345=CARTESIAN_POINT('',(113.675001326203,32.5310010430813,3.));
#1346=CARTESIAN_POINT('',(113.675001326203,32.5310010430813,0.));
#1347=CARTESIAN_POINT('Origin',(127.645001326203,32.5310010430813,0.));
#1348=CARTESIAN_POINT('',(113.675001326203,32.5310010430813,0.));
#1349=CARTESIAN_POINT('',(113.675001326203,32.5310010430813,3.));
#1350=CARTESIAN_POINT('Origin',(106.875001326203,13.3150010430813,0.));
#1351=CARTESIAN_POINT('',(106.875001326203,13.3150010430813,0.));
#1352=CARTESIAN_POINT('',(92.9050013262033,13.3150010430813,0.));
#1353=CARTESIAN_POINT('',(92.9050013262033,13.3150010430813,0.));
#1354=CARTESIAN_POINT('',(92.9050013262033,13.3150010430813,3.));
#1355=CARTESIAN_POINT('',(92.9050013262033,13.3150010430813,0.));
#1356=CARTESIAN_POINT('',(106.875001326203,13.3150010430813,3.));
#1357=CARTESIAN_POINT('',(92.9050013262033,13.3150010430813,3.));
#1358=CARTESIAN_POINT('',(106.875001326203,13.3150010430813,0.));
#1359=CARTESIAN_POINT('Origin',(106.875001326203,27.2850010430813,0.));
#1360=CARTESIAN_POINT('',(106.875001326203,27.2850010430813,0.));
#1361=CARTESIAN_POINT('',(106.875001326203,27.2850010430813,0.));
#1362=CARTESIAN_POINT('',(106.875001326203,27.2850010430813,3.));
#1363=CARTESIAN_POINT('',(106.875001326203,27.2850010430813,3.));
#1364=CARTESIAN_POINT('',(106.875001326203,27.2850010430813,0.));
#1365=CARTESIAN_POINT('Origin',(92.9050013262033,27.2850010430813,0.));
#1366=CARTESIAN_POINT('',(92.9050013262033,27.2850010430813,0.));
#1367=CARTESIAN_POINT('',(92.9050013262033,27.2850010430813,0.));
#1368=CARTESIAN_POINT('',(92.9050013262033,27.2850010430813,3.));
#1369=CARTESIAN_POINT('',(92.9050013262033,27.2850010430813,3.));
#1370=CARTESIAN_POINT('',(92.9050013262033,27.2850010430813,0.));
#1371=CARTESIAN_POINT('Origin',(92.9050013262033,13.3150010430813,0.));
#1372=CARTESIAN_POINT('',(92.9050013262033,27.2850010430813,0.));
#1373=CARTESIAN_POINT('',(92.9050013262033,27.2850010430813,3.));
#1374=CARTESIAN_POINT('Origin',(86.5000012516975,7.50000011920929,0.));
#1375=CARTESIAN_POINT('',(85.0500012516976,7.50000011920929,3.));
#1376=CARTESIAN_POINT('Origin',(86.5000012516975,7.50000011920929,3.));
#1377=CARTESIAN_POINT('',(85.0500012516976,7.50000011920929,0.));
#1378=CARTESIAN_POINT('',(85.0500012516976,7.50000011920929,0.));
#1379=CARTESIAN_POINT('Origin',(86.5000012516975,7.50000011920929,0.));
#1380=CARTESIAN_POINT('Origin',(153.900001326203,75.9000001490116,0.));
#1381=CARTESIAN_POINT('',(152.450001326203,75.9000001490116,3.));
#1382=CARTESIAN_POINT('Origin',(153.900001326203,75.9000001490116,3.));
#1383=CARTESIAN_POINT('',(152.450001326203,75.9000001490116,0.));
#1384=CARTESIAN_POINT('',(152.450001326203,75.9000001490116,0.));
#1385=CARTESIAN_POINT('Origin',(153.900001326203,75.9000001490116,0.));
#1386=CARTESIAN_POINT('Origin',(86.5000012889504,75.9000001490116,0.));
#1387=CARTESIAN_POINT('',(85.0500012889505,75.9000001490116,3.));
#1388=CARTESIAN_POINT('Origin',(86.5000012889504,75.9000001490116,3.));
#1389=CARTESIAN_POINT('',(85.0500012889505,75.9000001490116,0.));
#1390=CARTESIAN_POINT('',(85.0500012889505,75.9000001490116,0.));
#1391=CARTESIAN_POINT('Origin',(86.5000012889504,75.9000001490116,0.));
#1392=CARTESIAN_POINT('Origin',(153.900002294779,7.50000007450581,0.));
#1393=CARTESIAN_POINT('',(152.450002294779,7.50000007450581,3.));
#1394=CARTESIAN_POINT('Origin',(153.900002294779,7.50000007450581,3.));
#1395=CARTESIAN_POINT('',(152.450002294779,7.50000007450581,0.));
#1396=CARTESIAN_POINT('',(152.450002294779,7.50000007450581,0.));
#1397=CARTESIAN_POINT('Origin',(153.900002294779,7.50000007450581,0.));
#1398=CARTESIAN_POINT('Origin',(84.0000012516975,78.4000000745058,0.));
#1399=CARTESIAN_POINT('',(84.0000012516975,5.00000007450581,0.));
#1400=CARTESIAN_POINT('',(84.0000012516975,78.4000000745058,0.));
#1401=CARTESIAN_POINT('',(84.0000012516975,5.00000007450581,0.));
#1402=CARTESIAN_POINT('',(84.0000012516975,5.00000007450581,3.));
#1403=CARTESIAN_POINT('',(84.0000012516975,5.00000007450581,0.));
#1404=CARTESIAN_POINT('',(84.0000012516975,78.4000000745058,3.));
#1405=CARTESIAN_POINT('',(84.0000012516975,5.00000007450581,3.));
#1406=CARTESIAN_POINT('',(84.0000012516975,78.4000000745058,0.));
#1407=CARTESIAN_POINT('Origin',(156.400001251698,78.4000000745058,0.));
#1408=CARTESIAN_POINT('',(156.400001251698,78.4000000745058,0.));
#1409=CARTESIAN_POINT('',(84.0000012516975,78.4000000745058,0.));
#1410=CARTESIAN_POINT('',(156.400001251698,78.4000000745058,3.));
#1411=CARTESIAN_POINT('',(84.0000012516975,78.4000000745058,3.));
#1412=CARTESIAN_POINT('',(156.400001251698,78.4000000745058,0.));
#1413=CARTESIAN_POINT('Origin',(156.400001251698,5.00000007450581,0.));
#1414=CARTESIAN_POINT('',(156.400001251698,5.00000007450581,0.));
#1415=CARTESIAN_POINT('',(156.400001251698,5.00000007450581,0.));
#1416=CARTESIAN_POINT('',(156.400001251698,5.00000007450581,3.));
#1417=CARTESIAN_POINT('',(156.400001251698,5.00000007450581,3.));
#1418=CARTESIAN_POINT('',(156.400001251698,5.00000007450581,0.));
#1419=CARTESIAN_POINT('Origin',(84.0000012516975,5.00000007450581,0.));
#1420=CARTESIAN_POINT('',(84.0000012516975,5.00000007450581,0.));
#1421=CARTESIAN_POINT('',(84.0000012516975,5.00000007450581,3.));
#1422=CARTESIAN_POINT('Origin',(120.200001251698,41.7000000745058,3.));
#1423=CARTESIAN_POINT('Origin',(120.200001251698,41.7000000745058,0.));
#1424=UNCERTAINTY_MEASURE_WITH_UNIT(LENGTH_MEASURE(0.01),#1428,
'DISTANCE_ACCURACY_VALUE',
'Maximum model space distance between geometric entities at asserted c
onnectivities');
#1425=UNCERTAINTY_MEASURE_WITH_UNIT(LENGTH_MEASURE(0.01),#1428,
'DISTANCE_ACCURACY_VALUE',
'Maximum model space distance between geometric entities at asserted c
onnectivities');
#1426=(
GEOMETRIC_REPRESENTATION_CONTEXT(3)
GLOBAL_UNCERTAINTY_ASSIGNED_CONTEXT((#1424))
GLOBAL_UNIT_ASSIGNED_CONTEXT((#1428,#1430,#1431))
REPRESENTATION_CONTEXT('','3D')
);
#1427=(
GEOMETRIC_REPRESENTATION_CONTEXT(3)
GLOBAL_UNCERTAINTY_ASSIGNED_CONTEXT((#1425))
GLOBAL_UNIT_ASSIGNED_CONTEXT((#1428,#1430,#1431))
REPRESENTATION_CONTEXT('','3D')
);
#1428=(
LENGTH_UNIT()
NAMED_UNIT(*)
SI_UNIT(.MILLI.,.METRE.)
);
#1429=(
LENGTH_UNIT()
NAMED_UNIT(*)
SI_UNIT($,.METRE.)
);
#1430=(
NAMED_UNIT(*)
PLANE_ANGLE_UNIT()
SI_UNIT($,.RADIAN.)
);
#1431=(
NAMED_UNIT(*)
SI_UNIT($,.STERADIAN.)
SOLID_ANGLE_UNIT()
);
#1432=SHAPE_DEFINITION_REPRESENTATION(#1433,#1434);
#1433=PRODUCT_DEFINITION_SHAPE('',$,#1436);
#1434=SHAPE_REPRESENTATION('',(#916),#1426);
#1435=PRODUCT_DEFINITION_CONTEXT('part definition',#1440,'design');
#1436=PRODUCT_DEFINITION('2026-09-05-21-24-12-103','macropad top',#1437,
#1435);
#1437=PRODUCT_DEFINITION_FORMATION('',$,#1442);
#1438=PRODUCT_RELATED_PRODUCT_CATEGORY('macropad top','macropad top',(#1442));
#1439=APPLICATION_PROTOCOL_DEFINITION('international standard',
'automotive_design',2009,#1440);
#1440=APPLICATION_CONTEXT(
'Core Data for Automotive Mechanical Design Process');
#1441=PRODUCT_CONTEXT('part definition',#1440,'mechanical');
#1442=PRODUCT('2026-09-05-21-24-12-103','macropad top',$,(#1441));
#1443=PRESENTATION_STYLE_ASSIGNMENT((#1444));
#1444=SURFACE_STYLE_USAGE(.BOTH.,#1445);
#1445=SURFACE_SIDE_STYLE('',(#1446));
#1446=SURFACE_STYLE_FILL_AREA(#1447);
#1447=FILL_AREA_STYLE('Steel - Satin',(#1448));
#1448=FILL_AREA_STYLE_COLOUR('Steel - Satin',#1449);
#1449=COLOUR_RGB('Steel - Satin',0.627450980392157,0.627450980392157,0.627450980392157);
ENDSEC;
END-ISO-10303-21;
