ISO-10303-21;
HEADER;
/* Generated by software containing ST-Developer
 * from STEP Tools, Inc. (www.steptools.com) 
 */

FILE_DESCRIPTION(
/* description */ (''),
/* implementation_level */ '2;1');

FILE_NAME(
/* name */ 'Macropad bottom.step',
/* time_stamp */ '2026-09-10T21:52:45+10:00',
/* author */ (''),
/* organization */ (''),
/* preprocessor_version */ 'ST-DEVELOPER v20.2',
/* originating_system */ 'Autodesk Translation Framework v15.15.0.0',
/* authorisation */ '');

FILE_SCHEMA (('AUTOMOTIVE_DESIGN { 1 0 10303 214 3 1 1 }'));
ENDSEC;

DATA;
#10=MECHANICAL_DESIGN_GEOMETRIC_PRESENTATION_REPRESENTATION('',(#13),#735);
#11=SHAPE_REPRESENTATION_RELATIONSHIP('SRR','None',#742,#12);
#12=ADVANCED_BREP_SHAPE_REPRESENTATION('',(#14),#734);
#13=STYLED_ITEM('',(#751),#14);
#14=MANIFOLD_SOLID_BREP('Body1',#451);
#15=FACE_BOUND('',#78,.T.);
#16=FACE_BOUND('',#79,.T.);
#17=FACE_BOUND('',#80,.T.);
#18=FACE_BOUND('',#81,.T.);
#19=FACE_BOUND('',#83,.T.);
#20=FACE_BOUND('',#84,.T.);
#21=FACE_BOUND('',#85,.T.);
#22=FACE_BOUND('',#86,.T.);
#23=CIRCLE('',#478,1.45);
#24=CIRCLE('',#479,1.45);
#25=CIRCLE('',#481,1.45);
#26=CIRCLE('',#482,1.45);
#27=CIRCLE('',#484,1.45);
#28=CIRCLE('',#485,1.45);
#29=CIRCLE('',#487,1.45);
#30=CIRCLE('',#488,1.45);
#31=CYLINDRICAL_SURFACE('',#477,1.45);
#32=CYLINDRICAL_SURFACE('',#480,1.45);
#33=CYLINDRICAL_SURFACE('',#483,1.45);
#34=CYLINDRICAL_SURFACE('',#486,1.45);
#35=FACE_OUTER_BOUND('',#57,.T.);
#36=FACE_OUTER_BOUND('',#58,.T.);
#37=FACE_OUTER_BOUND('',#59,.T.);
#38=FACE_OUTER_BOUND('',#60,.T.);
#39=FACE_OUTER_BOUND('',#61,.T.);
#40=FACE_OUTER_BOUND('',#62,.T.);
#41=FACE_OUTER_BOUND('',#63,.T.);
#42=FACE_OUTER_BOUND('',#64,.T.);
#43=FACE_OUTER_BOUND('',#65,.T.);
#44=FACE_OUTER_BOUND('',#66,.T.);
#45=FACE_OUTER_BOUND('',#67,.T.);
#46=FACE_OUTER_BOUND('',#68,.T.);
#47=FACE_OUTER_BOUND('',#69,.T.);
#48=FACE_OUTER_BOUND('',#70,.T.);
#49=FACE_OUTER_BOUND('',#71,.T.);
#50=FACE_OUTER_BOUND('',#72,.T.);
#51=FACE_OUTER_BOUND('',#73,.T.);
#52=FACE_OUTER_BOUND('',#74,.T.);
#53=FACE_OUTER_BOUND('',#75,.T.);
#54=FACE_OUTER_BOUND('',#76,.T.);
#55=FACE_OUTER_BOUND('',#77,.T.);
#56=FACE_OUTER_BOUND('',#82,.T.);
#57=EDGE_LOOP('',(#291,#292,#293,#294));
#58=EDGE_LOOP('',(#295,#296,#297,#298));
#59=EDGE_LOOP('',(#299,#300,#301,#302));
#60=EDGE_LOOP('',(#303,#304,#305,#306));
#61=EDGE_LOOP('',(#307,#308,#309,#310));
#62=EDGE_LOOP('',(#311,#312,#313,#314));
#63=EDGE_LOOP('',(#315,#316,#317,#318));
#64=EDGE_LOOP('',(#319,#320,#321,#322,#323,#324,#325,#326,#327,#328,#329,
#330));
#65=EDGE_LOOP('',(#331,#332,#333,#334));
#66=EDGE_LOOP('',(#335,#336,#337,#338));
#67=EDGE_LOOP('',(#339,#340,#341,#342));
#68=EDGE_LOOP('',(#343,#344,#345,#346));
#69=EDGE_LOOP('',(#347,#348,#349,#350));
#70=EDGE_LOOP('',(#351,#352,#353,#354));
#71=EDGE_LOOP('',(#355,#356,#357,#358));
#72=EDGE_LOOP('',(#359,#360,#361,#362));
#73=EDGE_LOOP('',(#363,#364,#365,#366));
#74=EDGE_LOOP('',(#367,#368,#369,#370,#371,#372,#373,#374,#375,#376,#377,
#378));
#75=EDGE_LOOP('',(#379,#380,#381,#382));
#76=EDGE_LOOP('',(#383,#384,#385,#386));
#77=EDGE_LOOP('',(#387,#388,#389,#390,#391,#392,#393,#394,#395,#396,#397,
#398));
#78=EDGE_LOOP('',(#399));
#79=EDGE_LOOP('',(#400));
#80=EDGE_LOOP('',(#401));
#81=EDGE_LOOP('',(#402));
#82=EDGE_LOOP('',(#403,#404,#405,#406));
#83=EDGE_LOOP('',(#407));
#84=EDGE_LOOP('',(#408));
#85=EDGE_LOOP('',(#409));
#86=EDGE_LOOP('',(#410));
#87=LINE('',#613,#139);
#88=LINE('',#615,#140);
#89=LINE('',#617,#141);
#90=LINE('',#618,#142);
#91=LINE('',#622,#143);
#92=LINE('',#624,#144);
#93=LINE('',#626,#145);
#94=LINE('',#627,#146);
#95=LINE('',#630,#147);
#96=LINE('',#632,#148);
#97=LINE('',#633,#149);
#98=LINE('',#637,#150);
#99=LINE('',#639,#151);
#100=LINE('',#641,#152);
#101=LINE('',#642,#153);
#102=LINE('',#645,#154);
#103=LINE('',#647,#155);
#104=LINE('',#648,#156);
#105=LINE('',#651,#157);
#106=LINE('',#653,#158);
#107=LINE('',#654,#159);
#108=LINE('',#656,#160);
#109=LINE('',#658,#161);
#110=LINE('',#660,#162);
#111=LINE('',#662,#163);
#112=LINE('',#664,#164);
#113=LINE('',#665,#165);
#114=LINE('',#666,#166);
#115=LINE('',#669,#167);
#116=LINE('',#670,#168);
#117=LINE('',#673,#169);
#118=LINE('',#674,#170);
#119=LINE('',#677,#171);
#120=LINE('',#678,#172);
#121=LINE('',#680,#173);
#122=LINE('',#685,#174);
#123=LINE('',#691,#175);
#124=LINE('',#697,#176);
#125=LINE('',#703,#177);
#126=LINE('',#708,#178);
#127=LINE('',#710,#179);
#128=LINE('',#712,#180);
#129=LINE('',#713,#181);
#130=LINE('',#716,#182);
#131=LINE('',#718,#183);
#132=LINE('',#719,#184);
#133=LINE('',#720,#185);
#134=LINE('',#723,#186);
#135=LINE('',#725,#187);
#136=LINE('',#726,#188);
#137=LINE('',#728,#189);
#138=LINE('',#729,#190);
#139=VECTOR('',#499,10.);
#140=VECTOR('',#500,10.);
#141=VECTOR('',#501,10.);
#142=VECTOR('',#502,10.);
#143=VECTOR('',#505,10.);
#144=VECTOR('',#506,10.);
#145=VECTOR('',#507,10.);
#146=VECTOR('',#508,10.);
#147=VECTOR('',#511,10.);
#148=VECTOR('',#512,10.);
#149=VECTOR('',#513,10.);
#150=VECTOR('',#516,10.);
#151=VECTOR('',#517,10.);
#152=VECTOR('',#518,10.);
#153=VECTOR('',#519,10.);
#154=VECTOR('',#522,10.);
#155=VECTOR('',#523,10.);
#156=VECTOR('',#524,10.);
#157=VECTOR('',#527,10.);
#158=VECTOR('',#528,10.);
#159=VECTOR('',#529,10.);
#160=VECTOR('',#532,10.);
#161=VECTOR('',#535,10.);
#162=VECTOR('',#536,10.);
#163=VECTOR('',#537,10.);
#164=VECTOR('',#538,10.);
#165=VECTOR('',#539,10.);
#166=VECTOR('',#540,10.);
#167=VECTOR('',#543,10.);
#168=VECTOR('',#544,10.);
#169=VECTOR('',#547,10.);
#170=VECTOR('',#548,10.);
#171=VECTOR('',#551,10.);
#172=VECTOR('',#552,10.);
#173=VECTOR('',#555,10.);
#174=VECTOR('',#560,1.45);
#175=VECTOR('',#567,1.45);
#176=VECTOR('',#574,1.45);
#177=VECTOR('',#581,1.45);
#178=VECTOR('',#586,10.);
#179=VECTOR('',#587,10.);
#180=VECTOR('',#588,10.);
#181=VECTOR('',#589,10.);
#182=VECTOR('',#592,10.);
#183=VECTOR('',#593,10.);
#184=VECTOR('',#594,10.);
#185=VECTOR('',#595,10.);
#186=VECTOR('',#598,10.);
#187=VECTOR('',#599,10.);
#188=VECTOR('',#600,10.);
#189=VECTOR('',#603,10.);
#190=VECTOR('',#604,10.);
#191=VERTEX_POINT('',#611);
#192=VERTEX_POINT('',#612);
#193=VERTEX_POINT('',#614);
#194=VERTEX_POINT('',#616);
#195=VERTEX_POINT('',#620);
#196=VERTEX_POINT('',#621);
#197=VERTEX_POINT('',#623);
#198=VERTEX_POINT('',#625);
#199=VERTEX_POINT('',#629);
#200=VERTEX_POINT('',#631);
#201=VERTEX_POINT('',#635);
#202=VERTEX_POINT('',#636);
#203=VERTEX_POINT('',#638);
#204=VERTEX_POINT('',#640);
#205=VERTEX_POINT('',#644);
#206=VERTEX_POINT('',#646);
#207=VERTEX_POINT('',#650);
#208=VERTEX_POINT('',#652);
#209=VERTEX_POINT('',#659);
#210=VERTEX_POINT('',#661);
#211=VERTEX_POINT('',#663);
#212=VERTEX_POINT('',#668);
#213=VERTEX_POINT('',#672);
#214=VERTEX_POINT('',#676);
#215=VERTEX_POINT('',#682);
#216=VERTEX_POINT('',#684);
#217=VERTEX_POINT('',#688);
#218=VERTEX_POINT('',#690);
#219=VERTEX_POINT('',#694);
#220=VERTEX_POINT('',#696);
#221=VERTEX_POINT('',#700);
#222=VERTEX_POINT('',#702);
#223=VERTEX_POINT('',#706);
#224=VERTEX_POINT('',#707);
#225=VERTEX_POINT('',#709);
#226=VERTEX_POINT('',#711);
#227=VERTEX_POINT('',#715);
#228=VERTEX_POINT('',#717);
#229=VERTEX_POINT('',#722);
#230=VERTEX_POINT('',#724);
#231=EDGE_CURVE('',#191,#192,#87,.T.);
#232=EDGE_CURVE('',#193,#191,#88,.T.);
#233=EDGE_CURVE('',#194,#193,#89,.T.);
#234=EDGE_CURVE('',#192,#194,#90,.T.);
#235=EDGE_CURVE('',#195,#196,#91,.T.);
#236=EDGE_CURVE('',#195,#197,#92,.T.);
#237=EDGE_CURVE('',#198,#197,#93,.T.);
#238=EDGE_CURVE('',#196,#198,#94,.T.);
#239=EDGE_CURVE('',#199,#196,#95,.T.);
#240=EDGE_CURVE('',#200,#199,#96,.T.);
#241=EDGE_CURVE('',#200,#195,#97,.T.);
#242=EDGE_CURVE('',#201,#202,#98,.T.);
#243=EDGE_CURVE('',#201,#203,#99,.T.);
#244=EDGE_CURVE('',#203,#204,#100,.T.);
#245=EDGE_CURVE('',#202,#204,#101,.T.);
#246=EDGE_CURVE('',#205,#201,#102,.T.);
#247=EDGE_CURVE('',#205,#206,#103,.T.);
#248=EDGE_CURVE('',#206,#203,#104,.T.);
#249=EDGE_CURVE('',#207,#205,#105,.T.);
#250=EDGE_CURVE('',#208,#207,#106,.T.);
#251=EDGE_CURVE('',#208,#206,#107,.T.);
#252=EDGE_CURVE('',#204,#208,#108,.T.);
#253=EDGE_CURVE('',#197,#202,#109,.T.);
#254=EDGE_CURVE('',#209,#200,#110,.T.);
#255=EDGE_CURVE('',#210,#209,#111,.T.);
#256=EDGE_CURVE('',#211,#210,#112,.T.);
#257=EDGE_CURVE('',#192,#211,#113,.T.);
#258=EDGE_CURVE('',#207,#194,#114,.T.);
#259=EDGE_CURVE('',#211,#212,#115,.T.);
#260=EDGE_CURVE('',#191,#212,#116,.T.);
#261=EDGE_CURVE('',#210,#213,#117,.T.);
#262=EDGE_CURVE('',#212,#213,#118,.T.);
#263=EDGE_CURVE('',#214,#199,#119,.T.);
#264=EDGE_CURVE('',#209,#214,#120,.T.);
#265=EDGE_CURVE('',#213,#214,#121,.T.);
#266=EDGE_CURVE('',#215,#215,#23,.T.);
#267=EDGE_CURVE('',#215,#216,#122,.T.);
#268=EDGE_CURVE('',#216,#216,#24,.T.);
#269=EDGE_CURVE('',#217,#217,#25,.T.);
#270=EDGE_CURVE('',#217,#218,#123,.T.);
#271=EDGE_CURVE('',#218,#218,#26,.T.);
#272=EDGE_CURVE('',#219,#219,#27,.T.);
#273=EDGE_CURVE('',#219,#220,#124,.T.);
#274=EDGE_CURVE('',#220,#220,#28,.T.);
#275=EDGE_CURVE('',#221,#221,#29,.T.);
#276=EDGE_CURVE('',#221,#222,#125,.T.);
#277=EDGE_CURVE('',#222,#222,#30,.T.);
#278=EDGE_CURVE('',#223,#224,#126,.T.);
#279=EDGE_CURVE('',#223,#225,#127,.T.);
#280=EDGE_CURVE('',#226,#225,#128,.T.);
#281=EDGE_CURVE('',#224,#226,#129,.T.);
#282=EDGE_CURVE('',#227,#193,#130,.T.);
#283=EDGE_CURVE('',#228,#227,#131,.T.);
#284=EDGE_CURVE('',#224,#228,#132,.T.);
#285=EDGE_CURVE('',#198,#226,#133,.T.);
#286=EDGE_CURVE('',#229,#228,#134,.T.);
#287=EDGE_CURVE('',#230,#227,#135,.T.);
#288=EDGE_CURVE('',#229,#230,#136,.T.);
#289=EDGE_CURVE('',#223,#229,#137,.T.);
#290=EDGE_CURVE('',#225,#230,#138,.T.);
#291=ORIENTED_EDGE('',*,*,#231,.F.);
#292=ORIENTED_EDGE('',*,*,#232,.F.);
#293=ORIENTED_EDGE('',*,*,#233,.F.);
#294=ORIENTED_EDGE('',*,*,#234,.F.);
#295=ORIENTED_EDGE('',*,*,#235,.F.);
#296=ORIENTED_EDGE('',*,*,#236,.T.);
#297=ORIENTED_EDGE('',*,*,#237,.F.);
#298=ORIENTED_EDGE('',*,*,#238,.F.);
#299=ORIENTED_EDGE('',*,*,#235,.T.);
#300=ORIENTED_EDGE('',*,*,#239,.F.);
#301=ORIENTED_EDGE('',*,*,#240,.F.);
#302=ORIENTED_EDGE('',*,*,#241,.T.);
#303=ORIENTED_EDGE('',*,*,#242,.F.);
#304=ORIENTED_EDGE('',*,*,#243,.T.);
#305=ORIENTED_EDGE('',*,*,#244,.T.);
#306=ORIENTED_EDGE('',*,*,#245,.F.);
#307=ORIENTED_EDGE('',*,*,#246,.F.);
#308=ORIENTED_EDGE('',*,*,#247,.T.);
#309=ORIENTED_EDGE('',*,*,#248,.T.);
#310=ORIENTED_EDGE('',*,*,#243,.F.);
#311=ORIENTED_EDGE('',*,*,#249,.F.);
#312=ORIENTED_EDGE('',*,*,#250,.F.);
#313=ORIENTED_EDGE('',*,*,#251,.T.);
#314=ORIENTED_EDGE('',*,*,#247,.F.);
#315=ORIENTED_EDGE('',*,*,#251,.F.);
#316=ORIENTED_EDGE('',*,*,#252,.F.);
#317=ORIENTED_EDGE('',*,*,#244,.F.);
#318=ORIENTED_EDGE('',*,*,#248,.F.);
#319=ORIENTED_EDGE('',*,*,#249,.T.);
#320=ORIENTED_EDGE('',*,*,#246,.T.);
#321=ORIENTED_EDGE('',*,*,#242,.T.);
#322=ORIENTED_EDGE('',*,*,#253,.F.);
#323=ORIENTED_EDGE('',*,*,#236,.F.);
#324=ORIENTED_EDGE('',*,*,#241,.F.);
#325=ORIENTED_EDGE('',*,*,#254,.F.);
#326=ORIENTED_EDGE('',*,*,#255,.F.);
#327=ORIENTED_EDGE('',*,*,#256,.F.);
#328=ORIENTED_EDGE('',*,*,#257,.F.);
#329=ORIENTED_EDGE('',*,*,#234,.T.);
#330=ORIENTED_EDGE('',*,*,#258,.F.);
#331=ORIENTED_EDGE('',*,*,#231,.T.);
#332=ORIENTED_EDGE('',*,*,#257,.T.);
#333=ORIENTED_EDGE('',*,*,#259,.T.);
#334=ORIENTED_EDGE('',*,*,#260,.F.);
#335=ORIENTED_EDGE('',*,*,#256,.T.);
#336=ORIENTED_EDGE('',*,*,#261,.T.);
#337=ORIENTED_EDGE('',*,*,#262,.F.);
#338=ORIENTED_EDGE('',*,*,#259,.F.);
#339=ORIENTED_EDGE('',*,*,#254,.T.);
#340=ORIENTED_EDGE('',*,*,#240,.T.);
#341=ORIENTED_EDGE('',*,*,#263,.F.);
#342=ORIENTED_EDGE('',*,*,#264,.F.);
#343=ORIENTED_EDGE('',*,*,#255,.T.);
#344=ORIENTED_EDGE('',*,*,#264,.T.);
#345=ORIENTED_EDGE('',*,*,#265,.F.);
#346=ORIENTED_EDGE('',*,*,#261,.F.);
#347=ORIENTED_EDGE('',*,*,#266,.F.);
#348=ORIENTED_EDGE('',*,*,#267,.T.);
#349=ORIENTED_EDGE('',*,*,#268,.T.);
#350=ORIENTED_EDGE('',*,*,#267,.F.);
#351=ORIENTED_EDGE('',*,*,#269,.F.);
#352=ORIENTED_EDGE('',*,*,#270,.T.);
#353=ORIENTED_EDGE('',*,*,#271,.T.);
#354=ORIENTED_EDGE('',*,*,#270,.F.);
#355=ORIENTED_EDGE('',*,*,#272,.F.);
#356=ORIENTED_EDGE('',*,*,#273,.T.);
#357=ORIENTED_EDGE('',*,*,#274,.T.);
#358=ORIENTED_EDGE('',*,*,#273,.F.);
#359=ORIENTED_EDGE('',*,*,#275,.F.);
#360=ORIENTED_EDGE('',*,*,#276,.T.);
#361=ORIENTED_EDGE('',*,*,#277,.T.);
#362=ORIENTED_EDGE('',*,*,#276,.F.);
#363=ORIENTED_EDGE('',*,*,#278,.F.);
#364=ORIENTED_EDGE('',*,*,#279,.T.);
#365=ORIENTED_EDGE('',*,*,#280,.F.);
#366=ORIENTED_EDGE('',*,*,#281,.F.);
#367=ORIENTED_EDGE('',*,*,#233,.T.);
#368=ORIENTED_EDGE('',*,*,#282,.F.);
#369=ORIENTED_EDGE('',*,*,#283,.F.);
#370=ORIENTED_EDGE('',*,*,#284,.F.);
#371=ORIENTED_EDGE('',*,*,#281,.T.);
#372=ORIENTED_EDGE('',*,*,#285,.F.);
#373=ORIENTED_EDGE('',*,*,#237,.T.);
#374=ORIENTED_EDGE('',*,*,#253,.T.);
#375=ORIENTED_EDGE('',*,*,#245,.T.);
#376=ORIENTED_EDGE('',*,*,#252,.T.);
#377=ORIENTED_EDGE('',*,*,#250,.T.);
#378=ORIENTED_EDGE('',*,*,#258,.T.);
#379=ORIENTED_EDGE('',*,*,#286,.T.);
#380=ORIENTED_EDGE('',*,*,#283,.T.);
#381=ORIENTED_EDGE('',*,*,#287,.F.);
#382=ORIENTED_EDGE('',*,*,#288,.F.);
#383=ORIENTED_EDGE('',*,*,#289,.T.);
#384=ORIENTED_EDGE('',*,*,#288,.T.);
#385=ORIENTED_EDGE('',*,*,#290,.F.);
#386=ORIENTED_EDGE('',*,*,#279,.F.);
#387=ORIENTED_EDGE('',*,*,#232,.T.);
#388=ORIENTED_EDGE('',*,*,#260,.T.);
#389=ORIENTED_EDGE('',*,*,#262,.T.);
#390=ORIENTED_EDGE('',*,*,#265,.T.);
#391=ORIENTED_EDGE('',*,*,#263,.T.);
#392=ORIENTED_EDGE('',*,*,#239,.T.);
#393=ORIENTED_EDGE('',*,*,#238,.T.);
#394=ORIENTED_EDGE('',*,*,#285,.T.);
#395=ORIENTED_EDGE('',*,*,#280,.T.);
#396=ORIENTED_EDGE('',*,*,#290,.T.);
#397=ORIENTED_EDGE('',*,*,#287,.T.);
#398=ORIENTED_EDGE('',*,*,#282,.T.);
#399=ORIENTED_EDGE('',*,*,#275,.T.);
#400=ORIENTED_EDGE('',*,*,#272,.T.);
#401=ORIENTED_EDGE('',*,*,#269,.T.);
#402=ORIENTED_EDGE('',*,*,#266,.T.);
#403=ORIENTED_EDGE('',*,*,#289,.F.);
#404=ORIENTED_EDGE('',*,*,#278,.T.);
#405=ORIENTED_EDGE('',*,*,#284,.T.);
#406=ORIENTED_EDGE('',*,*,#286,.F.);
#407=ORIENTED_EDGE('',*,*,#277,.F.);
#408=ORIENTED_EDGE('',*,*,#274,.F.);
#409=ORIENTED_EDGE('',*,*,#271,.F.);
#410=ORIENTED_EDGE('',*,*,#268,.F.);
#411=PLANE('',#465);
#412=PLANE('',#466);
#413=PLANE('',#467);
#414=PLANE('',#468);
#415=PLANE('',#469);
#416=PLANE('',#470);
#417=PLANE('',#471);
#418=PLANE('',#472);
#419=PLANE('',#473);
#420=PLANE('',#474);
#421=PLANE('',#475);
#422=PLANE('',#476);
#423=PLANE('',#489);
#424=PLANE('',#490);
#425=PLANE('',#491);
#426=PLANE('',#492);
#427=PLANE('',#493);
#428=PLANE('',#494);
#429=ADVANCED_FACE('',(#35),#411,.F.);
#430=ADVANCED_FACE('',(#36),#412,.F.);
#431=ADVANCED_FACE('',(#37),#413,.T.);
#432=ADVANCED_FACE('',(#38),#414,.F.);
#433=ADVANCED_FACE('',(#39),#415,.F.);
#434=ADVANCED_FACE('',(#40),#416,.F.);
#435=ADVANCED_FACE('',(#41),#417,.F.);
#436=ADVANCED_FACE('',(#42),#418,.T.);
#437=ADVANCED_FACE('',(#43),#419,.T.);
#438=ADVANCED_FACE('',(#44),#420,.T.);
#439=ADVANCED_FACE('',(#45),#421,.T.);
#440=ADVANCED_FACE('',(#46),#422,.T.);
#441=ADVANCED_FACE('',(#47),#31,.F.);
#442=ADVANCED_FACE('',(#48),#32,.F.);
#443=ADVANCED_FACE('',(#49),#33,.F.);
#444=ADVANCED_FACE('',(#50),#34,.F.);
#445=ADVANCED_FACE('',(#51),#423,.T.);
#446=ADVANCED_FACE('',(#52),#424,.T.);
#447=ADVANCED_FACE('',(#53),#425,.T.);
#448=ADVANCED_FACE('',(#54),#426,.T.);
#449=ADVANCED_FACE('',(#55,#15,#16,#17,#18),#427,.T.);
#450=ADVANCED_FACE('',(#56,#19,#20,#21,#22),#428,.F.);
#451=CLOSED_SHELL('',(#429,#430,#431,#432,#433,#434,#435,#436,#437,#438,
#439,#440,#441,#442,#443,#444,#445,#446,#447,#448,#449,#450));
#452=DERIVED_UNIT_ELEMENT(#454,1.);
#453=DERIVED_UNIT_ELEMENT(#737,-3.);
#454=(
MASS_UNIT()
NAMED_UNIT(*)
SI_UNIT(.KILO.,.GRAM.)
);
#455=DERIVED_UNIT((#452,#453));
#456=MEASURE_REPRESENTATION_ITEM('density measure',
POSITIVE_RATIO_MEASURE(7850.),#455);
#457=PROPERTY_DEFINITION_REPRESENTATION(#462,#459);
#458=PROPERTY_DEFINITION_REPRESENTATION(#463,#460);
#459=REPRESENTATION('material name',(#461),#734);
#460=REPRESENTATION('density',(#456),#734);
#461=DESCRIPTIVE_REPRESENTATION_ITEM('Steel','Steel');
#462=PROPERTY_DEFINITION('material property','material name',#744);
#463=PROPERTY_DEFINITION('material property','density of part',#744);
#464=AXIS2_PLACEMENT_3D('',#609,#495,#496);
#465=AXIS2_PLACEMENT_3D('',#610,#497,#498);
#466=AXIS2_PLACEMENT_3D('',#619,#503,#504);
#467=AXIS2_PLACEMENT_3D('',#628,#509,#510);
#468=AXIS2_PLACEMENT_3D('',#634,#514,#515);
#469=AXIS2_PLACEMENT_3D('',#643,#520,#521);
#470=AXIS2_PLACEMENT_3D('',#649,#525,#526);
#471=AXIS2_PLACEMENT_3D('',#655,#530,#531);
#472=AXIS2_PLACEMENT_3D('',#657,#533,#534);
#473=AXIS2_PLACEMENT_3D('',#667,#541,#542);
#474=AXIS2_PLACEMENT_3D('',#671,#545,#546);
#475=AXIS2_PLACEMENT_3D('',#675,#549,#550);
#476=AXIS2_PLACEMENT_3D('',#679,#553,#554);
#477=AXIS2_PLACEMENT_3D('',#681,#556,#557);
#478=AXIS2_PLACEMENT_3D('',#683,#558,#559);
#479=AXIS2_PLACEMENT_3D('',#686,#561,#562);
#480=AXIS2_PLACEMENT_3D('',#687,#563,#564);
#481=AXIS2_PLACEMENT_3D('',#689,#565,#566);
#482=AXIS2_PLACEMENT_3D('',#692,#568,#569);
#483=AXIS2_PLACEMENT_3D('',#693,#570,#571);
#484=AXIS2_PLACEMENT_3D('',#695,#572,#573);
#485=AXIS2_PLACEMENT_3D('',#698,#575,#576);
#486=AXIS2_PLACEMENT_3D('',#699,#577,#578);
#487=AXIS2_PLACEMENT_3D('',#701,#579,#580);
#488=AXIS2_PLACEMENT_3D('',#704,#582,#583);
#489=AXIS2_PLACEMENT_3D('',#705,#584,#585);
#490=AXIS2_PLACEMENT_3D('',#714,#590,#591);
#491=AXIS2_PLACEMENT_3D('',#721,#596,#597);
#492=AXIS2_PLACEMENT_3D('',#727,#601,#602);
#493=AXIS2_PLACEMENT_3D('',#730,#605,#606);
#494=AXIS2_PLACEMENT_3D('',#731,#607,#608);
#495=DIRECTION('axis',(0.,0.,1.));
#496=DIRECTION('refdir',(1.,0.,0.));
#497=DIRECTION('center_axis',(1.,0.,0.));
#498=DIRECTION('ref_axis',(0.,0.,-1.));
#499=DIRECTION('',(0.,0.,-1.));
#500=DIRECTION('',(0.,-1.,0.));
#501=DIRECTION('',(0.,0.,1.));
#502=DIRECTION('',(0.,1.,0.));
#503=DIRECTION('center_axis',(-1.,0.,0.));
#504=DIRECTION('ref_axis',(0.,0.,1.));
#505=DIRECTION('',(0.,0.,1.));
#506=DIRECTION('',(0.,1.,0.));
#507=DIRECTION('',(0.,0.,-1.));
#508=DIRECTION('',(0.,1.,0.));
#509=DIRECTION('center_axis',(0.,-1.,0.));
#510=DIRECTION('ref_axis',(1.,0.,0.));
#511=DIRECTION('',(1.,0.,0.));
#512=DIRECTION('',(0.,0.,1.));
#513=DIRECTION('',(1.,0.,0.));
#514=DIRECTION('center_axis',(-1.,0.,0.));
#515=DIRECTION('ref_axis',(0.,1.,0.));
#516=DIRECTION('',(0.,1.,0.));
#517=DIRECTION('',(0.,0.,-1.));
#518=DIRECTION('',(0.,1.,0.));
#519=DIRECTION('',(0.,0.,-1.));
#520=DIRECTION('center_axis',(0.,-1.,0.));
#521=DIRECTION('ref_axis',(-1.,0.,0.));
#522=DIRECTION('',(-1.,0.,0.));
#523=DIRECTION('',(0.,0.,-1.));
#524=DIRECTION('',(-1.,0.,0.));
#525=DIRECTION('center_axis',(1.,0.,0.));
#526=DIRECTION('ref_axis',(0.,-1.,0.));
#527=DIRECTION('',(0.,-1.,0.));
#528=DIRECTION('',(0.,0.,1.));
#529=DIRECTION('',(0.,-1.,0.));
#530=DIRECTION('center_axis',(0.,0.,-1.));
#531=DIRECTION('ref_axis',(-1.,0.,0.));
#532=DIRECTION('',(1.,0.,0.));
#533=DIRECTION('center_axis',(0.,0.,1.));
#534=DIRECTION('ref_axis',(1.,0.,0.));
#535=DIRECTION('',(1.,0.,0.));
#536=DIRECTION('',(0.,1.,0.));
#537=DIRECTION('',(-1.,0.,0.));
#538=DIRECTION('',(0.,-1.,0.));
#539=DIRECTION('',(1.,0.,0.));
#540=DIRECTION('',(1.,0.,0.));
#541=DIRECTION('center_axis',(0.,-1.,0.));
#542=DIRECTION('ref_axis',(1.,0.,0.));
#543=DIRECTION('',(0.,0.,1.));
#544=DIRECTION('',(1.,0.,0.));
#545=DIRECTION('center_axis',(-1.,0.,0.));
#546=DIRECTION('ref_axis',(0.,-1.,0.));
#547=DIRECTION('',(0.,0.,1.));
#548=DIRECTION('',(0.,-1.,0.));
#549=DIRECTION('center_axis',(1.,0.,0.));
#550=DIRECTION('ref_axis',(0.,1.,0.));
#551=DIRECTION('',(0.,1.,0.));
#552=DIRECTION('',(0.,0.,1.));
#553=DIRECTION('center_axis',(0.,1.,0.));
#554=DIRECTION('ref_axis',(-1.,0.,0.));
#555=DIRECTION('',(-1.,0.,0.));
#556=DIRECTION('center_axis',(0.,0.,1.));
#557=DIRECTION('ref_axis',(1.,0.,0.));
#558=DIRECTION('center_axis',(0.,0.,-1.));
#559=DIRECTION('ref_axis',(1.,0.,0.));
#560=DIRECTION('',(0.,0.,-1.));
#561=DIRECTION('center_axis',(0.,0.,-1.));
#562=DIRECTION('ref_axis',(1.,0.,0.));
#563=DIRECTION('center_axis',(0.,0.,1.));
#564=DIRECTION('ref_axis',(1.,0.,0.));
#565=DIRECTION('center_axis',(0.,0.,-1.));
#566=DIRECTION('ref_axis',(1.,0.,0.));
#567=DIRECTION('',(0.,0.,-1.));
#568=DIRECTION('center_axis',(0.,0.,-1.));
#569=DIRECTION('ref_axis',(1.,0.,0.));
#570=DIRECTION('center_axis',(0.,0.,1.));
#571=DIRECTION('ref_axis',(1.,0.,0.));
#572=DIRECTION('center_axis',(0.,0.,-1.));
#573=DIRECTION('ref_axis',(1.,0.,0.));
#574=DIRECTION('',(0.,0.,-1.));
#575=DIRECTION('center_axis',(0.,0.,-1.));
#576=DIRECTION('ref_axis',(1.,0.,0.));
#577=DIRECTION('center_axis',(0.,0.,1.));
#578=DIRECTION('ref_axis',(1.,0.,0.));
#579=DIRECTION('center_axis',(0.,0.,-1.));
#580=DIRECTION('ref_axis',(1.,0.,0.));
#581=DIRECTION('',(0.,0.,-1.));
#582=DIRECTION('center_axis',(0.,0.,-1.));
#583=DIRECTION('ref_axis',(1.,0.,0.));
#584=DIRECTION('center_axis',(-1.,0.,0.));
#585=DIRECTION('ref_axis',(0.,-1.,0.));
#586=DIRECTION('',(0.,1.,0.));
#587=DIRECTION('',(0.,0.,1.));
#588=DIRECTION('',(0.,-1.,0.));
#589=DIRECTION('',(0.,0.,1.));
#590=DIRECTION('center_axis',(0.,1.,0.));
#591=DIRECTION('ref_axis',(-1.,0.,0.));
#592=DIRECTION('',(-1.,0.,0.));
#593=DIRECTION('',(0.,0.,1.));
#594=DIRECTION('',(1.,0.,0.));
#595=DIRECTION('',(-1.,0.,0.));
#596=DIRECTION('center_axis',(1.,0.,0.));
#597=DIRECTION('ref_axis',(0.,1.,0.));
#598=DIRECTION('',(0.,1.,0.));
#599=DIRECTION('',(0.,1.,0.));
#600=DIRECTION('',(0.,0.,1.));
#601=DIRECTION('center_axis',(0.,-1.,0.));
#602=DIRECTION('ref_axis',(1.,0.,0.));
#603=DIRECTION('',(1.,0.,0.));
#604=DIRECTION('',(1.,0.,0.));
#605=DIRECTION('center_axis',(0.,0.,1.));
#606=DIRECTION('ref_axis',(1.,0.,0.));
#607=DIRECTION('center_axis',(0.,0.,1.));
#608=DIRECTION('ref_axis',(1.,0.,0.));
#609=CARTESIAN_POINT('',(0.,0.,0.));
#610=CARTESIAN_POINT('Origin',(47.0000007003546,73.4,13.));
#611=CARTESIAN_POINT('',(47.0000007003546,73.4,13.));
#612=CARTESIAN_POINT('',(47.0000007003546,73.4,3.));
#613=CARTESIAN_POINT('',(47.0000007003546,73.4,6.5));
#614=CARTESIAN_POINT('',(47.0000007003546,78.4,13.));
#615=CARTESIAN_POINT('',(47.0000007003546,57.5500000372529,13.));
#616=CARTESIAN_POINT('',(47.0000007003546,78.4,3.));
#617=CARTESIAN_POINT('',(47.0000007003546,78.4000000745058,6.5));
#618=CARTESIAN_POINT('',(47.0000007003546,73.4,3.));
#619=CARTESIAN_POINT('Origin',(36.0000005364418,73.4,3.));
#620=CARTESIAN_POINT('',(36.0000005364418,73.4,3.));
#621=CARTESIAN_POINT('',(36.0000005364418,73.4,13.));
#622=CARTESIAN_POINT('',(36.0000005364418,73.4,1.5));
#623=CARTESIAN_POINT('',(36.0000005364418,78.4,3.));
#624=CARTESIAN_POINT('',(36.0000005364418,73.4,3.));
#625=CARTESIAN_POINT('',(36.0000005364418,78.4,13.));
#626=CARTESIAN_POINT('',(36.0000005364418,78.4000000745058,1.5));
#627=CARTESIAN_POINT('',(36.0000005364418,57.5500000372529,13.));
#628=CARTESIAN_POINT('Origin',(10.,73.4,0.));
#629=CARTESIAN_POINT('',(10.,73.4,13.));
#630=CARTESIAN_POINT('',(10.,73.4,13.));
#631=CARTESIAN_POINT('',(9.99999977648258,73.3999983593822,3.));
#632=CARTESIAN_POINT('',(10.,73.4,0.));
#633=CARTESIAN_POINT('',(25.6000008038245,73.4,3.));
#634=CARTESIAN_POINT('Origin',(37.4999997764826,72.3999983817339,3.));
#635=CARTESIAN_POINT('',(37.4999997764826,72.3999983817339,3.));
#636=CARTESIAN_POINT('',(37.4999997764826,78.4,3.));
#637=CARTESIAN_POINT('',(37.4999997764826,57.0499988994561,3.));
#638=CARTESIAN_POINT('',(37.4999997764826,72.3999983817339,2.5));
#639=CARTESIAN_POINT('',(37.4999997764826,72.3999983817339,3.));
#640=CARTESIAN_POINT('',(37.4999997764826,78.4,2.5));
#641=CARTESIAN_POINT('',(37.4999997764826,73.4,2.5));
#642=CARTESIAN_POINT('',(37.4999997764826,78.4000000745058,1.25));
#643=CARTESIAN_POINT('Origin',(45.5000006780028,72.3999983817339,3.));
#644=CARTESIAN_POINT('',(45.5000006780028,72.3999983817339,3.));
#645=CARTESIAN_POINT('',(43.3500011428259,72.3999983817339,3.));
#646=CARTESIAN_POINT('',(45.5000006780028,72.3999983817339,2.5));
#647=CARTESIAN_POINT('',(45.5000006780028,72.3999983817339,3.));
#648=CARTESIAN_POINT('',(37.4999997764826,72.3999983817339,2.5));
#649=CARTESIAN_POINT('Origin',(45.5000006780028,73.3999983593822,3.));
#650=CARTESIAN_POINT('',(45.5000006780028,78.4,3.));
#651=CARTESIAN_POINT('',(45.5000006780028,57.5499988882802,3.));
#652=CARTESIAN_POINT('',(45.5000006780028,78.4,2.5));
#653=CARTESIAN_POINT('',(45.5000006780028,78.4000000745058,1.5));
#654=CARTESIAN_POINT('',(45.5000006780028,72.3999983817339,2.5));
#655=CARTESIAN_POINT('Origin',(41.5000002272427,72.899998370558,2.5));
#656=CARTESIAN_POINT('',(61.4500003762543,78.4000000745058,2.5));
#657=CARTESIAN_POINT('Origin',(41.200001607649,41.6999994171783,3.));
#658=CARTESIAN_POINT('',(57.4499999254942,78.4000000745058,3.));
#659=CARTESIAN_POINT('',(9.99999977648258,10.0000004749745,3.));
#660=CARTESIAN_POINT('',(10.,25.8499997085892,3.));
#661=CARTESIAN_POINT('',(72.4000034388155,10.0000004749745,3.));
#662=CARTESIAN_POINT('',(56.8000008038245,10.,3.));
#663=CARTESIAN_POINT('',(72.4000034388155,73.3999983593822,3.));
#664=CARTESIAN_POINT('',(72.4,57.5499997085892,3.));
#665=CARTESIAN_POINT('',(25.6000008038245,73.4,3.));
#666=CARTESIAN_POINT('',(62.2000003874302,78.4000000745058,3.));
#667=CARTESIAN_POINT('Origin',(10.,73.4,0.));
#668=CARTESIAN_POINT('',(72.4,73.4,13.));
#669=CARTESIAN_POINT('',(72.4,73.4,0.));
#670=CARTESIAN_POINT('',(10.,73.4,13.));
#671=CARTESIAN_POINT('Origin',(72.4,73.4,0.));
#672=CARTESIAN_POINT('',(72.4,10.,13.));
#673=CARTESIAN_POINT('',(72.4,10.,0.));
#674=CARTESIAN_POINT('',(72.4,73.4,13.));
#675=CARTESIAN_POINT('Origin',(10.,10.,0.));
#676=CARTESIAN_POINT('',(10.,10.,13.));
#677=CARTESIAN_POINT('',(10.,10.,13.));
#678=CARTESIAN_POINT('',(10.,10.,0.));
#679=CARTESIAN_POINT('Origin',(72.4,10.,0.));
#680=CARTESIAN_POINT('',(10.,10.,13.));
#681=CARTESIAN_POINT('Origin',(74.9000247850756,75.9000000745058,0.));
#682=CARTESIAN_POINT('',(73.4500247850756,75.9000000745058,13.));
#683=CARTESIAN_POINT('Origin',(74.9000247850756,75.9000000745058,13.));
#684=CARTESIAN_POINT('',(73.4500247850756,75.9000000745058,0.));
#685=CARTESIAN_POINT('',(73.4500247850756,75.9000000745058,0.));
#686=CARTESIAN_POINT('Origin',(74.9000247850756,75.9000000745058,0.));
#687=CARTESIAN_POINT('Origin',(7.49999983236194,7.49999983236194,0.));
#688=CARTESIAN_POINT('',(6.04999983236194,7.49999983236194,13.));
#689=CARTESIAN_POINT('Origin',(7.49999983236194,7.49999983236194,13.));
#690=CARTESIAN_POINT('',(6.04999983236194,7.49999983236194,0.));
#691=CARTESIAN_POINT('',(6.04999983236194,7.49999983236194,0.));
#692=CARTESIAN_POINT('Origin',(7.49999983236194,7.49999983236194,0.));
#693=CARTESIAN_POINT('Origin',(7.49999983236194,75.89999826774,0.));
#694=CARTESIAN_POINT('',(6.04999983236194,75.89999826774,13.));
#695=CARTESIAN_POINT('Origin',(7.49999983236194,75.89999826774,13.));
#696=CARTESIAN_POINT('',(6.04999983236194,75.89999826774,0.));
#697=CARTESIAN_POINT('',(6.04999983236194,75.89999826774,0.));
#698=CARTESIAN_POINT('Origin',(7.49999983236194,75.89999826774,0.));
#699=CARTESIAN_POINT('Origin',(74.9000011175871,7.50000007450581,0.));
#700=CARTESIAN_POINT('',(73.4500011175871,7.50000007450581,13.));
#701=CARTESIAN_POINT('Origin',(74.9000011175871,7.50000007450581,13.));
#702=CARTESIAN_POINT('',(73.4500011175871,7.50000007450581,0.));
#703=CARTESIAN_POINT('',(73.4500011175871,7.50000007450581,0.));
#704=CARTESIAN_POINT('Origin',(74.9000011175871,7.50000007450581,0.));
#705=CARTESIAN_POINT('Origin',(5.00000007450581,78.4000000745058,0.));
#706=CARTESIAN_POINT('',(5.00000007450581,5.00000007450581,0.));
#707=CARTESIAN_POINT('',(5.00000007450581,78.4000000745058,0.));
#708=CARTESIAN_POINT('',(5.00000007450581,5.00000007450581,0.));
#709=CARTESIAN_POINT('',(5.00000007450581,5.00000007450581,13.));
#710=CARTESIAN_POINT('',(5.00000007450581,5.00000007450581,0.));
#711=CARTESIAN_POINT('',(5.00000007450581,78.4000000745058,13.));
#712=CARTESIAN_POINT('',(5.00000007450581,5.00000007450581,13.));
#713=CARTESIAN_POINT('',(5.00000007450581,78.4000000745058,0.));
#714=CARTESIAN_POINT('Origin',(77.4000000745058,78.4000000745058,0.));
#715=CARTESIAN_POINT('',(77.4000000745058,78.4000000745058,13.));
#716=CARTESIAN_POINT('',(5.00000007450581,78.4000000745058,13.));
#717=CARTESIAN_POINT('',(77.4000000745058,78.4000000745058,0.));
#718=CARTESIAN_POINT('',(77.4000000745058,78.4000000745058,0.));
#719=CARTESIAN_POINT('',(5.00000007450581,78.4000000745058,0.));
#720=CARTESIAN_POINT('',(5.00000007450581,78.4000000745058,13.));
#721=CARTESIAN_POINT('Origin',(77.4000000745058,5.00000007450581,0.));
#722=CARTESIAN_POINT('',(77.4000000745058,5.00000007450581,0.));
#723=CARTESIAN_POINT('',(77.4000000745058,5.00000007450581,0.));
#724=CARTESIAN_POINT('',(77.4000000745058,5.00000007450581,13.));
#725=CARTESIAN_POINT('',(77.4000000745058,5.00000007450581,13.));
#726=CARTESIAN_POINT('',(77.4000000745058,5.00000007450581,0.));
#727=CARTESIAN_POINT('Origin',(5.00000007450581,5.00000007450581,0.));
#728=CARTESIAN_POINT('',(5.00000007450581,5.00000007450581,0.));
#729=CARTESIAN_POINT('',(5.00000007450581,5.00000007450581,13.));
#730=CARTESIAN_POINT('Origin',(41.2000000745058,41.7000000745058,13.));
#731=CARTESIAN_POINT('Origin',(41.2000000745058,41.7000000745058,0.));
#732=UNCERTAINTY_MEASURE_WITH_UNIT(LENGTH_MEASURE(0.01),#736,
'DISTANCE_ACCURACY_VALUE',
'Maximum model space distance between geometric entities at asserted c
onnectivities');
#733=UNCERTAINTY_MEASURE_WITH_UNIT(LENGTH_MEASURE(0.01),#736,
'DISTANCE_ACCURACY_VALUE',
'Maximum model space distance between geometric entities at asserted c
onnectivities');
#734=(
GEOMETRIC_REPRESENTATION_CONTEXT(3)
GLOBAL_UNCERTAINTY_ASSIGNED_CONTEXT((#732))
GLOBAL_UNIT_ASSIGNED_CONTEXT((#736,#738,#739))
REPRESENTATION_CONTEXT('','3D')
);
#735=(
GEOMETRIC_REPRESENTATION_CONTEXT(3)
GLOBAL_UNCERTAINTY_ASSIGNED_CONTEXT((#733))
GLOBAL_UNIT_ASSIGNED_CONTEXT((#736,#738,#739))
REPRESENTATION_CONTEXT('','3D')
);
#736=(
LENGTH_UNIT()
NAMED_UNIT(*)
SI_UNIT(.MILLI.,.METRE.)
);
#737=(
LENGTH_UNIT()
NAMED_UNIT(*)
SI_UNIT($,.METRE.)
);
#738=(
NAMED_UNIT(*)
PLANE_ANGLE_UNIT()
SI_UNIT($,.RADIAN.)
);
#739=(
NAMED_UNIT(*)
SI_UNIT($,.STERADIAN.)
SOLID_ANGLE_UNIT()
);
#740=SHAPE_DEFINITION_REPRESENTATION(#741,#742);
#741=PRODUCT_DEFINITION_SHAPE('',$,#744);
#742=SHAPE_REPRESENTATION('',(#464),#734);
#743=PRODUCT_DEFINITION_CONTEXT('part definition',#748,'design');
#744=PRODUCT_DEFINITION('2026-09-05-21-24-12-103','Macropad bottom',#745,
#743);
#745=PRODUCT_DEFINITION_FORMATION('',$,#750);
#746=PRODUCT_RELATED_PRODUCT_CATEGORY('Macropad bottom',
'Macropad bottom',(#750));
#747=APPLICATION_PROTOCOL_DEFINITION('international standard',
'automotive_design',2009,#748);
#748=APPLICATION_CONTEXT(
'Core Data for Automotive Mechanical Design Process');
#749=PRODUCT_CONTEXT('part definition',#748,'mechanical');
#750=PRODUCT('2026-09-05-21-24-12-103','Macropad bottom',$,(#749));
#751=PRESENTATION_STYLE_ASSIGNMENT((#752));
#752=SURFACE_STYLE_USAGE(.BOTH.,#753);
#753=SURFACE_SIDE_STYLE('',(#754));
#754=SURFACE_STYLE_FILL_AREA(#755);
#755=FILL_AREA_STYLE('Steel - Satin',(#756));
#756=FILL_AREA_STYLE_COLOUR('Steel - Satin',#757);
#757=COLOUR_RGB('Steel - Satin',0.627450980392157,0.627450980392157,0.627450980392157);
ENDSEC;
END-ISO-10303-21;
