ISO-10303-21;
HEADER;
/* Generated by software containing ST-Developer
 * from STEP Tools, Inc. (www.steptools.com) 
 */

FILE_DESCRIPTION(
/* description */ (''),
/* implementation_level */ '2;1');

FILE_NAME(
/* name */ 'Macropad Cad.step',
/* time_stamp */ '2026-09-08T22:27:32+10:00',
/* author */ (''),
/* organization */ (''),
/* preprocessor_version */ 'ST-DEVELOPER v20.2',
/* originating_system */ 'Autodesk Translation Framework v15.15.0.0',
/* authorisation */ '');

FILE_SCHEMA (('AUTOMOTIVE_DESIGN { 1 0 10303 214 3 1 1 }'));
ENDSEC;

DATA;
#10=MECHANICAL_DESIGN_GEOMETRIC_PRESENTATION_REPRESENTATION('',(#13,#14),
#2130);
#11=SHAPE_REPRESENTATION_RELATIONSHIP('SRR','None',#2137,#12);
#12=ADVANCED_BREP_SHAPE_REPRESENTATION('',(#15,#16),#2129);
#13=STYLED_ITEM('',(#2146),#15);
#14=STYLED_ITEM('',(#2146),#16);
#15=MANIFOLD_SOLID_BREP('Body1',#1341);
#16=MANIFOLD_SOLID_BREP('Body2',#1342);
#17=FACE_BOUND('',#158,.T.);
#18=FACE_BOUND('',#159,.T.);
#19=FACE_BOUND('',#160,.T.);
#20=FACE_BOUND('',#161,.T.);
#21=FACE_BOUND('',#163,.T.);
#22=FACE_BOUND('',#164,.T.);
#23=FACE_BOUND('',#165,.T.);
#24=FACE_BOUND('',#166,.T.);
#25=FACE_BOUND('',#208,.T.);
#26=FACE_BOUND('',#209,.T.);
#27=FACE_BOUND('',#210,.T.);
#28=FACE_BOUND('',#211,.T.);
#29=FACE_BOUND('',#212,.T.);
#30=FACE_BOUND('',#213,.T.);
#31=FACE_BOUND('',#214,.T.);
#32=FACE_BOUND('',#215,.T.);
#33=FACE_BOUND('',#216,.T.);
#34=FACE_BOUND('',#217,.T.);
#35=FACE_BOUND('',#218,.T.);
#36=FACE_BOUND('',#219,.T.);
#37=FACE_BOUND('',#221,.T.);
#38=FACE_BOUND('',#222,.T.);
#39=FACE_BOUND('',#223,.T.);
#40=FACE_BOUND('',#224,.T.);
#41=FACE_BOUND('',#225,.T.);
#42=FACE_BOUND('',#226,.T.);
#43=FACE_BOUND('',#227,.T.);
#44=FACE_BOUND('',#228,.T.);
#45=FACE_BOUND('',#229,.T.);
#46=FACE_BOUND('',#230,.T.);
#47=FACE_BOUND('',#231,.T.);
#48=FACE_BOUND('',#232,.T.);
#49=CIRCLE('',#1369,1.45);
#50=CIRCLE('',#1370,1.45);
#51=CIRCLE('',#1372,1.45);
#52=CIRCLE('',#1373,1.45);
#53=CIRCLE('',#1375,1.45);
#54=CIRCLE('',#1376,1.45);
#55=CIRCLE('',#1378,1.45);
#56=CIRCLE('',#1379,1.45);
#57=CIRCLE('',#1419,1.45);
#58=CIRCLE('',#1420,1.45);
#59=CIRCLE('',#1422,1.45);
#60=CIRCLE('',#1423,1.45);
#61=CIRCLE('',#1425,1.45);
#62=CIRCLE('',#1426,1.45);
#63=CIRCLE('',#1428,1.45);
#64=CIRCLE('',#1429,1.45);
#65=CYLINDRICAL_SURFACE('',#1368,1.45);
#66=CYLINDRICAL_SURFACE('',#1371,1.45);
#67=CYLINDRICAL_SURFACE('',#1374,1.45);
#68=CYLINDRICAL_SURFACE('',#1377,1.45);
#69=CYLINDRICAL_SURFACE('',#1418,1.45);
#70=CYLINDRICAL_SURFACE('',#1421,1.45);
#71=CYLINDRICAL_SURFACE('',#1424,1.45);
#72=CYLINDRICAL_SURFACE('',#1427,1.45);
#73=FACE_OUTER_BOUND('',#137,.T.);
#74=FACE_OUTER_BOUND('',#138,.T.);
#75=FACE_OUTER_BOUND('',#139,.T.);
#76=FACE_OUTER_BOUND('',#140,.T.);
#77=FACE_OUTER_BOUND('',#141,.T.);
#78=FACE_OUTER_BOUND('',#142,.T.);
#79=FACE_OUTER_BOUND('',#143,.T.);
#80=FACE_OUTER_BOUND('',#144,.T.);
#81=FACE_OUTER_BOUND('',#145,.T.);
#82=FACE_OUTER_BOUND('',#146,.T.);
#83=FACE_OUTER_BOUND('',#147,.T.);
#84=FACE_OUTER_BOUND('',#148,.T.);
#85=FACE_OUTER_BOUND('',#149,.T.);
#86=FACE_OUTER_BOUND('',#150,.T.);
#87=FACE_OUTER_BOUND('',#151,.T.);
#88=FACE_OUTER_BOUND('',#152,.T.);
#89=FACE_OUTER_BOUND('',#153,.T.);
#90=FACE_OUTER_BOUND('',#154,.T.);
#91=FACE_OUTER_BOUND('',#155,.T.);
#92=FACE_OUTER_BOUND('',#156,.T.);
#93=FACE_OUTER_BOUND('',#157,.T.);
#94=FACE_OUTER_BOUND('',#162,.T.);
#95=FACE_OUTER_BOUND('',#167,.T.);
#96=FACE_OUTER_BOUND('',#168,.T.);
#97=FACE_OUTER_BOUND('',#169,.T.);
#98=FACE_OUTER_BOUND('',#170,.T.);
#99=FACE_OUTER_BOUND('',#171,.T.);
#100=FACE_OUTER_BOUND('',#172,.T.);
#101=FACE_OUTER_BOUND('',#173,.T.);
#102=FACE_OUTER_BOUND('',#174,.T.);
#103=FACE_OUTER_BOUND('',#175,.T.);
#104=FACE_OUTER_BOUND('',#176,.T.);
#105=FACE_OUTER_BOUND('',#177,.T.);
#106=FACE_OUTER_BOUND('',#178,.T.);
#107=FACE_OUTER_BOUND('',#179,.T.);
#108=FACE_OUTER_BOUND('',#180,.T.);
#109=FACE_OUTER_BOUND('',#181,.T.);
#110=FACE_OUTER_BOUND('',#182,.T.);
#111=FACE_OUTER_BOUND('',#183,.T.);
#112=FACE_OUTER_BOUND('',#184,.T.);
#113=FACE_OUTER_BOUND('',#185,.T.);
#114=FACE_OUTER_BOUND('',#186,.T.);
#115=FACE_OUTER_BOUND('',#187,.T.);
#116=FACE_OUTER_BOUND('',#188,.T.);
#117=FACE_OUTER_BOUND('',#189,.T.);
#118=FACE_OUTER_BOUND('',#190,.T.);
#119=FACE_OUTER_BOUND('',#191,.T.);
#120=FACE_OUTER_BOUND('',#192,.T.);
#121=FACE_OUTER_BOUND('',#193,.T.);
#122=FACE_OUTER_BOUND('',#194,.T.);
#123=FACE_OUTER_BOUND('',#195,.T.);
#124=FACE_OUTER_BOUND('',#196,.T.);
#125=FACE_OUTER_BOUND('',#197,.T.);
#126=FACE_OUTER_BOUND('',#198,.T.);
#127=FACE_OUTER_BOUND('',#199,.T.);
#128=FACE_OUTER_BOUND('',#200,.T.);
#129=FACE_OUTER_BOUND('',#201,.T.);
#130=FACE_OUTER_BOUND('',#202,.T.);
#131=FACE_OUTER_BOUND('',#203,.T.);
#132=FACE_OUTER_BOUND('',#204,.T.);
#133=FACE_OUTER_BOUND('',#205,.T.);
#134=FACE_OUTER_BOUND('',#206,.T.);
#135=FACE_OUTER_BOUND('',#207,.T.);
#136=FACE_OUTER_BOUND('',#220,.T.);
#137=EDGE_LOOP('',(#861,#862,#863,#864));
#138=EDGE_LOOP('',(#865,#866,#867,#868));
#139=EDGE_LOOP('',(#869,#870,#871,#872));
#140=EDGE_LOOP('',(#873,#874,#875,#876));
#141=EDGE_LOOP('',(#877,#878,#879,#880));
#142=EDGE_LOOP('',(#881,#882,#883,#884));
#143=EDGE_LOOP('',(#885,#886,#887,#888));
#144=EDGE_LOOP('',(#889,#890,#891,#892,#893,#894,#895,#896,#897,#898,#899,
#900));
#145=EDGE_LOOP('',(#901,#902,#903,#904));
#146=EDGE_LOOP('',(#905,#906,#907,#908));
#147=EDGE_LOOP('',(#909,#910,#911,#912));
#148=EDGE_LOOP('',(#913,#914,#915,#916));
#149=EDGE_LOOP('',(#917,#918,#919,#920));
#150=EDGE_LOOP('',(#921,#922,#923,#924));
#151=EDGE_LOOP('',(#925,#926,#927,#928));
#152=EDGE_LOOP('',(#929,#930,#931,#932));
#153=EDGE_LOOP('',(#933,#934,#935,#936));
#154=EDGE_LOOP('',(#937,#938,#939,#940,#941,#942,#943,#944,#945,#946,#947,
#948));
#155=EDGE_LOOP('',(#949,#950,#951,#952));
#156=EDGE_LOOP('',(#953,#954,#955,#956));
#157=EDGE_LOOP('',(#957,#958,#959,#960,#961,#962,#963,#964,#965,#966,#967,
#968));
#158=EDGE_LOOP('',(#969));
#159=EDGE_LOOP('',(#970));
#160=EDGE_LOOP('',(#971));
#161=EDGE_LOOP('',(#972));
#162=EDGE_LOOP('',(#973,#974,#975,#976));
#163=EDGE_LOOP('',(#977));
#164=EDGE_LOOP('',(#978));
#165=EDGE_LOOP('',(#979));
#166=EDGE_LOOP('',(#980));
#167=EDGE_LOOP('',(#981,#982,#983,#984));
#168=EDGE_LOOP('',(#985,#986,#987,#988));
#169=EDGE_LOOP('',(#989,#990,#991,#992));
#170=EDGE_LOOP('',(#993,#994,#995,#996));
#171=EDGE_LOOP('',(#997,#998,#999,#1000));
#172=EDGE_LOOP('',(#1001,#1002,#1003,#1004));
#173=EDGE_LOOP('',(#1005,#1006,#1007,#1008));
#174=EDGE_LOOP('',(#1009,#1010,#1011,#1012));
#175=EDGE_LOOP('',(#1013,#1014,#1015,#1016));
#176=EDGE_LOOP('',(#1017,#1018,#1019,#1020));
#177=EDGE_LOOP('',(#1021,#1022,#1023,#1024));
#178=EDGE_LOOP('',(#1025,#1026,#1027,#1028));
#179=EDGE_LOOP('',(#1029,#1030,#1031,#1032));
#180=EDGE_LOOP('',(#1033,#1034,#1035,#1036));
#181=EDGE_LOOP('',(#1037,#1038,#1039,#1040));
#182=EDGE_LOOP('',(#1041,#1042,#1043,#1044));
#183=EDGE_LOOP('',(#1045,#1046,#1047,#1048));
#184=EDGE_LOOP('',(#1049,#1050,#1051,#1052));
#185=EDGE_LOOP('',(#1053,#1054,#1055,#1056));
#186=EDGE_LOOP('',(#1057,#1058,#1059,#1060));
#187=EDGE_LOOP('',(#1061,#1062,#1063,#1064));
#188=EDGE_LOOP('',(#1065,#1066,#1067,#1068));
#189=EDGE_LOOP('',(#1069,#1070,#1071,#1072));
#190=EDGE_LOOP('',(#1073,#1074,#1075,#1076));
#191=EDGE_LOOP('',(#1077,#1078,#1079,#1080));
#192=EDGE_LOOP('',(#1081,#1082,#1083,#1084));
#193=EDGE_LOOP('',(#1085,#1086,#1087,#1088));
#194=EDGE_LOOP('',(#1089,#1090,#1091,#1092));
#195=EDGE_LOOP('',(#1093,#1094,#1095,#1096));
#196=EDGE_LOOP('',(#1097,#1098,#1099,#1100));
#197=EDGE_LOOP('',(#1101,#1102,#1103,#1104));
#198=EDGE_LOOP('',(#1105,#1106,#1107,#1108));
#199=EDGE_LOOP('',(#1109,#1110,#1111,#1112));
#200=EDGE_LOOP('',(#1113,#1114,#1115,#1116));
#201=EDGE_LOOP('',(#1117,#1118,#1119,#1120));
#202=EDGE_LOOP('',(#1121,#1122,#1123,#1124));
#203=EDGE_LOOP('',(#1125,#1126,#1127,#1128));
#204=EDGE_LOOP('',(#1129,#1130,#1131,#1132));
#205=EDGE_LOOP('',(#1133,#1134,#1135,#1136));
#206=EDGE_LOOP('',(#1137,#1138,#1139,#1140));
#207=EDGE_LOOP('',(#1141,#1142,#1143,#1144));
#208=EDGE_LOOP('',(#1145,#1146,#1147,#1148));
#209=EDGE_LOOP('',(#1149,#1150,#1151,#1152));
#210=EDGE_LOOP('',(#1153,#1154,#1155,#1156));
#211=EDGE_LOOP('',(#1157,#1158,#1159,#1160));
#212=EDGE_LOOP('',(#1161,#1162,#1163,#1164));
#213=EDGE_LOOP('',(#1165,#1166,#1167,#1168));
#214=EDGE_LOOP('',(#1169,#1170,#1171,#1172));
#215=EDGE_LOOP('',(#1173,#1174,#1175,#1176));
#216=EDGE_LOOP('',(#1177));
#217=EDGE_LOOP('',(#1178));
#218=EDGE_LOOP('',(#1179));
#219=EDGE_LOOP('',(#1180));
#220=EDGE_LOOP('',(#1181,#1182,#1183,#1184));
#221=EDGE_LOOP('',(#1185,#1186,#1187,#1188));
#222=EDGE_LOOP('',(#1189,#1190,#1191,#1192));
#223=EDGE_LOOP('',(#1193,#1194,#1195,#1196));
#224=EDGE_LOOP('',(#1197,#1198,#1199,#1200));
#225=EDGE_LOOP('',(#1201,#1202,#1203,#1204));
#226=EDGE_LOOP('',(#1205,#1206,#1207,#1208));
#227=EDGE_LOOP('',(#1209,#1210,#1211,#1212));
#228=EDGE_LOOP('',(#1213,#1214,#1215,#1216));
#229=EDGE_LOOP('',(#1217));
#230=EDGE_LOOP('',(#1218));
#231=EDGE_LOOP('',(#1219));
#232=EDGE_LOOP('',(#1220));
#233=LINE('',#1766,#397);
#234=LINE('',#1768,#398);
#235=LINE('',#1770,#399);
#236=LINE('',#1771,#400);
#237=LINE('',#1775,#401);
#238=LINE('',#1777,#402);
#239=LINE('',#1779,#403);
#240=LINE('',#1780,#404);
#241=LINE('',#1783,#405);
#242=LINE('',#1785,#406);
#243=LINE('',#1786,#407);
#244=LINE('',#1790,#408);
#245=LINE('',#1792,#409);
#246=LINE('',#1794,#410);
#247=LINE('',#1795,#411);
#248=LINE('',#1798,#412);
#249=LINE('',#1800,#413);
#250=LINE('',#1801,#414);
#251=LINE('',#1804,#415);
#252=LINE('',#1806,#416);
#253=LINE('',#1807,#417);
#254=LINE('',#1809,#418);
#255=LINE('',#1811,#419);
#256=LINE('',#1813,#420);
#257=LINE('',#1815,#421);
#258=LINE('',#1817,#422);
#259=LINE('',#1818,#423);
#260=LINE('',#1819,#424);
#261=LINE('',#1822,#425);
#262=LINE('',#1823,#426);
#263=LINE('',#1826,#427);
#264=LINE('',#1827,#428);
#265=LINE('',#1830,#429);
#266=LINE('',#1831,#430);
#267=LINE('',#1833,#431);
#268=LINE('',#1838,#432);
#269=LINE('',#1844,#433);
#270=LINE('',#1850,#434);
#271=LINE('',#1856,#435);
#272=LINE('',#1861,#436);
#273=LINE('',#1863,#437);
#274=LINE('',#1865,#438);
#275=LINE('',#1866,#439);
#276=LINE('',#1869,#440);
#277=LINE('',#1871,#441);
#278=LINE('',#1872,#442);
#279=LINE('',#1873,#443);
#280=LINE('',#1876,#444);
#281=LINE('',#1878,#445);
#282=LINE('',#1879,#446);
#283=LINE('',#1881,#447);
#284=LINE('',#1882,#448);
#285=LINE('',#1888,#449);
#286=LINE('',#1890,#450);
#287=LINE('',#1892,#451);
#288=LINE('',#1893,#452);
#289=LINE('',#1896,#453);
#290=LINE('',#1898,#454);
#291=LINE('',#1899,#455);
#292=LINE('',#1902,#456);
#293=LINE('',#1904,#457);
#294=LINE('',#1905,#458);
#295=LINE('',#1907,#459);
#296=LINE('',#1908,#460);
#297=LINE('',#1912,#461);
#298=LINE('',#1914,#462);
#299=LINE('',#1916,#463);
#300=LINE('',#1917,#464);
#301=LINE('',#1920,#465);
#302=LINE('',#1922,#466);
#303=LINE('',#1923,#467);
#304=LINE('',#1926,#468);
#305=LINE('',#1928,#469);
#306=LINE('',#1929,#470);
#307=LINE('',#1931,#471);
#308=LINE('',#1932,#472);
#309=LINE('',#1936,#473);
#310=LINE('',#1938,#474);
#311=LINE('',#1940,#475);
#312=LINE('',#1941,#476);
#313=LINE('',#1944,#477);
#314=LINE('',#1946,#478);
#315=LINE('',#1947,#479);
#316=LINE('',#1950,#480);
#317=LINE('',#1952,#481);
#318=LINE('',#1953,#482);
#319=LINE('',#1955,#483);
#320=LINE('',#1956,#484);
#321=LINE('',#1960,#485);
#322=LINE('',#1962,#486);
#323=LINE('',#1964,#487);
#324=LINE('',#1965,#488);
#325=LINE('',#1968,#489);
#326=LINE('',#1970,#490);
#327=LINE('',#1971,#491);
#328=LINE('',#1974,#492);
#329=LINE('',#1976,#493);
#330=LINE('',#1977,#494);
#331=LINE('',#1979,#495);
#332=LINE('',#1980,#496);
#333=LINE('',#1984,#497);
#334=LINE('',#1986,#498);
#335=LINE('',#1988,#499);
#336=LINE('',#1989,#500);
#337=LINE('',#1992,#501);
#338=LINE('',#1994,#502);
#339=LINE('',#1995,#503);
#340=LINE('',#1998,#504);
#341=LINE('',#2000,#505);
#342=LINE('',#2001,#506);
#343=LINE('',#2003,#507);
#344=LINE('',#2004,#508);
#345=LINE('',#2008,#509);
#346=LINE('',#2010,#510);
#347=LINE('',#2012,#511);
#348=LINE('',#2013,#512);
#349=LINE('',#2016,#513);
#350=LINE('',#2018,#514);
#351=LINE('',#2019,#515);
#352=LINE('',#2022,#516);
#353=LINE('',#2024,#517);
#354=LINE('',#2025,#518);
#355=LINE('',#2027,#519);
#356=LINE('',#2028,#520);
#357=LINE('',#2032,#521);
#358=LINE('',#2034,#522);
#359=LINE('',#2036,#523);
#360=LINE('',#2037,#524);
#361=LINE('',#2040,#525);
#362=LINE('',#2042,#526);
#363=LINE('',#2043,#527);
#364=LINE('',#2046,#528);
#365=LINE('',#2048,#529);
#366=LINE('',#2049,#530);
#367=LINE('',#2051,#531);
#368=LINE('',#2052,#532);
#369=LINE('',#2056,#533);
#370=LINE('',#2058,#534);
#371=LINE('',#2060,#535);
#372=LINE('',#2061,#536);
#373=LINE('',#2064,#537);
#374=LINE('',#2066,#538);
#375=LINE('',#2067,#539);
#376=LINE('',#2070,#540);
#377=LINE('',#2072,#541);
#378=LINE('',#2073,#542);
#379=LINE('',#2075,#543);
#380=LINE('',#2076,#544);
#381=LINE('',#2081,#545);
#382=LINE('',#2087,#546);
#383=LINE('',#2093,#547);
#384=LINE('',#2099,#548);
#385=LINE('',#2104,#549);
#386=LINE('',#2106,#550);
#387=LINE('',#2108,#551);
#388=LINE('',#2109,#552);
#389=LINE('',#2112,#553);
#390=LINE('',#2114,#554);
#391=LINE('',#2115,#555);
#392=LINE('',#2118,#556);
#393=LINE('',#2120,#557);
#394=LINE('',#2121,#558);
#395=LINE('',#2123,#559);
#396=LINE('',#2124,#560);
#397=VECTOR('',#1440,10.);
#398=VECTOR('',#1441,10.);
#399=VECTOR('',#1442,10.);
#400=VECTOR('',#1443,10.);
#401=VECTOR('',#1446,10.);
#402=VECTOR('',#1447,10.);
#403=VECTOR('',#1448,10.);
#404=VECTOR('',#1449,10.);
#405=VECTOR('',#1452,10.);
#406=VECTOR('',#1453,10.);
#407=VECTOR('',#1454,10.);
#408=VECTOR('',#1457,10.);
#409=VECTOR('',#1458,10.);
#410=VECTOR('',#1459,10.);
#411=VECTOR('',#1460,10.);
#412=VECTOR('',#1463,10.);
#413=VECTOR('',#1464,10.);
#414=VECTOR('',#1465,10.);
#415=VECTOR('',#1468,10.);
#416=VECTOR('',#1469,10.);
#417=VECTOR('',#1470,10.);
#418=VECTOR('',#1473,10.);
#419=VECTOR('',#1476,10.);
#420=VECTOR('',#1477,10.);
#421=VECTOR('',#1478,10.);
#422=VECTOR('',#1479,10.);
#423=VECTOR('',#1480,10.);
#424=VECTOR('',#1481,10.);
#425=VECTOR('',#1484,10.);
#426=VECTOR('',#1485,10.);
#427=VECTOR('',#1488,10.);
#428=VECTOR('',#1489,10.);
#429=VECTOR('',#1492,10.);
#430=VECTOR('',#1493,10.);
#431=VECTOR('',#1496,10.);
#432=VECTOR('',#1501,1.45);
#433=VECTOR('',#1508,1.45);
#434=VECTOR('',#1515,1.45);
#435=VECTOR('',#1522,1.45);
#436=VECTOR('',#1527,10.);
#437=VECTOR('',#1528,10.);
#438=VECTOR('',#1529,10.);
#439=VECTOR('',#1530,10.);
#440=VECTOR('',#1533,10.);
#441=VECTOR('',#1534,10.);
#442=VECTOR('',#1535,10.);
#443=VECTOR('',#1536,10.);
#444=VECTOR('',#1539,10.);
#445=VECTOR('',#1540,10.);
#446=VECTOR('',#1541,10.);
#447=VECTOR('',#1544,10.);
#448=VECTOR('',#1545,10.);
#449=VECTOR('',#1552,10.);
#450=VECTOR('',#1553,10.);
#451=VECTOR('',#1554,10.);
#452=VECTOR('',#1555,10.);
#453=VECTOR('',#1558,10.);
#454=VECTOR('',#1559,10.);
#455=VECTOR('',#1560,10.);
#456=VECTOR('',#1563,10.);
#457=VECTOR('',#1564,10.);
#458=VECTOR('',#1565,10.);
#459=VECTOR('',#1568,10.);
#460=VECTOR('',#1569,10.);
#461=VECTOR('',#1572,10.);
#462=VECTOR('',#1573,10.);
#463=VECTOR('',#1574,10.);
#464=VECTOR('',#1575,10.);
#465=VECTOR('',#1578,10.);
#466=VECTOR('',#1579,10.);
#467=VECTOR('',#1580,10.);
#468=VECTOR('',#1583,10.);
#469=VECTOR('',#1584,10.);
#470=VECTOR('',#1585,10.);
#471=VECTOR('',#1588,10.);
#472=VECTOR('',#1589,10.);
#473=VECTOR('',#1592,10.);
#474=VECTOR('',#1593,10.);
#475=VECTOR('',#1594,10.);
#476=VECTOR('',#1595,10.);
#477=VECTOR('',#1598,10.);
#478=VECTOR('',#1599,10.);
#479=VECTOR('',#1600,10.);
#480=VECTOR('',#1603,10.);
#481=VECTOR('',#1604,10.);
#482=VECTOR('',#1605,10.);
#483=VECTOR('',#1608,10.);
#484=VECTOR('',#1609,10.);
#485=VECTOR('',#1612,10.);
#486=VECTOR('',#1613,10.);
#487=VECTOR('',#1614,10.);
#488=VECTOR('',#1615,10.);
#489=VECTOR('',#1618,10.);
#490=VECTOR('',#1619,10.);
#491=VECTOR('',#1620,10.);
#492=VECTOR('',#1623,10.);
#493=VECTOR('',#1624,10.);
#494=VECTOR('',#1625,10.);
#495=VECTOR('',#1628,10.);
#496=VECTOR('',#1629,10.);
#497=VECTOR('',#1632,10.);
#498=VECTOR('',#1633,10.);
#499=VECTOR('',#1634,10.);
#500=VECTOR('',#1635,10.);
#501=VECTOR('',#1638,10.);
#502=VECTOR('',#1639,10.);
#503=VECTOR('',#1640,10.);
#504=VECTOR('',#1643,10.);
#505=VECTOR('',#1644,10.);
#506=VECTOR('',#1645,10.);
#507=VECTOR('',#1648,10.);
#508=VECTOR('',#1649,10.);
#509=VECTOR('',#1652,10.);
#510=VECTOR('',#1653,10.);
#511=VECTOR('',#1654,10.);
#512=VECTOR('',#1655,10.);
#513=VECTOR('',#1658,10.);
#514=VECTOR('',#1659,10.);
#515=VECTOR('',#1660,10.);
#516=VECTOR('',#1663,10.);
#517=VECTOR('',#1664,10.);
#518=VECTOR('',#1665,10.);
#519=VECTOR('',#1668,10.);
#520=VECTOR('',#1669,10.);
#521=VECTOR('',#1672,10.);
#522=VECTOR('',#1673,10.);
#523=VECTOR('',#1674,10.);
#524=VECTOR('',#1675,10.);
#525=VECTOR('',#1678,10.);
#526=VECTOR('',#1679,10.);
#527=VECTOR('',#1680,10.);
#528=VECTOR('',#1683,10.);
#529=VECTOR('',#1684,10.);
#530=VECTOR('',#1685,10.);
#531=VECTOR('',#1688,10.);
#532=VECTOR('',#1689,10.);
#533=VECTOR('',#1692,10.);
#534=VECTOR('',#1693,10.);
#535=VECTOR('',#1694,10.);
#536=VECTOR('',#1695,10.);
#537=VECTOR('',#1698,10.);
#538=VECTOR('',#1699,10.);
#539=VECTOR('',#1700,10.);
#540=VECTOR('',#1703,10.);
#541=VECTOR('',#1704,10.);
#542=VECTOR('',#1705,10.);
#543=VECTOR('',#1708,10.);
#544=VECTOR('',#1709,10.);
#545=VECTOR('',#1714,1.45);
#546=VECTOR('',#1721,1.45);
#547=VECTOR('',#1728,1.45);
#548=VECTOR('',#1735,1.45);
#549=VECTOR('',#1740,10.);
#550=VECTOR('',#1741,10.);
#551=VECTOR('',#1742,10.);
#552=VECTOR('',#1743,10.);
#553=VECTOR('',#1746,10.);
#554=VECTOR('',#1747,10.);
#555=VECTOR('',#1748,10.);
#556=VECTOR('',#1751,10.);
#557=VECTOR('',#1752,10.);
#558=VECTOR('',#1753,10.);
#559=VECTOR('',#1756,10.);
#560=VECTOR('',#1757,10.);
#561=VERTEX_POINT('',#1764);
#562=VERTEX_POINT('',#1765);
#563=VERTEX_POINT('',#1767);
#564=VERTEX_POINT('',#1769);
#565=VERTEX_POINT('',#1773);
#566=VERTEX_POINT('',#1774);
#567=VERTEX_POINT('',#1776);
#568=VERTEX_POINT('',#1778);
#569=VERTEX_POINT('',#1782);
#570=VERTEX_POINT('',#1784);
#571=VERTEX_POINT('',#1788);
#572=VERTEX_POINT('',#1789);
#573=VERTEX_POINT('',#1791);
#574=VERTEX_POINT('',#1793);
#575=VERTEX_POINT('',#1797);
#576=VERTEX_POINT('',#1799);
#577=VERTEX_POINT('',#1803);
#578=VERTEX_POINT('',#1805);
#579=VERTEX_POINT('',#1812);
#580=VERTEX_POINT('',#1814);
#581=VERTEX_POINT('',#1816);
#582=VERTEX_POINT('',#1821);
#583=VERTEX_POINT('',#1825);
#584=VERTEX_POINT('',#1829);
#585=VERTEX_POINT('',#1835);
#586=VERTEX_POINT('',#1837);
#587=VERTEX_POINT('',#1841);
#588=VERTEX_POINT('',#1843);
#589=VERTEX_POINT('',#1847);
#590=VERTEX_POINT('',#1849);
#591=VERTEX_POINT('',#1853);
#592=VERTEX_POINT('',#1855);
#593=VERTEX_POINT('',#1859);
#594=VERTEX_POINT('',#1860);
#595=VERTEX_POINT('',#1862);
#596=VERTEX_POINT('',#1864);
#597=VERTEX_POINT('',#1868);
#598=VERTEX_POINT('',#1870);
#599=VERTEX_POINT('',#1875);
#600=VERTEX_POINT('',#1877);
#601=VERTEX_POINT('',#1886);
#602=VERTEX_POINT('',#1887);
#603=VERTEX_POINT('',#1889);
#604=VERTEX_POINT('',#1891);
#605=VERTEX_POINT('',#1895);
#606=VERTEX_POINT('',#1897);
#607=VERTEX_POINT('',#1901);
#608=VERTEX_POINT('',#1903);
#609=VERTEX_POINT('',#1910);
#610=VERTEX_POINT('',#1911);
#611=VERTEX_POINT('',#1913);
#612=VERTEX_POINT('',#1915);
#613=VERTEX_POINT('',#1919);
#614=VERTEX_POINT('',#1921);
#615=VERTEX_POINT('',#1925);
#616=VERTEX_POINT('',#1927);
#617=VERTEX_POINT('',#1934);
#618=VERTEX_POINT('',#1935);
#619=VERTEX_POINT('',#1937);
#620=VERTEX_POINT('',#1939);
#621=VERTEX_POINT('',#1943);
#622=VERTEX_POINT('',#1945);
#623=VERTEX_POINT('',#1949);
#624=VERTEX_POINT('',#1951);
#625=VERTEX_POINT('',#1958);
#626=VERTEX_POINT('',#1959);
#627=VERTEX_POINT('',#1961);
#628=VERTEX_POINT('',#1963);
#629=VERTEX_POINT('',#1967);
#630=VERTEX_POINT('',#1969);
#631=VERTEX_POINT('',#1973);
#632=VERTEX_POINT('',#1975);
#633=VERTEX_POINT('',#1982);
#634=VERTEX_POINT('',#1983);
#635=VERTEX_POINT('',#1985);
#636=VERTEX_POINT('',#1987);
#637=VERTEX_POINT('',#1991);
#638=VERTEX_POINT('',#1993);
#639=VERTEX_POINT('',#1997);
#640=VERTEX_POINT('',#1999);
#641=VERTEX_POINT('',#2006);
#642=VERTEX_POINT('',#2007);
#643=VERTEX_POINT('',#2009);
#644=VERTEX_POINT('',#2011);
#645=VERTEX_POINT('',#2015);
#646=VERTEX_POINT('',#2017);
#647=VERTEX_POINT('',#2021);
#648=VERTEX_POINT('',#2023);
#649=VERTEX_POINT('',#2030);
#650=VERTEX_POINT('',#2031);
#651=VERTEX_POINT('',#2033);
#652=VERTEX_POINT('',#2035);
#653=VERTEX_POINT('',#2039);
#654=VERTEX_POINT('',#2041);
#655=VERTEX_POINT('',#2045);
#656=VERTEX_POINT('',#2047);
#657=VERTEX_POINT('',#2054);
#658=VERTEX_POINT('',#2055);
#659=VERTEX_POINT('',#2057);
#660=VERTEX_POINT('',#2059);
#661=VERTEX_POINT('',#2063);
#662=VERTEX_POINT('',#2065);
#663=VERTEX_POINT('',#2069);
#664=VERTEX_POINT('',#2071);
#665=VERTEX_POINT('',#2078);
#666=VERTEX_POINT('',#2080);
#667=VERTEX_POINT('',#2084);
#668=VERTEX_POINT('',#2086);
#669=VERTEX_POINT('',#2090);
#670=VERTEX_POINT('',#2092);
#671=VERTEX_POINT('',#2096);
#672=VERTEX_POINT('',#2098);
#673=VERTEX_POINT('',#2102);
#674=VERTEX_POINT('',#2103);
#675=VERTEX_POINT('',#2105);
#676=VERTEX_POINT('',#2107);
#677=VERTEX_POINT('',#2111);
#678=VERTEX_POINT('',#2113);
#679=VERTEX_POINT('',#2117);
#680=VERTEX_POINT('',#2119);
#681=EDGE_CURVE('',#561,#562,#233,.T.);
#682=EDGE_CURVE('',#563,#561,#234,.T.);
#683=EDGE_CURVE('',#564,#563,#235,.T.);
#684=EDGE_CURVE('',#562,#564,#236,.T.);
#685=EDGE_CURVE('',#565,#566,#237,.T.);
#686=EDGE_CURVE('',#565,#567,#238,.T.);
#687=EDGE_CURVE('',#568,#567,#239,.T.);
#688=EDGE_CURVE('',#566,#568,#240,.T.);
#689=EDGE_CURVE('',#569,#566,#241,.T.);
#690=EDGE_CURVE('',#570,#569,#242,.T.);
#691=EDGE_CURVE('',#570,#565,#243,.T.);
#692=EDGE_CURVE('',#571,#572,#244,.T.);
#693=EDGE_CURVE('',#571,#573,#245,.T.);
#694=EDGE_CURVE('',#573,#574,#246,.T.);
#695=EDGE_CURVE('',#572,#574,#247,.T.);
#696=EDGE_CURVE('',#575,#571,#248,.T.);
#697=EDGE_CURVE('',#575,#576,#249,.T.);
#698=EDGE_CURVE('',#576,#573,#250,.T.);
#699=EDGE_CURVE('',#577,#575,#251,.T.);
#700=EDGE_CURVE('',#578,#577,#252,.T.);
#701=EDGE_CURVE('',#578,#576,#253,.T.);
#702=EDGE_CURVE('',#574,#578,#254,.T.);
#703=EDGE_CURVE('',#567,#572,#255,.T.);
#704=EDGE_CURVE('',#579,#570,#256,.T.);
#705=EDGE_CURVE('',#580,#579,#257,.T.);
#706=EDGE_CURVE('',#581,#580,#258,.T.);
#707=EDGE_CURVE('',#562,#581,#259,.T.);
#708=EDGE_CURVE('',#577,#564,#260,.T.);
#709=EDGE_CURVE('',#581,#582,#261,.T.);
#710=EDGE_CURVE('',#561,#582,#262,.T.);
#711=EDGE_CURVE('',#580,#583,#263,.T.);
#712=EDGE_CURVE('',#582,#583,#264,.T.);
#713=EDGE_CURVE('',#584,#569,#265,.T.);
#714=EDGE_CURVE('',#579,#584,#266,.T.);
#715=EDGE_CURVE('',#583,#584,#267,.T.);
#716=EDGE_CURVE('',#585,#585,#49,.T.);
#717=EDGE_CURVE('',#585,#586,#268,.T.);
#718=EDGE_CURVE('',#586,#586,#50,.T.);
#719=EDGE_CURVE('',#587,#587,#51,.T.);
#720=EDGE_CURVE('',#587,#588,#269,.T.);
#721=EDGE_CURVE('',#588,#588,#52,.T.);
#722=EDGE_CURVE('',#589,#589,#53,.T.);
#723=EDGE_CURVE('',#589,#590,#270,.T.);
#724=EDGE_CURVE('',#590,#590,#54,.T.);
#725=EDGE_CURVE('',#591,#591,#55,.T.);
#726=EDGE_CURVE('',#591,#592,#271,.T.);
#727=EDGE_CURVE('',#592,#592,#56,.T.);
#728=EDGE_CURVE('',#593,#594,#272,.T.);
#729=EDGE_CURVE('',#593,#595,#273,.T.);
#730=EDGE_CURVE('',#596,#595,#274,.T.);
#731=EDGE_CURVE('',#594,#596,#275,.T.);
#732=EDGE_CURVE('',#597,#563,#276,.T.);
#733=EDGE_CURVE('',#598,#597,#277,.T.);
#734=EDGE_CURVE('',#594,#598,#278,.T.);
#735=EDGE_CURVE('',#568,#596,#279,.T.);
#736=EDGE_CURVE('',#599,#598,#280,.T.);
#737=EDGE_CURVE('',#600,#597,#281,.T.);
#738=EDGE_CURVE('',#599,#600,#282,.T.);
#739=EDGE_CURVE('',#593,#599,#283,.T.);
#740=EDGE_CURVE('',#595,#600,#284,.T.);
#741=EDGE_CURVE('',#601,#602,#285,.T.);
#742=EDGE_CURVE('',#602,#603,#286,.T.);
#743=EDGE_CURVE('',#604,#603,#287,.T.);
#744=EDGE_CURVE('',#601,#604,#288,.T.);
#745=EDGE_CURVE('',#605,#601,#289,.T.);
#746=EDGE_CURVE('',#606,#604,#290,.T.);
#747=EDGE_CURVE('',#605,#606,#291,.T.);
#748=EDGE_CURVE('',#607,#605,#292,.T.);
#749=EDGE_CURVE('',#608,#606,#293,.T.);
#750=EDGE_CURVE('',#607,#608,#294,.T.);
#751=EDGE_CURVE('',#602,#607,#295,.T.);
#752=EDGE_CURVE('',#603,#608,#296,.T.);
#753=EDGE_CURVE('',#609,#610,#297,.T.);
#754=EDGE_CURVE('',#610,#611,#298,.T.);
#755=EDGE_CURVE('',#612,#611,#299,.T.);
#756=EDGE_CURVE('',#609,#612,#300,.T.);
#757=EDGE_CURVE('',#613,#609,#301,.T.);
#758=EDGE_CURVE('',#614,#612,#302,.T.);
#759=EDGE_CURVE('',#613,#614,#303,.T.);
#760=EDGE_CURVE('',#615,#613,#304,.T.);
#761=EDGE_CURVE('',#616,#614,#305,.T.);
#762=EDGE_CURVE('',#615,#616,#306,.T.);
#763=EDGE_CURVE('',#610,#615,#307,.T.);
#764=EDGE_CURVE('',#611,#616,#308,.T.);
#765=EDGE_CURVE('',#617,#618,#309,.T.);
#766=EDGE_CURVE('',#618,#619,#310,.T.);
#767=EDGE_CURVE('',#620,#619,#311,.T.);
#768=EDGE_CURVE('',#617,#620,#312,.T.);
#769=EDGE_CURVE('',#621,#617,#313,.T.);
#770=EDGE_CURVE('',#622,#620,#314,.T.);
#771=EDGE_CURVE('',#621,#622,#315,.T.);
#772=EDGE_CURVE('',#623,#621,#316,.T.);
#773=EDGE_CURVE('',#624,#622,#317,.T.);
#774=EDGE_CURVE('',#623,#624,#318,.T.);
#775=EDGE_CURVE('',#618,#623,#319,.T.);
#776=EDGE_CURVE('',#619,#624,#320,.T.);
#777=EDGE_CURVE('',#625,#626,#321,.T.);
#778=EDGE_CURVE('',#626,#627,#322,.T.);
#779=EDGE_CURVE('',#628,#627,#323,.T.);
#780=EDGE_CURVE('',#625,#628,#324,.T.);
#781=EDGE_CURVE('',#629,#625,#325,.T.);
#782=EDGE_CURVE('',#630,#628,#326,.T.);
#783=EDGE_CURVE('',#629,#630,#327,.T.);
#784=EDGE_CURVE('',#631,#629,#328,.T.);
#785=EDGE_CURVE('',#632,#630,#329,.T.);
#786=EDGE_CURVE('',#631,#632,#330,.T.);
#787=EDGE_CURVE('',#626,#631,#331,.T.);
#788=EDGE_CURVE('',#627,#632,#332,.T.);
#789=EDGE_CURVE('',#633,#634,#333,.T.);
#790=EDGE_CURVE('',#634,#635,#334,.T.);
#791=EDGE_CURVE('',#636,#635,#335,.T.);
#792=EDGE_CURVE('',#633,#636,#336,.T.);
#793=EDGE_CURVE('',#637,#633,#337,.T.);
#794=EDGE_CURVE('',#638,#636,#338,.T.);
#795=EDGE_CURVE('',#637,#638,#339,.T.);
#796=EDGE_CURVE('',#639,#637,#340,.T.);
#797=EDGE_CURVE('',#640,#638,#341,.T.);
#798=EDGE_CURVE('',#639,#640,#342,.T.);
#799=EDGE_CURVE('',#634,#639,#343,.T.);
#800=EDGE_CURVE('',#635,#640,#344,.T.);
#801=EDGE_CURVE('',#641,#642,#345,.T.);
#802=EDGE_CURVE('',#642,#643,#346,.T.);
#803=EDGE_CURVE('',#644,#643,#347,.T.);
#804=EDGE_CURVE('',#641,#644,#348,.T.);
#805=EDGE_CURVE('',#645,#641,#349,.T.);
#806=EDGE_CURVE('',#646,#644,#350,.T.);
#807=EDGE_CURVE('',#645,#646,#351,.T.);
#808=EDGE_CURVE('',#647,#645,#352,.T.);
#809=EDGE_CURVE('',#648,#646,#353,.T.);
#810=EDGE_CURVE('',#647,#648,#354,.T.);
#811=EDGE_CURVE('',#642,#647,#355,.T.);
#812=EDGE_CURVE('',#643,#648,#356,.T.);
#813=EDGE_CURVE('',#649,#650,#357,.T.);
#814=EDGE_CURVE('',#650,#651,#358,.T.);
#815=EDGE_CURVE('',#652,#651,#359,.T.);
#816=EDGE_CURVE('',#649,#652,#360,.T.);
#817=EDGE_CURVE('',#653,#649,#361,.T.);
#818=EDGE_CURVE('',#654,#652,#362,.T.);
#819=EDGE_CURVE('',#653,#654,#363,.T.);
#820=EDGE_CURVE('',#655,#653,#364,.T.);
#821=EDGE_CURVE('',#656,#654,#365,.T.);
#822=EDGE_CURVE('',#655,#656,#366,.T.);
#823=EDGE_CURVE('',#650,#655,#367,.T.);
#824=EDGE_CURVE('',#651,#656,#368,.T.);
#825=EDGE_CURVE('',#657,#658,#369,.T.);
#826=EDGE_CURVE('',#658,#659,#370,.T.);
#827=EDGE_CURVE('',#660,#659,#371,.T.);
#828=EDGE_CURVE('',#657,#660,#372,.T.);
#829=EDGE_CURVE('',#661,#657,#373,.T.);
#830=EDGE_CURVE('',#662,#660,#374,.T.);
#831=EDGE_CURVE('',#661,#662,#375,.T.);
#832=EDGE_CURVE('',#663,#661,#376,.T.);
#833=EDGE_CURVE('',#664,#662,#377,.T.);
#834=EDGE_CURVE('',#663,#664,#378,.T.);
#835=EDGE_CURVE('',#658,#663,#379,.T.);
#836=EDGE_CURVE('',#659,#664,#380,.T.);
#837=EDGE_CURVE('',#665,#665,#57,.T.);
#838=EDGE_CURVE('',#665,#666,#381,.T.);
#839=EDGE_CURVE('',#666,#666,#58,.T.);
#840=EDGE_CURVE('',#667,#667,#59,.T.);
#841=EDGE_CURVE('',#667,#668,#382,.T.);
#842=EDGE_CURVE('',#668,#668,#60,.T.);
#843=EDGE_CURVE('',#669,#669,#61,.T.);
#844=EDGE_CURVE('',#669,#670,#383,.T.);
#845=EDGE_CURVE('',#670,#670,#62,.T.);
#846=EDGE_CURVE('',#671,#671,#63,.T.);
#847=EDGE_CURVE('',#671,#672,#384,.T.);
#848=EDGE_CURVE('',#672,#672,#64,.T.);
#849=EDGE_CURVE('',#673,#674,#385,.T.);
#850=EDGE_CURVE('',#673,#675,#386,.T.);
#851=EDGE_CURVE('',#676,#675,#387,.T.);
#852=EDGE_CURVE('',#674,#676,#388,.T.);
#853=EDGE_CURVE('',#674,#677,#389,.T.);
#854=EDGE_CURVE('',#678,#676,#390,.T.);
#855=EDGE_CURVE('',#677,#678,#391,.T.);
#856=EDGE_CURVE('',#679,#677,#392,.T.);
#857=EDGE_CURVE('',#680,#678,#393,.T.);
#858=EDGE_CURVE('',#679,#680,#394,.T.);
#859=EDGE_CURVE('',#673,#679,#395,.T.);
#860=EDGE_CURVE('',#675,#680,#396,.T.);
#861=ORIENTED_EDGE('',*,*,#681,.F.);
#862=ORIENTED_EDGE('',*,*,#682,.F.);
#863=ORIENTED_EDGE('',*,*,#683,.F.);
#864=ORIENTED_EDGE('',*,*,#684,.F.);
#865=ORIENTED_EDGE('',*,*,#685,.F.);
#866=ORIENTED_EDGE('',*,*,#686,.T.);
#867=ORIENTED_EDGE('',*,*,#687,.F.);
#868=ORIENTED_EDGE('',*,*,#688,.F.);
#869=ORIENTED_EDGE('',*,*,#685,.T.);
#870=ORIENTED_EDGE('',*,*,#689,.F.);
#871=ORIENTED_EDGE('',*,*,#690,.F.);
#872=ORIENTED_EDGE('',*,*,#691,.T.);
#873=ORIENTED_EDGE('',*,*,#692,.F.);
#874=ORIENTED_EDGE('',*,*,#693,.T.);
#875=ORIENTED_EDGE('',*,*,#694,.T.);
#876=ORIENTED_EDGE('',*,*,#695,.F.);
#877=ORIENTED_EDGE('',*,*,#696,.F.);
#878=ORIENTED_EDGE('',*,*,#697,.T.);
#879=ORIENTED_EDGE('',*,*,#698,.T.);
#880=ORIENTED_EDGE('',*,*,#693,.F.);
#881=ORIENTED_EDGE('',*,*,#699,.F.);
#882=ORIENTED_EDGE('',*,*,#700,.F.);
#883=ORIENTED_EDGE('',*,*,#701,.T.);
#884=ORIENTED_EDGE('',*,*,#697,.F.);
#885=ORIENTED_EDGE('',*,*,#701,.F.);
#886=ORIENTED_EDGE('',*,*,#702,.F.);
#887=ORIENTED_EDGE('',*,*,#694,.F.);
#888=ORIENTED_EDGE('',*,*,#698,.F.);
#889=ORIENTED_EDGE('',*,*,#699,.T.);
#890=ORIENTED_EDGE('',*,*,#696,.T.);
#891=ORIENTED_EDGE('',*,*,#692,.T.);
#892=ORIENTED_EDGE('',*,*,#703,.F.);
#893=ORIENTED_EDGE('',*,*,#686,.F.);
#894=ORIENTED_EDGE('',*,*,#691,.F.);
#895=ORIENTED_EDGE('',*,*,#704,.F.);
#896=ORIENTED_EDGE('',*,*,#705,.F.);
#897=ORIENTED_EDGE('',*,*,#706,.F.);
#898=ORIENTED_EDGE('',*,*,#707,.F.);
#899=ORIENTED_EDGE('',*,*,#684,.T.);
#900=ORIENTED_EDGE('',*,*,#708,.F.);
#901=ORIENTED_EDGE('',*,*,#681,.T.);
#902=ORIENTED_EDGE('',*,*,#707,.T.);
#903=ORIENTED_EDGE('',*,*,#709,.T.);
#904=ORIENTED_EDGE('',*,*,#710,.F.);
#905=ORIENTED_EDGE('',*,*,#706,.T.);
#906=ORIENTED_EDGE('',*,*,#711,.T.);
#907=ORIENTED_EDGE('',*,*,#712,.F.);
#908=ORIENTED_EDGE('',*,*,#709,.F.);
#909=ORIENTED_EDGE('',*,*,#704,.T.);
#910=ORIENTED_EDGE('',*,*,#690,.T.);
#911=ORIENTED_EDGE('',*,*,#713,.F.);
#912=ORIENTED_EDGE('',*,*,#714,.F.);
#913=ORIENTED_EDGE('',*,*,#705,.T.);
#914=ORIENTED_EDGE('',*,*,#714,.T.);
#915=ORIENTED_EDGE('',*,*,#715,.F.);
#916=ORIENTED_EDGE('',*,*,#711,.F.);
#917=ORIENTED_EDGE('',*,*,#716,.F.);
#918=ORIENTED_EDGE('',*,*,#717,.T.);
#919=ORIENTED_EDGE('',*,*,#718,.T.);
#920=ORIENTED_EDGE('',*,*,#717,.F.);
#921=ORIENTED_EDGE('',*,*,#719,.F.);
#922=ORIENTED_EDGE('',*,*,#720,.T.);
#923=ORIENTED_EDGE('',*,*,#721,.T.);
#924=ORIENTED_EDGE('',*,*,#720,.F.);
#925=ORIENTED_EDGE('',*,*,#722,.F.);
#926=ORIENTED_EDGE('',*,*,#723,.T.);
#927=ORIENTED_EDGE('',*,*,#724,.T.);
#928=ORIENTED_EDGE('',*,*,#723,.F.);
#929=ORIENTED_EDGE('',*,*,#725,.F.);
#930=ORIENTED_EDGE('',*,*,#726,.T.);
#931=ORIENTED_EDGE('',*,*,#727,.T.);
#932=ORIENTED_EDGE('',*,*,#726,.F.);
#933=ORIENTED_EDGE('',*,*,#728,.F.);
#934=ORIENTED_EDGE('',*,*,#729,.T.);
#935=ORIENTED_EDGE('',*,*,#730,.F.);
#936=ORIENTED_EDGE('',*,*,#731,.F.);
#937=ORIENTED_EDGE('',*,*,#683,.T.);
#938=ORIENTED_EDGE('',*,*,#732,.F.);
#939=ORIENTED_EDGE('',*,*,#733,.F.);
#940=ORIENTED_EDGE('',*,*,#734,.F.);
#941=ORIENTED_EDGE('',*,*,#731,.T.);
#942=ORIENTED_EDGE('',*,*,#735,.F.);
#943=ORIENTED_EDGE('',*,*,#687,.T.);
#944=ORIENTED_EDGE('',*,*,#703,.T.);
#945=ORIENTED_EDGE('',*,*,#695,.T.);
#946=ORIENTED_EDGE('',*,*,#702,.T.);
#947=ORIENTED_EDGE('',*,*,#700,.T.);
#948=ORIENTED_EDGE('',*,*,#708,.T.);
#949=ORIENTED_EDGE('',*,*,#736,.T.);
#950=ORIENTED_EDGE('',*,*,#733,.T.);
#951=ORIENTED_EDGE('',*,*,#737,.F.);
#952=ORIENTED_EDGE('',*,*,#738,.F.);
#953=ORIENTED_EDGE('',*,*,#739,.T.);
#954=ORIENTED_EDGE('',*,*,#738,.T.);
#955=ORIENTED_EDGE('',*,*,#740,.F.);
#956=ORIENTED_EDGE('',*,*,#729,.F.);
#957=ORIENTED_EDGE('',*,*,#682,.T.);
#958=ORIENTED_EDGE('',*,*,#710,.T.);
#959=ORIENTED_EDGE('',*,*,#712,.T.);
#960=ORIENTED_EDGE('',*,*,#715,.T.);
#961=ORIENTED_EDGE('',*,*,#713,.T.);
#962=ORIENTED_EDGE('',*,*,#689,.T.);
#963=ORIENTED_EDGE('',*,*,#688,.T.);
#964=ORIENTED_EDGE('',*,*,#735,.T.);
#965=ORIENTED_EDGE('',*,*,#730,.T.);
#966=ORIENTED_EDGE('',*,*,#740,.T.);
#967=ORIENTED_EDGE('',*,*,#737,.T.);
#968=ORIENTED_EDGE('',*,*,#732,.T.);
#969=ORIENTED_EDGE('',*,*,#725,.T.);
#970=ORIENTED_EDGE('',*,*,#722,.T.);
#971=ORIENTED_EDGE('',*,*,#719,.T.);
#972=ORIENTED_EDGE('',*,*,#716,.T.);
#973=ORIENTED_EDGE('',*,*,#739,.F.);
#974=ORIENTED_EDGE('',*,*,#728,.T.);
#975=ORIENTED_EDGE('',*,*,#734,.T.);
#976=ORIENTED_EDGE('',*,*,#736,.F.);
#977=ORIENTED_EDGE('',*,*,#727,.F.);
#978=ORIENTED_EDGE('',*,*,#724,.F.);
#979=ORIENTED_EDGE('',*,*,#721,.F.);
#980=ORIENTED_EDGE('',*,*,#718,.F.);
#981=ORIENTED_EDGE('',*,*,#741,.T.);
#982=ORIENTED_EDGE('',*,*,#742,.T.);
#983=ORIENTED_EDGE('',*,*,#743,.F.);
#984=ORIENTED_EDGE('',*,*,#744,.F.);
#985=ORIENTED_EDGE('',*,*,#745,.T.);
#986=ORIENTED_EDGE('',*,*,#744,.T.);
#987=ORIENTED_EDGE('',*,*,#746,.F.);
#988=ORIENTED_EDGE('',*,*,#747,.F.);
#989=ORIENTED_EDGE('',*,*,#748,.T.);
#990=ORIENTED_EDGE('',*,*,#747,.T.);
#991=ORIENTED_EDGE('',*,*,#749,.F.);
#992=ORIENTED_EDGE('',*,*,#750,.F.);
#993=ORIENTED_EDGE('',*,*,#751,.T.);
#994=ORIENTED_EDGE('',*,*,#750,.T.);
#995=ORIENTED_EDGE('',*,*,#752,.F.);
#996=ORIENTED_EDGE('',*,*,#742,.F.);
#997=ORIENTED_EDGE('',*,*,#753,.T.);
#998=ORIENTED_EDGE('',*,*,#754,.T.);
#999=ORIENTED_EDGE('',*,*,#755,.F.);
#1000=ORIENTED_EDGE('',*,*,#756,.F.);
#1001=ORIENTED_EDGE('',*,*,#757,.T.);
#1002=ORIENTED_EDGE('',*,*,#756,.T.);
#1003=ORIENTED_EDGE('',*,*,#758,.F.);
#1004=ORIENTED_EDGE('',*,*,#759,.F.);
#1005=ORIENTED_EDGE('',*,*,#760,.T.);
#1006=ORIENTED_EDGE('',*,*,#759,.T.);
#1007=ORIENTED_EDGE('',*,*,#761,.F.);
#1008=ORIENTED_EDGE('',*,*,#762,.F.);
#1009=ORIENTED_EDGE('',*,*,#763,.T.);
#1010=ORIENTED_EDGE('',*,*,#762,.T.);
#1011=ORIENTED_EDGE('',*,*,#764,.F.);
#1012=ORIENTED_EDGE('',*,*,#754,.F.);
#1013=ORIENTED_EDGE('',*,*,#765,.T.);
#1014=ORIENTED_EDGE('',*,*,#766,.T.);
#1015=ORIENTED_EDGE('',*,*,#767,.F.);
#1016=ORIENTED_EDGE('',*,*,#768,.F.);
#1017=ORIENTED_EDGE('',*,*,#769,.T.);
#1018=ORIENTED_EDGE('',*,*,#768,.T.);
#1019=ORIENTED_EDGE('',*,*,#770,.F.);
#1020=ORIENTED_EDGE('',*,*,#771,.F.);
#1021=ORIENTED_EDGE('',*,*,#772,.T.);
#1022=ORIENTED_EDGE('',*,*,#771,.T.);
#1023=ORIENTED_EDGE('',*,*,#773,.F.);
#1024=ORIENTED_EDGE('',*,*,#774,.F.);
#1025=ORIENTED_EDGE('',*,*,#775,.T.);
#1026=ORIENTED_EDGE('',*,*,#774,.T.);
#1027=ORIENTED_EDGE('',*,*,#776,.F.);
#1028=ORIENTED_EDGE('',*,*,#766,.F.);
#1029=ORIENTED_EDGE('',*,*,#777,.T.);
#1030=ORIENTED_EDGE('',*,*,#778,.T.);
#1031=ORIENTED_EDGE('',*,*,#779,.F.);
#1032=ORIENTED_EDGE('',*,*,#780,.F.);
#1033=ORIENTED_EDGE('',*,*,#781,.T.);
#1034=ORIENTED_EDGE('',*,*,#780,.T.);
#1035=ORIENTED_EDGE('',*,*,#782,.F.);
#1036=ORIENTED_EDGE('',*,*,#783,.F.);
#1037=ORIENTED_EDGE('',*,*,#784,.T.);
#1038=ORIENTED_EDGE('',*,*,#783,.T.);
#1039=ORIENTED_EDGE('',*,*,#785,.F.);
#1040=ORIENTED_EDGE('',*,*,#786,.F.);
#1041=ORIENTED_EDGE('',*,*,#787,.T.);
#1042=ORIENTED_EDGE('',*,*,#786,.T.);
#1043=ORIENTED_EDGE('',*,*,#788,.F.);
#1044=ORIENTED_EDGE('',*,*,#778,.F.);
#1045=ORIENTED_EDGE('',*,*,#789,.T.);
#1046=ORIENTED_EDGE('',*,*,#790,.T.);
#1047=ORIENTED_EDGE('',*,*,#791,.F.);
#1048=ORIENTED_EDGE('',*,*,#792,.F.);
#1049=ORIENTED_EDGE('',*,*,#793,.T.);
#1050=ORIENTED_EDGE('',*,*,#792,.T.);
#1051=ORIENTED_EDGE('',*,*,#794,.F.);
#1052=ORIENTED_EDGE('',*,*,#795,.F.);
#1053=ORIENTED_EDGE('',*,*,#796,.T.);
#1054=ORIENTED_EDGE('',*,*,#795,.T.);
#1055=ORIENTED_EDGE('',*,*,#797,.F.);
#1056=ORIENTED_EDGE('',*,*,#798,.F.);
#1057=ORIENTED_EDGE('',*,*,#799,.T.);
#1058=ORIENTED_EDGE('',*,*,#798,.T.);
#1059=ORIENTED_EDGE('',*,*,#800,.F.);
#1060=ORIENTED_EDGE('',*,*,#790,.F.);
#1061=ORIENTED_EDGE('',*,*,#801,.T.);
#1062=ORIENTED_EDGE('',*,*,#802,.T.);
#1063=ORIENTED_EDGE('',*,*,#803,.F.);
#1064=ORIENTED_EDGE('',*,*,#804,.F.);
#1065=ORIENTED_EDGE('',*,*,#805,.T.);
#1066=ORIENTED_EDGE('',*,*,#804,.T.);
#1067=ORIENTED_EDGE('',*,*,#806,.F.);
#1068=ORIENTED_EDGE('',*,*,#807,.F.);
#1069=ORIENTED_EDGE('',*,*,#808,.T.);
#1070=ORIENTED_EDGE('',*,*,#807,.T.);
#1071=ORIENTED_EDGE('',*,*,#809,.F.);
#1072=ORIENTED_EDGE('',*,*,#810,.F.);
#1073=ORIENTED_EDGE('',*,*,#811,.T.);
#1074=ORIENTED_EDGE('',*,*,#810,.T.);
#1075=ORIENTED_EDGE('',*,*,#812,.F.);
#1076=ORIENTED_EDGE('',*,*,#802,.F.);
#1077=ORIENTED_EDGE('',*,*,#813,.T.);
#1078=ORIENTED_EDGE('',*,*,#814,.T.);
#1079=ORIENTED_EDGE('',*,*,#815,.F.);
#1080=ORIENTED_EDGE('',*,*,#816,.F.);
#1081=ORIENTED_EDGE('',*,*,#817,.T.);
#1082=ORIENTED_EDGE('',*,*,#816,.T.);
#1083=ORIENTED_EDGE('',*,*,#818,.F.);
#1084=ORIENTED_EDGE('',*,*,#819,.F.);
#1085=ORIENTED_EDGE('',*,*,#820,.T.);
#1086=ORIENTED_EDGE('',*,*,#819,.T.);
#1087=ORIENTED_EDGE('',*,*,#821,.F.);
#1088=ORIENTED_EDGE('',*,*,#822,.F.);
#1089=ORIENTED_EDGE('',*,*,#823,.T.);
#1090=ORIENTED_EDGE('',*,*,#822,.T.);
#1091=ORIENTED_EDGE('',*,*,#824,.F.);
#1092=ORIENTED_EDGE('',*,*,#814,.F.);
#1093=ORIENTED_EDGE('',*,*,#825,.T.);
#1094=ORIENTED_EDGE('',*,*,#826,.T.);
#1095=ORIENTED_EDGE('',*,*,#827,.F.);
#1096=ORIENTED_EDGE('',*,*,#828,.F.);
#1097=ORIENTED_EDGE('',*,*,#829,.T.);
#1098=ORIENTED_EDGE('',*,*,#828,.T.);
#1099=ORIENTED_EDGE('',*,*,#830,.F.);
#1100=ORIENTED_EDGE('',*,*,#831,.F.);
#1101=ORIENTED_EDGE('',*,*,#832,.T.);
#1102=ORIENTED_EDGE('',*,*,#831,.T.);
#1103=ORIENTED_EDGE('',*,*,#833,.F.);
#1104=ORIENTED_EDGE('',*,*,#834,.F.);
#1105=ORIENTED_EDGE('',*,*,#835,.T.);
#1106=ORIENTED_EDGE('',*,*,#834,.T.);
#1107=ORIENTED_EDGE('',*,*,#836,.F.);
#1108=ORIENTED_EDGE('',*,*,#826,.F.);
#1109=ORIENTED_EDGE('',*,*,#837,.F.);
#1110=ORIENTED_EDGE('',*,*,#838,.T.);
#1111=ORIENTED_EDGE('',*,*,#839,.T.);
#1112=ORIENTED_EDGE('',*,*,#838,.F.);
#1113=ORIENTED_EDGE('',*,*,#840,.F.);
#1114=ORIENTED_EDGE('',*,*,#841,.T.);
#1115=ORIENTED_EDGE('',*,*,#842,.T.);
#1116=ORIENTED_EDGE('',*,*,#841,.F.);
#1117=ORIENTED_EDGE('',*,*,#843,.F.);
#1118=ORIENTED_EDGE('',*,*,#844,.T.);
#1119=ORIENTED_EDGE('',*,*,#845,.T.);
#1120=ORIENTED_EDGE('',*,*,#844,.F.);
#1121=ORIENTED_EDGE('',*,*,#846,.F.);
#1122=ORIENTED_EDGE('',*,*,#847,.T.);
#1123=ORIENTED_EDGE('',*,*,#848,.T.);
#1124=ORIENTED_EDGE('',*,*,#847,.F.);
#1125=ORIENTED_EDGE('',*,*,#849,.F.);
#1126=ORIENTED_EDGE('',*,*,#850,.T.);
#1127=ORIENTED_EDGE('',*,*,#851,.F.);
#1128=ORIENTED_EDGE('',*,*,#852,.F.);
#1129=ORIENTED_EDGE('',*,*,#853,.F.);
#1130=ORIENTED_EDGE('',*,*,#852,.T.);
#1131=ORIENTED_EDGE('',*,*,#854,.F.);
#1132=ORIENTED_EDGE('',*,*,#855,.F.);
#1133=ORIENTED_EDGE('',*,*,#856,.T.);
#1134=ORIENTED_EDGE('',*,*,#855,.T.);
#1135=ORIENTED_EDGE('',*,*,#857,.F.);
#1136=ORIENTED_EDGE('',*,*,#858,.F.);
#1137=ORIENTED_EDGE('',*,*,#859,.T.);
#1138=ORIENTED_EDGE('',*,*,#858,.T.);
#1139=ORIENTED_EDGE('',*,*,#860,.F.);
#1140=ORIENTED_EDGE('',*,*,#850,.F.);
#1141=ORIENTED_EDGE('',*,*,#860,.T.);
#1142=ORIENTED_EDGE('',*,*,#857,.T.);
#1143=ORIENTED_EDGE('',*,*,#854,.T.);
#1144=ORIENTED_EDGE('',*,*,#851,.T.);
#1145=ORIENTED_EDGE('',*,*,#752,.T.);
#1146=ORIENTED_EDGE('',*,*,#749,.T.);
#1147=ORIENTED_EDGE('',*,*,#746,.T.);
#1148=ORIENTED_EDGE('',*,*,#743,.T.);
#1149=ORIENTED_EDGE('',*,*,#764,.T.);
#1150=ORIENTED_EDGE('',*,*,#761,.T.);
#1151=ORIENTED_EDGE('',*,*,#758,.T.);
#1152=ORIENTED_EDGE('',*,*,#755,.T.);
#1153=ORIENTED_EDGE('',*,*,#776,.T.);
#1154=ORIENTED_EDGE('',*,*,#773,.T.);
#1155=ORIENTED_EDGE('',*,*,#770,.T.);
#1156=ORIENTED_EDGE('',*,*,#767,.T.);
#1157=ORIENTED_EDGE('',*,*,#788,.T.);
#1158=ORIENTED_EDGE('',*,*,#785,.T.);
#1159=ORIENTED_EDGE('',*,*,#782,.T.);
#1160=ORIENTED_EDGE('',*,*,#779,.T.);
#1161=ORIENTED_EDGE('',*,*,#800,.T.);
#1162=ORIENTED_EDGE('',*,*,#797,.T.);
#1163=ORIENTED_EDGE('',*,*,#794,.T.);
#1164=ORIENTED_EDGE('',*,*,#791,.T.);
#1165=ORIENTED_EDGE('',*,*,#812,.T.);
#1166=ORIENTED_EDGE('',*,*,#809,.T.);
#1167=ORIENTED_EDGE('',*,*,#806,.T.);
#1168=ORIENTED_EDGE('',*,*,#803,.T.);
#1169=ORIENTED_EDGE('',*,*,#824,.T.);
#1170=ORIENTED_EDGE('',*,*,#821,.T.);
#1171=ORIENTED_EDGE('',*,*,#818,.T.);
#1172=ORIENTED_EDGE('',*,*,#815,.T.);
#1173=ORIENTED_EDGE('',*,*,#836,.T.);
#1174=ORIENTED_EDGE('',*,*,#833,.T.);
#1175=ORIENTED_EDGE('',*,*,#830,.T.);
#1176=ORIENTED_EDGE('',*,*,#827,.T.);
#1177=ORIENTED_EDGE('',*,*,#846,.T.);
#1178=ORIENTED_EDGE('',*,*,#843,.T.);
#1179=ORIENTED_EDGE('',*,*,#840,.T.);
#1180=ORIENTED_EDGE('',*,*,#837,.T.);
#1181=ORIENTED_EDGE('',*,*,#859,.F.);
#1182=ORIENTED_EDGE('',*,*,#849,.T.);
#1183=ORIENTED_EDGE('',*,*,#853,.T.);
#1184=ORIENTED_EDGE('',*,*,#856,.F.);
#1185=ORIENTED_EDGE('',*,*,#751,.F.);
#1186=ORIENTED_EDGE('',*,*,#741,.F.);
#1187=ORIENTED_EDGE('',*,*,#745,.F.);
#1188=ORIENTED_EDGE('',*,*,#748,.F.);
#1189=ORIENTED_EDGE('',*,*,#763,.F.);
#1190=ORIENTED_EDGE('',*,*,#753,.F.);
#1191=ORIENTED_EDGE('',*,*,#757,.F.);
#1192=ORIENTED_EDGE('',*,*,#760,.F.);
#1193=ORIENTED_EDGE('',*,*,#775,.F.);
#1194=ORIENTED_EDGE('',*,*,#765,.F.);
#1195=ORIENTED_EDGE('',*,*,#769,.F.);
#1196=ORIENTED_EDGE('',*,*,#772,.F.);
#1197=ORIENTED_EDGE('',*,*,#787,.F.);
#1198=ORIENTED_EDGE('',*,*,#777,.F.);
#1199=ORIENTED_EDGE('',*,*,#781,.F.);
#1200=ORIENTED_EDGE('',*,*,#784,.F.);
#1201=ORIENTED_EDGE('',*,*,#799,.F.);
#1202=ORIENTED_EDGE('',*,*,#789,.F.);
#1203=ORIENTED_EDGE('',*,*,#793,.F.);
#1204=ORIENTED_EDGE('',*,*,#796,.F.);
#1205=ORIENTED_EDGE('',*,*,#811,.F.);
#1206=ORIENTED_EDGE('',*,*,#801,.F.);
#1207=ORIENTED_EDGE('',*,*,#805,.F.);
#1208=ORIENTED_EDGE('',*,*,#808,.F.);
#1209=ORIENTED_EDGE('',*,*,#823,.F.);
#1210=ORIENTED_EDGE('',*,*,#813,.F.);
#1211=ORIENTED_EDGE('',*,*,#817,.F.);
#1212=ORIENTED_EDGE('',*,*,#820,.F.);
#1213=ORIENTED_EDGE('',*,*,#835,.F.);
#1214=ORIENTED_EDGE('',*,*,#825,.F.);
#1215=ORIENTED_EDGE('',*,*,#829,.F.);
#1216=ORIENTED_EDGE('',*,*,#832,.F.);
#1217=ORIENTED_EDGE('',*,*,#848,.F.);
#1218=ORIENTED_EDGE('',*,*,#845,.F.);
#1219=ORIENTED_EDGE('',*,*,#842,.F.);
#1220=ORIENTED_EDGE('',*,*,#839,.F.);
#1221=PLANE('',#1356);
#1222=PLANE('',#1357);
#1223=PLANE('',#1358);
#1224=PLANE('',#1359);
#1225=PLANE('',#1360);
#1226=PLANE('',#1361);
#1227=PLANE('',#1362);
#1228=PLANE('',#1363);
#1229=PLANE('',#1364);
#1230=PLANE('',#1365);
#1231=PLANE('',#1366);
#1232=PLANE('',#1367);
#1233=PLANE('',#1380);
#1234=PLANE('',#1381);
#1235=PLANE('',#1382);
#1236=PLANE('',#1383);
#1237=PLANE('',#1384);
#1238=PLANE('',#1385);
#1239=PLANE('',#1386);
#1240=PLANE('',#1387);
#1241=PLANE('',#1388);
#1242=PLANE('',#1389);
#1243=PLANE('',#1390);
#1244=PLANE('',#1391);
#1245=PLANE('',#1392);
#1246=PLANE('',#1393);
#1247=PLANE('',#1394);
#1248=PLANE('',#1395);
#1249=PLANE('',#1396);
#1250=PLANE('',#1397);
#1251=PLANE('',#1398);
#1252=PLANE('',#1399);
#1253=PLANE('',#1400);
#1254=PLANE('',#1401);
#1255=PLANE('',#1402);
#1256=PLANE('',#1403);
#1257=PLANE('',#1404);
#1258=PLANE('',#1405);
#1259=PLANE('',#1406);
#1260=PLANE('',#1407);
#1261=PLANE('',#1408);
#1262=PLANE('',#1409);
#1263=PLANE('',#1410);
#1264=PLANE('',#1411);
#1265=PLANE('',#1412);
#1266=PLANE('',#1413);
#1267=PLANE('',#1414);
#1268=PLANE('',#1415);
#1269=PLANE('',#1416);
#1270=PLANE('',#1417);
#1271=PLANE('',#1430);
#1272=PLANE('',#1431);
#1273=PLANE('',#1432);
#1274=PLANE('',#1433);
#1275=PLANE('',#1434);
#1276=PLANE('',#1435);
#1277=ADVANCED_FACE('',(#73),#1221,.F.);
#1278=ADVANCED_FACE('',(#74),#1222,.F.);
#1279=ADVANCED_FACE('',(#75),#1223,.T.);
#1280=ADVANCED_FACE('',(#76),#1224,.F.);
#1281=ADVANCED_FACE('',(#77),#1225,.F.);
#1282=ADVANCED_FACE('',(#78),#1226,.F.);
#1283=ADVANCED_FACE('',(#79),#1227,.F.);
#1284=ADVANCED_FACE('',(#80),#1228,.T.);
#1285=ADVANCED_FACE('',(#81),#1229,.T.);
#1286=ADVANCED_FACE('',(#82),#1230,.T.);
#1287=ADVANCED_FACE('',(#83),#1231,.T.);
#1288=ADVANCED_FACE('',(#84),#1232,.T.);
#1289=ADVANCED_FACE('',(#85),#65,.F.);
#1290=ADVANCED_FACE('',(#86),#66,.F.);
#1291=ADVANCED_FACE('',(#87),#67,.F.);
#1292=ADVANCED_FACE('',(#88),#68,.F.);
#1293=ADVANCED_FACE('',(#89),#1233,.T.);
#1294=ADVANCED_FACE('',(#90),#1234,.T.);
#1295=ADVANCED_FACE('',(#91),#1235,.T.);
#1296=ADVANCED_FACE('',(#92),#1236,.T.);
#1297=ADVANCED_FACE('',(#93,#17,#18,#19,#20),#1237,.T.);
#1298=ADVANCED_FACE('',(#94,#21,#22,#23,#24),#1238,.F.);
#1299=ADVANCED_FACE('',(#95),#1239,.T.);
#1300=ADVANCED_FACE('',(#96),#1240,.T.);
#1301=ADVANCED_FACE('',(#97),#1241,.T.);
#1302=ADVANCED_FACE('',(#98),#1242,.T.);
#1303=ADVANCED_FACE('',(#99),#1243,.T.);
#1304=ADVANCED_FACE('',(#100),#1244,.T.);
#1305=ADVANCED_FACE('',(#101),#1245,.T.);
#1306=ADVANCED_FACE('',(#102),#1246,.T.);
#1307=ADVANCED_FACE('',(#103),#1247,.T.);
#1308=ADVANCED_FACE('',(#104),#1248,.T.);
#1309=ADVANCED_FACE('',(#105),#1249,.T.);
#1310=ADVANCED_FACE('',(#106),#1250,.T.);
#1311=ADVANCED_FACE('',(#107),#1251,.T.);
#1312=ADVANCED_FACE('',(#108),#1252,.T.);
#1313=ADVANCED_FACE('',(#109),#1253,.T.);
#1314=ADVANCED_FACE('',(#110),#1254,.T.);
#1315=ADVANCED_FACE('',(#111),#1255,.T.);
#1316=ADVANCED_FACE('',(#112),#1256,.T.);
#1317=ADVANCED_FACE('',(#113),#1257,.T.);
#1318=ADVANCED_FACE('',(#114),#1258,.T.);
#1319=ADVANCED_FACE('',(#115),#1259,.T.);
#1320=ADVANCED_FACE('',(#116),#1260,.T.);
#1321=ADVANCED_FACE('',(#117),#1261,.T.);
#1322=ADVANCED_FACE('',(#118),#1262,.T.);
#1323=ADVANCED_FACE('',(#119),#1263,.T.);
#1324=ADVANCED_FACE('',(#120),#1264,.T.);
#1325=ADVANCED_FACE('',(#121),#1265,.T.);
#1326=ADVANCED_FACE('',(#122),#1266,.T.);
#1327=ADVANCED_FACE('',(#123),#1267,.T.);
#1328=ADVANCED_FACE('',(#124),#1268,.T.);
#1329=ADVANCED_FACE('',(#125),#1269,.T.);
#1330=ADVANCED_FACE('',(#126),#1270,.T.);
#1331=ADVANCED_FACE('',(#127),#69,.F.);
#1332=ADVANCED_FACE('',(#128),#70,.F.);
#1333=ADVANCED_FACE('',(#129),#71,.F.);
#1334=ADVANCED_FACE('',(#130),#72,.F.);
#1335=ADVANCED_FACE('',(#131),#1271,.T.);
#1336=ADVANCED_FACE('',(#132),#1272,.T.);
#1337=ADVANCED_FACE('',(#133),#1273,.T.);
#1338=ADVANCED_FACE('',(#134),#1274,.T.);
#1339=ADVANCED_FACE('',(#135,#25,#26,#27,#28,#29,#30,#31,#32,#33,#34,#35,
#36),#1275,.T.);
#1340=ADVANCED_FACE('',(#136,#37,#38,#39,#40,#41,#42,#43,#44,#45,#46,#47,
#48),#1276,.F.);
#1341=CLOSED_SHELL('',(#1277,#1278,#1279,#1280,#1281,#1282,#1283,#1284,
#1285,#1286,#1287,#1288,#1289,#1290,#1291,#1292,#1293,#1294,#1295,#1296,
#1297,#1298));
#1342=CLOSED_SHELL('',(#1299,#1300,#1301,#1302,#1303,#1304,#1305,#1306,
#1307,#1308,#1309,#1310,#1311,#1312,#1313,#1314,#1315,#1316,#1317,#1318,
#1319,#1320,#1321,#1322,#1323,#1324,#1325,#1326,#1327,#1328,#1329,#1330,
#1331,#1332,#1333,#1334,#1335,#1336,#1337,#1338,#1339,#1340));
#1343=DERIVED_UNIT_ELEMENT(#1345,1.);
#1344=DERIVED_UNIT_ELEMENT(#2132,-3.);
#1345=(
MASS_UNIT()
NAMED_UNIT(*)
SI_UNIT(.KILO.,.GRAM.)
);
#1346=DERIVED_UNIT((#1343,#1344));
#1347=MEASURE_REPRESENTATION_ITEM('density measure',
POSITIVE_RATIO_MEASURE(7850.),#1346);
#1348=PROPERTY_DEFINITION_REPRESENTATION(#1353,#1350);
#1349=PROPERTY_DEFINITION_REPRESENTATION(#1354,#1351);
#1350=REPRESENTATION('material name',(#1352),#2129);
#1351=REPRESENTATION('density',(#1347),#2129);
#1352=DESCRIPTIVE_REPRESENTATION_ITEM('Steel','Steel');
#1353=PROPERTY_DEFINITION('material property','material name',#2139);
#1354=PROPERTY_DEFINITION('material property','density of part',#2139);
#1355=AXIS2_PLACEMENT_3D('',#1762,#1436,#1437);
#1356=AXIS2_PLACEMENT_3D('',#1763,#1438,#1439);
#1357=AXIS2_PLACEMENT_3D('',#1772,#1444,#1445);
#1358=AXIS2_PLACEMENT_3D('',#1781,#1450,#1451);
#1359=AXIS2_PLACEMENT_3D('',#1787,#1455,#1456);
#1360=AXIS2_PLACEMENT_3D('',#1796,#1461,#1462);
#1361=AXIS2_PLACEMENT_3D('',#1802,#1466,#1467);
#1362=AXIS2_PLACEMENT_3D('',#1808,#1471,#1472);
#1363=AXIS2_PLACEMENT_3D('',#1810,#1474,#1475);
#1364=AXIS2_PLACEMENT_3D('',#1820,#1482,#1483);
#1365=AXIS2_PLACEMENT_3D('',#1824,#1486,#1487);
#1366=AXIS2_PLACEMENT_3D('',#1828,#1490,#1491);
#1367=AXIS2_PLACEMENT_3D('',#1832,#1494,#1495);
#1368=AXIS2_PLACEMENT_3D('',#1834,#1497,#1498);
#1369=AXIS2_PLACEMENT_3D('',#1836,#1499,#1500);
#1370=AXIS2_PLACEMENT_3D('',#1839,#1502,#1503);
#1371=AXIS2_PLACEMENT_3D('',#1840,#1504,#1505);
#1372=AXIS2_PLACEMENT_3D('',#1842,#1506,#1507);
#1373=AXIS2_PLACEMENT_3D('',#1845,#1509,#1510);
#1374=AXIS2_PLACEMENT_3D('',#1846,#1511,#1512);
#1375=AXIS2_PLACEMENT_3D('',#1848,#1513,#1514);
#1376=AXIS2_PLACEMENT_3D('',#1851,#1516,#1517);
#1377=AXIS2_PLACEMENT_3D('',#1852,#1518,#1519);
#1378=AXIS2_PLACEMENT_3D('',#1854,#1520,#1521);
#1379=AXIS2_PLACEMENT_3D('',#1857,#1523,#1524);
#1380=AXIS2_PLACEMENT_3D('',#1858,#1525,#1526);
#1381=AXIS2_PLACEMENT_3D('',#1867,#1531,#1532);
#1382=AXIS2_PLACEMENT_3D('',#1874,#1537,#1538);
#1383=AXIS2_PLACEMENT_3D('',#1880,#1542,#1543);
#1384=AXIS2_PLACEMENT_3D('',#1883,#1546,#1547);
#1385=AXIS2_PLACEMENT_3D('',#1884,#1548,#1549);
#1386=AXIS2_PLACEMENT_3D('',#1885,#1550,#1551);
#1387=AXIS2_PLACEMENT_3D('',#1894,#1556,#1557);
#1388=AXIS2_PLACEMENT_3D('',#1900,#1561,#1562);
#1389=AXIS2_PLACEMENT_3D('',#1906,#1566,#1567);
#1390=AXIS2_PLACEMENT_3D('',#1909,#1570,#1571);
#1391=AXIS2_PLACEMENT_3D('',#1918,#1576,#1577);
#1392=AXIS2_PLACEMENT_3D('',#1924,#1581,#1582);
#1393=AXIS2_PLACEMENT_3D('',#1930,#1586,#1587);
#1394=AXIS2_PLACEMENT_3D('',#1933,#1590,#1591);
#1395=AXIS2_PLACEMENT_3D('',#1942,#1596,#1597);
#1396=AXIS2_PLACEMENT_3D('',#1948,#1601,#1602);
#1397=AXIS2_PLACEMENT_3D('',#1954,#1606,#1607);
#1398=AXIS2_PLACEMENT_3D('',#1957,#1610,#1611);
#1399=AXIS2_PLACEMENT_3D('',#1966,#1616,#1617);
#1400=AXIS2_PLACEMENT_3D('',#1972,#1621,#1622);
#1401=AXIS2_PLACEMENT_3D('',#1978,#1626,#1627);
#1402=AXIS2_PLACEMENT_3D('',#1981,#1630,#1631);
#1403=AXIS2_PLACEMENT_3D('',#1990,#1636,#1637);
#1404=AXIS2_PLACEMENT_3D('',#1996,#1641,#1642);
#1405=AXIS2_PLACEMENT_3D('',#2002,#1646,#1647);
#1406=AXIS2_PLACEMENT_3D('',#2005,#1650,#1651);
#1407=AXIS2_PLACEMENT_3D('',#2014,#1656,#1657);
#1408=AXIS2_PLACEMENT_3D('',#2020,#1661,#1662);
#1409=AXIS2_PLACEMENT_3D('',#2026,#1666,#1667);
#1410=AXIS2_PLACEMENT_3D('',#2029,#1670,#1671);
#1411=AXIS2_PLACEMENT_3D('',#2038,#1676,#1677);
#1412=AXIS2_PLACEMENT_3D('',#2044,#1681,#1682);
#1413=AXIS2_PLACEMENT_3D('',#2050,#1686,#1687);
#1414=AXIS2_PLACEMENT_3D('',#2053,#1690,#1691);
#1415=AXIS2_PLACEMENT_3D('',#2062,#1696,#1697);
#1416=AXIS2_PLACEMENT_3D('',#2068,#1701,#1702);
#1417=AXIS2_PLACEMENT_3D('',#2074,#1706,#1707);
#1418=AXIS2_PLACEMENT_3D('',#2077,#1710,#1711);
#1419=AXIS2_PLACEMENT_3D('',#2079,#1712,#1713);
#1420=AXIS2_PLACEMENT_3D('',#2082,#1715,#1716);
#1421=AXIS2_PLACEMENT_3D('',#2083,#1717,#1718);
#1422=AXIS2_PLACEMENT_3D('',#2085,#1719,#1720);
#1423=AXIS2_PLACEMENT_3D('',#2088,#1722,#1723);
#1424=AXIS2_PLACEMENT_3D('',#2089,#1724,#1725);
#1425=AXIS2_PLACEMENT_3D('',#2091,#1726,#1727);
#1426=AXIS2_PLACEMENT_3D('',#2094,#1729,#1730);
#1427=AXIS2_PLACEMENT_3D('',#2095,#1731,#1732);
#1428=AXIS2_PLACEMENT_3D('',#2097,#1733,#1734);
#1429=AXIS2_PLACEMENT_3D('',#2100,#1736,#1737);
#1430=AXIS2_PLACEMENT_3D('',#2101,#1738,#1739);
#1431=AXIS2_PLACEMENT_3D('',#2110,#1744,#1745);
#1432=AXIS2_PLACEMENT_3D('',#2116,#1749,#1750);
#1433=AXIS2_PLACEMENT_3D('',#2122,#1754,#1755);
#1434=AXIS2_PLACEMENT_3D('',#2125,#1758,#1759);
#1435=AXIS2_PLACEMENT_3D('',#2126,#1760,#1761);
#1436=DIRECTION('axis',(0.,0.,1.));
#1437=DIRECTION('refdir',(1.,0.,0.));
#1438=DIRECTION('center_axis',(1.,0.,0.));
#1439=DIRECTION('ref_axis',(0.,0.,-1.));
#1440=DIRECTION('',(0.,0.,-1.));
#1441=DIRECTION('',(0.,-1.,0.));
#1442=DIRECTION('',(0.,0.,1.));
#1443=DIRECTION('',(0.,1.,0.));
#1444=DIRECTION('center_axis',(-1.,0.,0.));
#1445=DIRECTION('ref_axis',(0.,0.,1.));
#1446=DIRECTION('',(0.,0.,1.));
#1447=DIRECTION('',(0.,1.,0.));
#1448=DIRECTION('',(0.,0.,-1.));
#1449=DIRECTION('',(0.,1.,0.));
#1450=DIRECTION('center_axis',(0.,-1.,0.));
#1451=DIRECTION('ref_axis',(1.,0.,0.));
#1452=DIRECTION('',(1.,0.,0.));
#1453=DIRECTION('',(0.,0.,1.));
#1454=DIRECTION('',(1.,0.,0.));
#1455=DIRECTION('center_axis',(-1.,0.,0.));
#1456=DIRECTION('ref_axis',(0.,1.,0.));
#1457=DIRECTION('',(0.,1.,0.));
#1458=DIRECTION('',(0.,0.,-1.));
#1459=DIRECTION('',(0.,1.,0.));
#1460=DIRECTION('',(0.,0.,-1.));
#1461=DIRECTION('center_axis',(0.,-1.,0.));
#1462=DIRECTION('ref_axis',(-1.,0.,0.));
#1463=DIRECTION('',(-1.,0.,0.));
#1464=DIRECTION('',(0.,0.,-1.));
#1465=DIRECTION('',(-1.,0.,0.));
#1466=DIRECTION('center_axis',(1.,0.,0.));
#1467=DIRECTION('ref_axis',(0.,-1.,0.));
#1468=DIRECTION('',(0.,-1.,0.));
#1469=DIRECTION('',(0.,0.,1.));
#1470=DIRECTION('',(0.,-1.,0.));
#1471=DIRECTION('center_axis',(0.,0.,-1.));
#1472=DIRECTION('ref_axis',(-1.,0.,0.));
#1473=DIRECTION('',(1.,0.,0.));
#1474=DIRECTION('center_axis',(0.,0.,1.));
#1475=DIRECTION('ref_axis',(1.,0.,0.));
#1476=DIRECTION('',(1.,0.,0.));
#1477=DIRECTION('',(0.,1.,0.));
#1478=DIRECTION('',(-1.,0.,0.));
#1479=DIRECTION('',(0.,-1.,0.));
#1480=DIRECTION('',(1.,0.,0.));
#1481=DIRECTION('',(1.,0.,0.));
#1482=DIRECTION('center_axis',(0.,-1.,0.));
#1483=DIRECTION('ref_axis',(1.,0.,0.));
#1484=DIRECTION('',(0.,0.,1.));
#1485=DIRECTION('',(1.,0.,0.));
#1486=DIRECTION('center_axis',(-1.,0.,0.));
#1487=DIRECTION('ref_axis',(0.,-1.,0.));
#1488=DIRECTION('',(0.,0.,1.));
#1489=DIRECTION('',(0.,-1.,0.));
#1490=DIRECTION('center_axis',(1.,0.,0.));
#1491=DIRECTION('ref_axis',(0.,1.,0.));
#1492=DIRECTION('',(0.,1.,0.));
#1493=DIRECTION('',(0.,0.,1.));
#1494=DIRECTION('center_axis',(0.,1.,0.));
#1495=DIRECTION('ref_axis',(-1.,0.,0.));
#1496=DIRECTION('',(-1.,0.,0.));
#1497=DIRECTION('center_axis',(0.,0.,1.));
#1498=DIRECTION('ref_axis',(1.,0.,0.));
#1499=DIRECTION('center_axis',(0.,0.,-1.));
#1500=DIRECTION('ref_axis',(1.,0.,0.));
#1501=DIRECTION('',(0.,0.,-1.));
#1502=DIRECTION('center_axis',(0.,0.,-1.));
#1503=DIRECTION('ref_axis',(1.,0.,0.));
#1504=DIRECTION('center_axis',(0.,0.,1.));
#1505=DIRECTION('ref_axis',(1.,0.,0.));
#1506=DIRECTION('center_axis',(0.,0.,-1.));
#1507=DIRECTION('ref_axis',(1.,0.,0.));
#1508=DIRECTION('',(0.,0.,-1.));
#1509=DIRECTION('center_axis',(0.,0.,-1.));
#1510=DIRECTION('ref_axis',(1.,0.,0.));
#1511=DIRECTION('center_axis',(0.,0.,1.));
#1512=DIRECTION('ref_axis',(1.,0.,0.));
#1513=DIRECTION('center_axis',(0.,0.,-1.));
#1514=DIRECTION('ref_axis',(1.,0.,0.));
#1515=DIRECTION('',(0.,0.,-1.));
#1516=DIRECTION('center_axis',(0.,0.,-1.));
#1517=DIRECTION('ref_axis',(1.,0.,0.));
#1518=DIRECTION('center_axis',(0.,0.,1.));
#1519=DIRECTION('ref_axis',(1.,0.,0.));
#1520=DIRECTION('center_axis',(0.,0.,-1.));
#1521=DIRECTION('ref_axis',(1.,0.,0.));
#1522=DIRECTION('',(0.,0.,-1.));
#1523=DIRECTION('center_axis',(0.,0.,-1.));
#1524=DIRECTION('ref_axis',(1.,0.,0.));
#1525=DIRECTION('center_axis',(-1.,0.,0.));
#1526=DIRECTION('ref_axis',(0.,-1.,0.));
#1527=DIRECTION('',(0.,1.,0.));
#1528=DIRECTION('',(0.,0.,1.));
#1529=DIRECTION('',(0.,-1.,0.));
#1530=DIRECTION('',(0.,0.,1.));
#1531=DIRECTION('center_axis',(0.,1.,0.));
#1532=DIRECTION('ref_axis',(-1.,0.,0.));
#1533=DIRECTION('',(-1.,0.,0.));
#1534=DIRECTION('',(0.,0.,1.));
#1535=DIRECTION('',(1.,0.,0.));
#1536=DIRECTION('',(-1.,0.,0.));
#1537=DIRECTION('center_axis',(1.,0.,0.));
#1538=DIRECTION('ref_axis',(0.,1.,0.));
#1539=DIRECTION('',(0.,1.,0.));
#1540=DIRECTION('',(0.,1.,0.));
#1541=DIRECTION('',(0.,0.,1.));
#1542=DIRECTION('center_axis',(0.,-1.,0.));
#1543=DIRECTION('ref_axis',(1.,0.,0.));
#1544=DIRECTION('',(1.,0.,0.));
#1545=DIRECTION('',(1.,0.,0.));
#1546=DIRECTION('center_axis',(0.,0.,1.));
#1547=DIRECTION('ref_axis',(1.,0.,0.));
#1548=DIRECTION('center_axis',(0.,0.,1.));
#1549=DIRECTION('ref_axis',(1.,0.,0.));
#1550=DIRECTION('center_axis',(-1.,0.,0.));
#1551=DIRECTION('ref_axis',(0.,-1.,0.));
#1552=DIRECTION('',(0.,-1.,0.));
#1553=DIRECTION('',(0.,0.,1.));
#1554=DIRECTION('',(0.,-1.,0.));
#1555=DIRECTION('',(0.,0.,1.));
#1556=DIRECTION('center_axis',(0.,-1.,0.));
#1557=DIRECTION('ref_axis',(1.,0.,0.));
#1558=DIRECTION('',(1.,0.,0.));
#1559=DIRECTION('',(1.,0.,0.));
#1560=DIRECTION('',(0.,0.,1.));
#1561=DIRECTION('center_axis',(1.,0.,0.));
#1562=DIRECTION('ref_axis',(0.,1.,0.));
#1563=DIRECTION('',(0.,1.,0.));
#1564=DIRECTION('',(0.,1.,0.));
#1565=DIRECTION('',(0.,0.,1.));
#1566=DIRECTION('center_axis',(0.,1.,0.));
#1567=DIRECTION('ref_axis',(-1.,0.,0.));
#1568=DIRECTION('',(-1.,0.,0.));
#1569=DIRECTION('',(-1.,0.,0.));
#1570=DIRECTION('center_axis',(0.,1.,0.));
#1571=DIRECTION('ref_axis',(-1.,0.,0.));
#1572=DIRECTION('',(-1.,0.,0.));
#1573=DIRECTION('',(0.,0.,1.));
#1574=DIRECTION('',(-1.,0.,0.));
#1575=DIRECTION('',(0.,0.,1.));
#1576=DIRECTION('center_axis',(-1.,0.,0.));
#1577=DIRECTION('ref_axis',(0.,-1.,0.));
#1578=DIRECTION('',(0.,-1.,0.));
#1579=DIRECTION('',(0.,-1.,0.));
#1580=DIRECTION('',(0.,0.,1.));
#1581=DIRECTION('center_axis',(0.,-1.,0.));
#1582=DIRECTION('ref_axis',(1.,0.,0.));
#1583=DIRECTION('',(1.,0.,0.));
#1584=DIRECTION('',(1.,0.,0.));
#1585=DIRECTION('',(0.,0.,1.));
#1586=DIRECTION('center_axis',(1.,0.,0.));
#1587=DIRECTION('ref_axis',(0.,1.,0.));
#1588=DIRECTION('',(0.,1.,0.));
#1589=DIRECTION('',(0.,1.,0.));
#1590=DIRECTION('center_axis',(-1.,0.,0.));
#1591=DIRECTION('ref_axis',(0.,-1.,0.));
#1592=DIRECTION('',(0.,-1.,0.));
#1593=DIRECTION('',(0.,0.,1.));
#1594=DIRECTION('',(0.,-1.,0.));
#1595=DIRECTION('',(0.,0.,1.));
#1596=DIRECTION('center_axis',(0.,-1.,0.));
#1597=DIRECTION('ref_axis',(1.,0.,0.));
#1598=DIRECTION('',(1.,0.,0.));
#1599=DIRECTION('',(1.,0.,0.));
#1600=DIRECTION('',(0.,0.,1.));
#1601=DIRECTION('center_axis',(1.,0.,0.));
#1602=DIRECTION('ref_axis',(0.,1.,0.));
#1603=DIRECTION('',(0.,1.,0.));
#1604=DIRECTION('',(0.,1.,0.));
#1605=DIRECTION('',(0.,0.,1.));
#1606=DIRECTION('center_axis',(0.,1.,0.));
#1607=DIRECTION('ref_axis',(-1.,0.,0.));
#1608=DIRECTION('',(-1.,0.,0.));
#1609=DIRECTION('',(-1.,0.,0.));
#1610=DIRECTION('center_axis',(0.,1.,0.));
#1611=DIRECTION('ref_axis',(-1.,0.,0.));
#1612=DIRECTION('',(-1.,0.,0.));
#1613=DIRECTION('',(0.,0.,1.));
#1614=DIRECTION('',(-1.,0.,0.));
#1615=DIRECTION('',(0.,0.,1.));
#1616=DIRECTION('center_axis',(-1.,0.,0.));
#1617=DIRECTION('ref_axis',(0.,-1.,0.));
#1618=DIRECTION('',(0.,-1.,0.));
#1619=DIRECTION('',(0.,-1.,0.));
#1620=DIRECTION('',(0.,0.,1.));
#1621=DIRECTION('center_axis',(0.,-1.,0.));
#1622=DIRECTION('ref_axis',(1.,0.,0.));
#1623=DIRECTION('',(1.,0.,0.));
#1624=DIRECTION('',(1.,0.,0.));
#1625=DIRECTION('',(0.,0.,1.));
#1626=DIRECTION('center_axis',(1.,0.,0.));
#1627=DIRECTION('ref_axis',(0.,1.,0.));
#1628=DIRECTION('',(0.,1.,0.));
#1629=DIRECTION('',(0.,1.,0.));
#1630=DIRECTION('center_axis',(-1.,0.,0.));
#1631=DIRECTION('ref_axis',(0.,-1.,0.));
#1632=DIRECTION('',(0.,-1.,0.));
#1633=DIRECTION('',(0.,0.,1.));
#1634=DIRECTION('',(0.,-1.,0.));
#1635=DIRECTION('',(0.,0.,1.));
#1636=DIRECTION('center_axis',(0.,-1.,0.));
#1637=DIRECTION('ref_axis',(1.,0.,0.));
#1638=DIRECTION('',(1.,0.,0.));
#1639=DIRECTION('',(1.,0.,0.));
#1640=DIRECTION('',(0.,0.,1.));
#1641=DIRECTION('center_axis',(1.,0.,0.));
#1642=DIRECTION('ref_axis',(0.,1.,0.));
#1643=DIRECTION('',(0.,1.,0.));
#1644=DIRECTION('',(0.,1.,0.));
#1645=DIRECTION('',(0.,0.,1.));
#1646=DIRECTION('center_axis',(0.,1.,0.));
#1647=DIRECTION('ref_axis',(-1.,0.,0.));
#1648=DIRECTION('',(-1.,0.,0.));
#1649=DIRECTION('',(-1.,0.,0.));
#1650=DIRECTION('center_axis',(-1.,0.,0.));
#1651=DIRECTION('ref_axis',(0.,-1.,0.));
#1652=DIRECTION('',(0.,-1.,0.));
#1653=DIRECTION('',(0.,0.,1.));
#1654=DIRECTION('',(0.,-1.,0.));
#1655=DIRECTION('',(0.,0.,1.));
#1656=DIRECTION('center_axis',(0.,-1.,0.));
#1657=DIRECTION('ref_axis',(1.,0.,0.));
#1658=DIRECTION('',(1.,0.,0.));
#1659=DIRECTION('',(1.,0.,0.));
#1660=DIRECTION('',(0.,0.,1.));
#1661=DIRECTION('center_axis',(1.,0.,0.));
#1662=DIRECTION('ref_axis',(0.,1.,0.));
#1663=DIRECTION('',(0.,1.,0.));
#1664=DIRECTION('',(0.,1.,0.));
#1665=DIRECTION('',(0.,0.,1.));
#1666=DIRECTION('center_axis',(0.,1.,0.));
#1667=DIRECTION('ref_axis',(-1.,0.,0.));
#1668=DIRECTION('',(-1.,0.,0.));
#1669=DIRECTION('',(-1.,0.,0.));
#1670=DIRECTION('center_axis',(-1.,0.,0.));
#1671=DIRECTION('ref_axis',(0.,-1.,0.));
#1672=DIRECTION('',(0.,-1.,0.));
#1673=DIRECTION('',(0.,0.,1.));
#1674=DIRECTION('',(0.,-1.,0.));
#1675=DIRECTION('',(0.,0.,1.));
#1676=DIRECTION('center_axis',(0.,-1.,0.));
#1677=DIRECTION('ref_axis',(1.,0.,0.));
#1678=DIRECTION('',(1.,0.,0.));
#1679=DIRECTION('',(1.,0.,0.));
#1680=DIRECTION('',(0.,0.,1.));
#1681=DIRECTION('center_axis',(1.,0.,0.));
#1682=DIRECTION('ref_axis',(0.,1.,0.));
#1683=DIRECTION('',(0.,1.,0.));
#1684=DIRECTION('',(0.,1.,0.));
#1685=DIRECTION('',(0.,0.,1.));
#1686=DIRECTION('center_axis',(0.,1.,0.));
#1687=DIRECTION('ref_axis',(-1.,0.,0.));
#1688=DIRECTION('',(-1.,0.,0.));
#1689=DIRECTION('',(-1.,0.,0.));
#1690=DIRECTION('center_axis',(0.,1.,0.));
#1691=DIRECTION('ref_axis',(-1.,0.,0.));
#1692=DIRECTION('',(-1.,0.,0.));
#1693=DIRECTION('',(0.,0.,1.));
#1694=DIRECTION('',(-1.,0.,0.));
#1695=DIRECTION('',(0.,0.,1.));
#1696=DIRECTION('center_axis',(-1.,0.,0.));
#1697=DIRECTION('ref_axis',(0.,-1.,0.));
#1698=DIRECTION('',(0.,-1.,0.));
#1699=DIRECTION('',(0.,-1.,0.));
#1700=DIRECTION('',(0.,0.,1.));
#1701=DIRECTION('center_axis',(0.,-1.,0.));
#1702=DIRECTION('ref_axis',(1.,0.,0.));
#1703=DIRECTION('',(1.,0.,0.));
#1704=DIRECTION('',(1.,0.,0.));
#1705=DIRECTION('',(0.,0.,1.));
#1706=DIRECTION('center_axis',(1.,0.,0.));
#1707=DIRECTION('ref_axis',(0.,1.,0.));
#1708=DIRECTION('',(0.,1.,0.));
#1709=DIRECTION('',(0.,1.,0.));
#1710=DIRECTION('center_axis',(0.,0.,1.));
#1711=DIRECTION('ref_axis',(1.,0.,0.));
#1712=DIRECTION('center_axis',(0.,0.,-1.));
#1713=DIRECTION('ref_axis',(1.,0.,0.));
#1714=DIRECTION('',(0.,0.,-1.));
#1715=DIRECTION('center_axis',(0.,0.,-1.));
#1716=DIRECTION('ref_axis',(1.,0.,0.));
#1717=DIRECTION('center_axis',(0.,0.,1.));
#1718=DIRECTION('ref_axis',(1.,0.,0.));
#1719=DIRECTION('center_axis',(0.,0.,-1.));
#1720=DIRECTION('ref_axis',(1.,0.,0.));
#1721=DIRECTION('',(0.,0.,-1.));
#1722=DIRECTION('center_axis',(0.,0.,-1.));
#1723=DIRECTION('ref_axis',(1.,0.,0.));
#1724=DIRECTION('center_axis',(0.,0.,1.));
#1725=DIRECTION('ref_axis',(1.,0.,0.));
#1726=DIRECTION('center_axis',(0.,0.,-1.));
#1727=DIRECTION('ref_axis',(1.,0.,0.));
#1728=DIRECTION('',(0.,0.,-1.));
#1729=DIRECTION('center_axis',(0.,0.,-1.));
#1730=DIRECTION('ref_axis',(1.,0.,0.));
#1731=DIRECTION('center_axis',(0.,0.,1.));
#1732=DIRECTION('ref_axis',(1.,0.,0.));
#1733=DIRECTION('center_axis',(0.,0.,-1.));
#1734=DIRECTION('ref_axis',(1.,0.,0.));
#1735=DIRECTION('',(0.,0.,-1.));
#1736=DIRECTION('center_axis',(0.,0.,-1.));
#1737=DIRECTION('ref_axis',(1.,0.,0.));
#1738=DIRECTION('center_axis',(-1.,0.,0.));
#1739=DIRECTION('ref_axis',(0.,-1.,0.));
#1740=DIRECTION('',(0.,1.,0.));
#1741=DIRECTION('',(0.,0.,1.));
#1742=DIRECTION('',(0.,-1.,0.));
#1743=DIRECTION('',(0.,0.,1.));
#1744=DIRECTION('center_axis',(0.,1.,0.));
#1745=DIRECTION('ref_axis',(-1.,0.,0.));
#1746=DIRECTION('',(1.,0.,0.));
#1747=DIRECTION('',(-1.,0.,0.));
#1748=DIRECTION('',(0.,0.,1.));
#1749=DIRECTION('center_axis',(1.,0.,0.));
#1750=DIRECTION('ref_axis',(0.,1.,0.));
#1751=DIRECTION('',(0.,1.,0.));
#1752=DIRECTION('',(0.,1.,0.));
#1753=DIRECTION('',(0.,0.,1.));
#1754=DIRECTION('center_axis',(0.,-1.,0.));
#1755=DIRECTION('ref_axis',(1.,0.,0.));
#1756=DIRECTION('',(1.,0.,0.));
#1757=DIRECTION('',(1.,0.,0.));
#1758=DIRECTION('center_axis',(0.,0.,1.));
#1759=DIRECTION('ref_axis',(1.,0.,0.));
#1760=DIRECTION('center_axis',(0.,0.,1.));
#1761=DIRECTION('ref_axis',(1.,0.,0.));
#1762=CARTESIAN_POINT('',(0.,0.,0.));
#1763=CARTESIAN_POINT('Origin',(47.0000007003546,73.4,13.));
#1764=CARTESIAN_POINT('',(47.0000007003546,73.4,13.));
#1765=CARTESIAN_POINT('',(47.0000007003546,73.4,3.));
#1766=CARTESIAN_POINT('',(47.0000007003546,73.4,6.5));
#1767=CARTESIAN_POINT('',(47.0000007003546,78.4,13.));
#1768=CARTESIAN_POINT('',(47.0000007003546,57.5500000372529,13.));
#1769=CARTESIAN_POINT('',(47.0000007003546,78.4,3.));
#1770=CARTESIAN_POINT('',(47.0000007003546,78.4000000745058,6.5));
#1771=CARTESIAN_POINT('',(47.0000007003546,73.4,3.));
#1772=CARTESIAN_POINT('Origin',(36.0000005364418,73.4,3.));
#1773=CARTESIAN_POINT('',(36.0000005364418,73.4,3.));
#1774=CARTESIAN_POINT('',(36.0000005364418,73.4,13.));
#1775=CARTESIAN_POINT('',(36.0000005364418,73.4,1.5));
#1776=CARTESIAN_POINT('',(36.0000005364418,78.4,3.));
#1777=CARTESIAN_POINT('',(36.0000005364418,73.4,3.));
#1778=CARTESIAN_POINT('',(36.0000005364418,78.4,13.));
#1779=CARTESIAN_POINT('',(36.0000005364418,78.4000000745058,1.5));
#1780=CARTESIAN_POINT('',(36.0000005364418,57.5500000372529,13.));
#1781=CARTESIAN_POINT('Origin',(10.,73.4,0.));
#1782=CARTESIAN_POINT('',(10.,73.4,13.));
#1783=CARTESIAN_POINT('',(10.,73.4,13.));
#1784=CARTESIAN_POINT('',(9.99999977648258,73.3999983593822,3.));
#1785=CARTESIAN_POINT('',(10.,73.4,0.));
#1786=CARTESIAN_POINT('',(25.6000008038245,73.4,3.));
#1787=CARTESIAN_POINT('Origin',(37.4999997764826,72.3999983817339,3.));
#1788=CARTESIAN_POINT('',(37.4999997764826,72.3999983817339,3.));
#1789=CARTESIAN_POINT('',(37.4999997764826,78.4,3.));
#1790=CARTESIAN_POINT('',(37.4999997764826,57.0499988994561,3.));
#1791=CARTESIAN_POINT('',(37.4999997764826,72.3999983817339,2.5));
#1792=CARTESIAN_POINT('',(37.4999997764826,72.3999983817339,3.));
#1793=CARTESIAN_POINT('',(37.4999997764826,78.4,2.5));
#1794=CARTESIAN_POINT('',(37.4999997764826,73.4,2.5));
#1795=CARTESIAN_POINT('',(37.4999997764826,78.4000000745058,1.25));
#1796=CARTESIAN_POINT('Origin',(45.5000006780028,72.3999983817339,3.));
#1797=CARTESIAN_POINT('',(45.5000006780028,72.3999983817339,3.));
#1798=CARTESIAN_POINT('',(43.3500011428259,72.3999983817339,3.));
#1799=CARTESIAN_POINT('',(45.5000006780028,72.3999983817339,2.5));
#1800=CARTESIAN_POINT('',(45.5000006780028,72.3999983817339,3.));
#1801=CARTESIAN_POINT('',(37.4999997764826,72.3999983817339,2.5));
#1802=CARTESIAN_POINT('Origin',(45.5000006780028,73.3999983593822,3.));
#1803=CARTESIAN_POINT('',(45.5000006780028,78.4,3.));
#1804=CARTESIAN_POINT('',(45.5000006780028,57.5499988882802,3.));
#1805=CARTESIAN_POINT('',(45.5000006780028,78.4,2.5));
#1806=CARTESIAN_POINT('',(45.5000006780028,78.4000000745058,1.5));
#1807=CARTESIAN_POINT('',(45.5000006780028,72.3999983817339,2.5));
#1808=CARTESIAN_POINT('Origin',(41.5000002272427,72.899998370558,2.5));
#1809=CARTESIAN_POINT('',(61.4500003762543,78.4000000745058,2.5));
#1810=CARTESIAN_POINT('Origin',(41.200001607649,41.6999994171783,3.));
#1811=CARTESIAN_POINT('',(57.4499999254942,78.4000000745058,3.));
#1812=CARTESIAN_POINT('',(9.99999977648258,10.0000004749745,3.));
#1813=CARTESIAN_POINT('',(10.,25.8499997085892,3.));
#1814=CARTESIAN_POINT('',(72.4000034388155,10.0000004749745,3.));
#1815=CARTESIAN_POINT('',(56.8000008038245,10.,3.));
#1816=CARTESIAN_POINT('',(72.4000034388155,73.3999983593822,3.));
#1817=CARTESIAN_POINT('',(72.4,57.5499997085892,3.));
#1818=CARTESIAN_POINT('',(25.6000008038245,73.4,3.));
#1819=CARTESIAN_POINT('',(62.2000003874302,78.4000000745058,3.));
#1820=CARTESIAN_POINT('Origin',(10.,73.4,0.));
#1821=CARTESIAN_POINT('',(72.4,73.4,13.));
#1822=CARTESIAN_POINT('',(72.4,73.4,0.));
#1823=CARTESIAN_POINT('',(10.,73.4,13.));
#1824=CARTESIAN_POINT('Origin',(72.4,73.4,0.));
#1825=CARTESIAN_POINT('',(72.4,10.,13.));
#1826=CARTESIAN_POINT('',(72.4,10.,0.));
#1827=CARTESIAN_POINT('',(72.4,73.4,13.));
#1828=CARTESIAN_POINT('Origin',(10.,10.,0.));
#1829=CARTESIAN_POINT('',(10.,10.,13.));
#1830=CARTESIAN_POINT('',(10.,10.,13.));
#1831=CARTESIAN_POINT('',(10.,10.,0.));
#1832=CARTESIAN_POINT('Origin',(72.4,10.,0.));
#1833=CARTESIAN_POINT('',(10.,10.,13.));
#1834=CARTESIAN_POINT('Origin',(74.9000247850756,75.9000000745058,0.));
#1835=CARTESIAN_POINT('',(73.4500247850756,75.9000000745058,13.));
#1836=CARTESIAN_POINT('Origin',(74.9000247850756,75.9000000745058,13.));
#1837=CARTESIAN_POINT('',(73.4500247850756,75.9000000745058,0.));
#1838=CARTESIAN_POINT('',(73.4500247850756,75.9000000745058,0.));
#1839=CARTESIAN_POINT('Origin',(74.9000247850756,75.9000000745058,0.));
#1840=CARTESIAN_POINT('Origin',(7.49999983236194,7.49999983236194,0.));
#1841=CARTESIAN_POINT('',(6.04999983236194,7.49999983236194,13.));
#1842=CARTESIAN_POINT('Origin',(7.49999983236194,7.49999983236194,13.));
#1843=CARTESIAN_POINT('',(6.04999983236194,7.49999983236194,0.));
#1844=CARTESIAN_POINT('',(6.04999983236194,7.49999983236194,0.));
#1845=CARTESIAN_POINT('Origin',(7.49999983236194,7.49999983236194,0.));
#1846=CARTESIAN_POINT('Origin',(7.49999983236194,75.89999826774,0.));
#1847=CARTESIAN_POINT('',(6.04999983236194,75.89999826774,13.));
#1848=CARTESIAN_POINT('Origin',(7.49999983236194,75.89999826774,13.));
#1849=CARTESIAN_POINT('',(6.04999983236194,75.89999826774,0.));
#1850=CARTESIAN_POINT('',(6.04999983236194,75.89999826774,0.));
#1851=CARTESIAN_POINT('Origin',(7.49999983236194,75.89999826774,0.));
#1852=CARTESIAN_POINT('Origin',(74.9000011175871,7.50000007450581,0.));
#1853=CARTESIAN_POINT('',(73.4500011175871,7.50000007450581,13.));
#1854=CARTESIAN_POINT('Origin',(74.9000011175871,7.50000007450581,13.));
#1855=CARTESIAN_POINT('',(73.4500011175871,7.50000007450581,0.));
#1856=CARTESIAN_POINT('',(73.4500011175871,7.50000007450581,0.));
#1857=CARTESIAN_POINT('Origin',(74.9000011175871,7.50000007450581,0.));
#1858=CARTESIAN_POINT('Origin',(5.00000007450581,78.4000000745058,0.));
#1859=CARTESIAN_POINT('',(5.00000007450581,5.00000007450581,0.));
#1860=CARTESIAN_POINT('',(5.00000007450581,78.4000000745058,0.));
#1861=CARTESIAN_POINT('',(5.00000007450581,5.00000007450581,0.));
#1862=CARTESIAN_POINT('',(5.00000007450581,5.00000007450581,13.));
#1863=CARTESIAN_POINT('',(5.00000007450581,5.00000007450581,0.));
#1864=CARTESIAN_POINT('',(5.00000007450581,78.4000000745058,13.));
#1865=CARTESIAN_POINT('',(5.00000007450581,5.00000007450581,13.));
#1866=CARTESIAN_POINT('',(5.00000007450581,78.4000000745058,0.));
#1867=CARTESIAN_POINT('Origin',(77.4000000745058,78.4000000745058,0.));
#1868=CARTESIAN_POINT('',(77.4000000745058,78.4000000745058,13.));
#1869=CARTESIAN_POINT('',(5.00000007450581,78.4000000745058,13.));
#1870=CARTESIAN_POINT('',(77.4000000745058,78.4000000745058,0.));
#1871=CARTESIAN_POINT('',(77.4000000745058,78.4000000745058,0.));
#1872=CARTESIAN_POINT('',(5.00000007450581,78.4000000745058,0.));
#1873=CARTESIAN_POINT('',(5.00000007450581,78.4000000745058,13.));
#1874=CARTESIAN_POINT('Origin',(77.4000000745058,5.00000007450581,0.));
#1875=CARTESIAN_POINT('',(77.4000000745058,5.00000007450581,0.));
#1876=CARTESIAN_POINT('',(77.4000000745058,5.00000007450581,0.));
#1877=CARTESIAN_POINT('',(77.4000000745058,5.00000007450581,13.));
#1878=CARTESIAN_POINT('',(77.4000000745058,5.00000007450581,13.));
#1879=CARTESIAN_POINT('',(77.4000000745058,5.00000007450581,0.));
#1880=CARTESIAN_POINT('Origin',(5.00000007450581,5.00000007450581,0.));
#1881=CARTESIAN_POINT('',(5.00000007450581,5.00000007450581,0.));
#1882=CARTESIAN_POINT('',(5.00000007450581,5.00000007450581,13.));
#1883=CARTESIAN_POINT('Origin',(41.2000000745058,41.7000000745058,13.));
#1884=CARTESIAN_POINT('Origin',(41.2000000745058,41.7000000745058,0.));
#1885=CARTESIAN_POINT('Origin',(148.185001326203,65.2850010430813,0.));
#1886=CARTESIAN_POINT('',(148.185001326203,65.2850010430813,0.));
#1887=CARTESIAN_POINT('',(148.185001326203,51.3150010430813,0.));
#1888=CARTESIAN_POINT('',(148.185001326203,65.2850010430813,0.));
#1889=CARTESIAN_POINT('',(148.185001326203,51.3150010430813,3.));
#1890=CARTESIAN_POINT('',(148.185001326203,51.3150010430813,0.));
#1891=CARTESIAN_POINT('',(148.185001326203,65.2850010430813,3.));
#1892=CARTESIAN_POINT('',(148.185001326203,65.2850010430813,3.));
#1893=CARTESIAN_POINT('',(148.185001326203,65.2850010430813,0.));
#1894=CARTESIAN_POINT('Origin',(134.215001326203,65.2850010430813,0.));
#1895=CARTESIAN_POINT('',(134.215001326203,65.2850010430813,0.));
#1896=CARTESIAN_POINT('',(134.215001326203,65.2850010430813,0.));
#1897=CARTESIAN_POINT('',(134.215001326203,65.2850010430813,3.));
#1898=CARTESIAN_POINT('',(134.215001326203,65.2850010430813,3.));
#1899=CARTESIAN_POINT('',(134.215001326203,65.2850010430813,0.));
#1900=CARTESIAN_POINT('Origin',(134.215001326203,51.3150010430813,0.));
#1901=CARTESIAN_POINT('',(134.215001326203,51.3150010430813,0.));
#1902=CARTESIAN_POINT('',(134.215001326203,51.3150010430813,0.));
#1903=CARTESIAN_POINT('',(134.215001326203,51.3150010430813,3.));
#1904=CARTESIAN_POINT('',(134.215001326203,51.3150010430813,3.));
#1905=CARTESIAN_POINT('',(134.215001326203,51.3150010430813,0.));
#1906=CARTESIAN_POINT('Origin',(148.185001326203,51.3150010430813,0.));
#1907=CARTESIAN_POINT('',(134.215001326203,51.3150010430813,0.));
#1908=CARTESIAN_POINT('',(134.215001326203,51.3150010430813,3.));
#1909=CARTESIAN_POINT('Origin',(106.875001326203,51.3150010430813,0.));
#1910=CARTESIAN_POINT('',(106.875001326203,51.3150010430813,0.));
#1911=CARTESIAN_POINT('',(92.9050013262033,51.3150010430813,0.));
#1912=CARTESIAN_POINT('',(92.9050013262033,51.3150010430813,0.));
#1913=CARTESIAN_POINT('',(92.9050013262033,51.3150010430813,3.));
#1914=CARTESIAN_POINT('',(92.9050013262033,51.3150010430813,0.));
#1915=CARTESIAN_POINT('',(106.875001326203,51.3150010430813,3.));
#1916=CARTESIAN_POINT('',(92.9050013262033,51.3150010430813,3.));
#1917=CARTESIAN_POINT('',(106.875001326203,51.3150010430813,0.));
#1918=CARTESIAN_POINT('Origin',(106.875001326203,65.2850010430813,0.));
#1919=CARTESIAN_POINT('',(106.875001326203,65.2850010430813,0.));
#1920=CARTESIAN_POINT('',(106.875001326203,65.2850010430813,0.));
#1921=CARTESIAN_POINT('',(106.875001326203,65.2850010430813,3.));
#1922=CARTESIAN_POINT('',(106.875001326203,65.2850010430813,3.));
#1923=CARTESIAN_POINT('',(106.875001326203,65.2850010430813,0.));
#1924=CARTESIAN_POINT('Origin',(92.9050013262033,65.2850010430813,0.));
#1925=CARTESIAN_POINT('',(92.9050013262033,65.2850010430813,0.));
#1926=CARTESIAN_POINT('',(92.9050013262033,65.2850010430813,0.));
#1927=CARTESIAN_POINT('',(92.9050013262033,65.2850010430813,3.));
#1928=CARTESIAN_POINT('',(92.9050013262033,65.2850010430813,3.));
#1929=CARTESIAN_POINT('',(92.9050013262033,65.2850010430813,0.));
#1930=CARTESIAN_POINT('Origin',(92.9050013262033,51.3150010430813,0.));
#1931=CARTESIAN_POINT('',(92.9050013262033,65.2850010430813,0.));
#1932=CARTESIAN_POINT('',(92.9050013262033,65.2850010430813,3.));
#1933=CARTESIAN_POINT('Origin',(148.185001326203,46.2850010430813,0.));
#1934=CARTESIAN_POINT('',(148.185001326203,46.2850010430813,0.));
#1935=CARTESIAN_POINT('',(148.185001326203,32.3150010430813,0.));
#1936=CARTESIAN_POINT('',(148.185001326203,46.2850010430813,0.));
#1937=CARTESIAN_POINT('',(148.185001326203,32.3150010430813,3.));
#1938=CARTESIAN_POINT('',(148.185001326203,32.3150010430813,0.));
#1939=CARTESIAN_POINT('',(148.185001326203,46.2850010430813,3.));
#1940=CARTESIAN_POINT('',(148.185001326203,46.2850010430813,3.));
#1941=CARTESIAN_POINT('',(148.185001326203,46.2850010430813,0.));
#1942=CARTESIAN_POINT('Origin',(134.215001326203,46.2850010430813,0.));
#1943=CARTESIAN_POINT('',(134.215001326203,46.2850010430813,0.));
#1944=CARTESIAN_POINT('',(134.215001326203,46.2850010430813,0.));
#1945=CARTESIAN_POINT('',(134.215001326203,46.2850010430813,3.));
#1946=CARTESIAN_POINT('',(134.215001326203,46.2850010430813,3.));
#1947=CARTESIAN_POINT('',(134.215001326203,46.2850010430813,0.));
#1948=CARTESIAN_POINT('Origin',(134.215001326203,32.3150010430813,0.));
#1949=CARTESIAN_POINT('',(134.215001326203,32.3150010430813,0.));
#1950=CARTESIAN_POINT('',(134.215001326203,32.3150010430813,0.));
#1951=CARTESIAN_POINT('',(134.215001326203,32.3150010430813,3.));
#1952=CARTESIAN_POINT('',(134.215001326203,32.3150010430813,3.));
#1953=CARTESIAN_POINT('',(134.215001326203,32.3150010430813,0.));
#1954=CARTESIAN_POINT('Origin',(148.185001326203,32.3150010430813,0.));
#1955=CARTESIAN_POINT('',(134.215001326203,32.3150010430813,0.));
#1956=CARTESIAN_POINT('',(134.215001326203,32.3150010430813,3.));
#1957=CARTESIAN_POINT('Origin',(106.875001326203,32.3150010430813,0.));
#1958=CARTESIAN_POINT('',(106.875001326203,32.3150010430813,0.));
#1959=CARTESIAN_POINT('',(92.9050013262033,32.3150010430813,0.));
#1960=CARTESIAN_POINT('',(92.9050013262033,32.3150010430813,0.));
#1961=CARTESIAN_POINT('',(92.9050013262033,32.3150010430813,3.));
#1962=CARTESIAN_POINT('',(92.9050013262033,32.3150010430813,0.));
#1963=CARTESIAN_POINT('',(106.875001326203,32.3150010430813,3.));
#1964=CARTESIAN_POINT('',(92.9050013262033,32.3150010430813,3.));
#1965=CARTESIAN_POINT('',(106.875001326203,32.3150010430813,0.));
#1966=CARTESIAN_POINT('Origin',(106.875001326203,46.2850010430813,0.));
#1967=CARTESIAN_POINT('',(106.875001326203,46.2850010430813,0.));
#1968=CARTESIAN_POINT('',(106.875001326203,46.2850010430813,0.));
#1969=CARTESIAN_POINT('',(106.875001326203,46.2850010430813,3.));
#1970=CARTESIAN_POINT('',(106.875001326203,46.2850010430813,3.));
#1971=CARTESIAN_POINT('',(106.875001326203,46.2850010430813,0.));
#1972=CARTESIAN_POINT('Origin',(92.9050013262033,46.2850010430813,0.));
#1973=CARTESIAN_POINT('',(92.9050013262033,46.2850010430813,0.));
#1974=CARTESIAN_POINT('',(92.9050013262033,46.2850010430813,0.));
#1975=CARTESIAN_POINT('',(92.9050013262033,46.2850010430813,3.));
#1976=CARTESIAN_POINT('',(92.9050013262033,46.2850010430813,3.));
#1977=CARTESIAN_POINT('',(92.9050013262033,46.2850010430813,0.));
#1978=CARTESIAN_POINT('Origin',(92.9050013262033,32.3150010430813,0.));
#1979=CARTESIAN_POINT('',(92.9050013262033,46.2850010430813,0.));
#1980=CARTESIAN_POINT('',(92.9050013262033,46.2850010430813,3.));
#1981=CARTESIAN_POINT('Origin',(148.185001326203,27.2850010430813,0.));
#1982=CARTESIAN_POINT('',(148.185001326203,27.2850010430813,0.));
#1983=CARTESIAN_POINT('',(148.185001326203,13.3150010430813,0.));
#1984=CARTESIAN_POINT('',(148.185001326203,27.2850010430813,0.));
#1985=CARTESIAN_POINT('',(148.185001326203,13.3150010430813,3.));
#1986=CARTESIAN_POINT('',(148.185001326203,13.3150010430813,0.));
#1987=CARTESIAN_POINT('',(148.185001326203,27.2850010430813,3.));
#1988=CARTESIAN_POINT('',(148.185001326203,27.2850010430813,3.));
#1989=CARTESIAN_POINT('',(148.185001326203,27.2850010430813,0.));
#1990=CARTESIAN_POINT('Origin',(134.215001326203,27.2850010430813,0.));
#1991=CARTESIAN_POINT('',(134.215001326203,27.2850010430813,0.));
#1992=CARTESIAN_POINT('',(134.215001326203,27.2850010430813,0.));
#1993=CARTESIAN_POINT('',(134.215001326203,27.2850010430813,3.));
#1994=CARTESIAN_POINT('',(134.215001326203,27.2850010430813,3.));
#1995=CARTESIAN_POINT('',(134.215001326203,27.2850010430813,0.));
#1996=CARTESIAN_POINT('Origin',(134.215001326203,13.3150010430813,0.));
#1997=CARTESIAN_POINT('',(134.215001326203,13.3150010430813,0.));
#1998=CARTESIAN_POINT('',(134.215001326203,13.3150010430813,0.));
#1999=CARTESIAN_POINT('',(134.215001326203,13.3150010430813,3.));
#2000=CARTESIAN_POINT('',(134.215001326203,13.3150010430813,3.));
#2001=CARTESIAN_POINT('',(134.215001326203,13.3150010430813,0.));
#2002=CARTESIAN_POINT('Origin',(148.185001326203,13.3150010430813,0.));
#2003=CARTESIAN_POINT('',(134.215001326203,13.3150010430813,0.));
#2004=CARTESIAN_POINT('',(134.215001326203,13.3150010430813,3.));
#2005=CARTESIAN_POINT('Origin',(127.645001326203,27.2850010430813,0.));
#2006=CARTESIAN_POINT('',(127.645001326203,27.2850010430813,0.));
#2007=CARTESIAN_POINT('',(127.645001326203,13.3150010430813,0.));
#2008=CARTESIAN_POINT('',(127.645001326203,13.3150010430813,0.));
#2009=CARTESIAN_POINT('',(127.645001326203,13.3150010430813,3.));
#2010=CARTESIAN_POINT('',(127.645001326203,13.3150010430813,0.));
#2011=CARTESIAN_POINT('',(127.645001326203,27.2850010430813,3.));
#2012=CARTESIAN_POINT('',(127.645001326203,13.3150010430813,3.));
#2013=CARTESIAN_POINT('',(127.645001326203,27.2850010430813,0.));
#2014=CARTESIAN_POINT('Origin',(113.675001326203,27.2850010430813,0.));
#2015=CARTESIAN_POINT('',(113.675001326203,27.2850010430813,0.));
#2016=CARTESIAN_POINT('',(113.675001326203,27.2850010430813,0.));
#2017=CARTESIAN_POINT('',(113.675001326203,27.2850010430813,3.));
#2018=CARTESIAN_POINT('',(113.675001326203,27.2850010430813,3.));
#2019=CARTESIAN_POINT('',(113.675001326203,27.2850010430813,0.));
#2020=CARTESIAN_POINT('Origin',(113.675001326203,13.3150010430813,0.));
#2021=CARTESIAN_POINT('',(113.675001326203,13.3150010430813,0.));
#2022=CARTESIAN_POINT('',(113.675001326203,13.3150010430813,0.));
#2023=CARTESIAN_POINT('',(113.675001326203,13.3150010430813,3.));
#2024=CARTESIAN_POINT('',(113.675001326203,13.3150010430813,3.));
#2025=CARTESIAN_POINT('',(113.675001326203,13.3150010430813,0.));
#2026=CARTESIAN_POINT('Origin',(127.645001326203,13.3150010430813,0.));
#2027=CARTESIAN_POINT('',(113.675001326203,13.3150010430813,0.));
#2028=CARTESIAN_POINT('',(113.675001326203,13.3150010430813,3.));
#2029=CARTESIAN_POINT('Origin',(127.645001326203,46.5010010430813,0.));
#2030=CARTESIAN_POINT('',(127.645001326203,46.5010010430813,0.));
#2031=CARTESIAN_POINT('',(127.645001326203,32.5310010430813,0.));
#2032=CARTESIAN_POINT('',(127.645001326203,46.5010010430813,0.));
#2033=CARTESIAN_POINT('',(127.645001326203,32.5310010430813,3.));
#2034=CARTESIAN_POINT('',(127.645001326203,32.5310010430813,0.));
#2035=CARTESIAN_POINT('',(127.645001326203,46.5010010430813,3.));
#2036=CARTESIAN_POINT('',(127.645001326203,46.5010010430813,3.));
#2037=CARTESIAN_POINT('',(127.645001326203,46.5010010430813,0.));
#2038=CARTESIAN_POINT('Origin',(113.675001326203,46.5010010430813,0.));
#2039=CARTESIAN_POINT('',(113.675001326203,46.5010010430813,0.));
#2040=CARTESIAN_POINT('',(113.675001326203,46.5010010430813,0.));
#2041=CARTESIAN_POINT('',(113.675001326203,46.5010010430813,3.));
#2042=CARTESIAN_POINT('',(113.675001326203,46.5010010430813,3.));
#2043=CARTESIAN_POINT('',(113.675001326203,46.5010010430813,0.));
#2044=CARTESIAN_POINT('Origin',(113.675001326203,32.5310010430813,0.));
#2045=CARTESIAN_POINT('',(113.675001326203,32.5310010430813,0.));
#2046=CARTESIAN_POINT('',(113.675001326203,32.5310010430813,0.));
#2047=CARTESIAN_POINT('',(113.675001326203,32.5310010430813,3.));
#2048=CARTESIAN_POINT('',(113.675001326203,32.5310010430813,3.));
#2049=CARTESIAN_POINT('',(113.675001326203,32.5310010430813,0.));
#2050=CARTESIAN_POINT('Origin',(127.645001326203,32.5310010430813,0.));
#2051=CARTESIAN_POINT('',(113.675001326203,32.5310010430813,0.));
#2052=CARTESIAN_POINT('',(113.675001326203,32.5310010430813,3.));
#2053=CARTESIAN_POINT('Origin',(106.875001326203,13.3150010430813,0.));
#2054=CARTESIAN_POINT('',(106.875001326203,13.3150010430813,0.));
#2055=CARTESIAN_POINT('',(92.9050013262033,13.3150010430813,0.));
#2056=CARTESIAN_POINT('',(92.9050013262033,13.3150010430813,0.));
#2057=CARTESIAN_POINT('',(92.9050013262033,13.3150010430813,3.));
#2058=CARTESIAN_POINT('',(92.9050013262033,13.3150010430813,0.));
#2059=CARTESIAN_POINT('',(106.875001326203,13.3150010430813,3.));
#2060=CARTESIAN_POINT('',(92.9050013262033,13.3150010430813,3.));
#2061=CARTESIAN_POINT('',(106.875001326203,13.3150010430813,0.));
#2062=CARTESIAN_POINT('Origin',(106.875001326203,27.2850010430813,0.));
#2063=CARTESIAN_POINT('',(106.875001326203,27.2850010430813,0.));
#2064=CARTESIAN_POINT('',(106.875001326203,27.2850010430813,0.));
#2065=CARTESIAN_POINT('',(106.875001326203,27.2850010430813,3.));
#2066=CARTESIAN_POINT('',(106.875001326203,27.2850010430813,3.));
#2067=CARTESIAN_POINT('',(106.875001326203,27.2850010430813,0.));
#2068=CARTESIAN_POINT('Origin',(92.9050013262033,27.2850010430813,0.));
#2069=CARTESIAN_POINT('',(92.9050013262033,27.2850010430813,0.));
#2070=CARTESIAN_POINT('',(92.9050013262033,27.2850010430813,0.));
#2071=CARTESIAN_POINT('',(92.9050013262033,27.2850010430813,3.));
#2072=CARTESIAN_POINT('',(92.9050013262033,27.2850010430813,3.));
#2073=CARTESIAN_POINT('',(92.9050013262033,27.2850010430813,0.));
#2074=CARTESIAN_POINT('Origin',(92.9050013262033,13.3150010430813,0.));
#2075=CARTESIAN_POINT('',(92.9050013262033,27.2850010430813,0.));
#2076=CARTESIAN_POINT('',(92.9050013262033,27.2850010430813,3.));
#2077=CARTESIAN_POINT('Origin',(86.5000012516975,7.50000011920929,0.));
#2078=CARTESIAN_POINT('',(85.0500012516976,7.50000011920929,3.));
#2079=CARTESIAN_POINT('Origin',(86.5000012516975,7.50000011920929,3.));
#2080=CARTESIAN_POINT('',(85.0500012516976,7.50000011920929,0.));
#2081=CARTESIAN_POINT('',(85.0500012516976,7.50000011920929,0.));
#2082=CARTESIAN_POINT('Origin',(86.5000012516975,7.50000011920929,0.));
#2083=CARTESIAN_POINT('Origin',(153.900001326203,75.9000001490116,0.));
#2084=CARTESIAN_POINT('',(152.450001326203,75.9000001490116,3.));
#2085=CARTESIAN_POINT('Origin',(153.900001326203,75.9000001490116,3.));
#2086=CARTESIAN_POINT('',(152.450001326203,75.9000001490116,0.));
#2087=CARTESIAN_POINT('',(152.450001326203,75.9000001490116,0.));
#2088=CARTESIAN_POINT('Origin',(153.900001326203,75.9000001490116,0.));
#2089=CARTESIAN_POINT('Origin',(86.5000012889504,75.9000001490116,0.));
#2090=CARTESIAN_POINT('',(85.0500012889505,75.9000001490116,3.));
#2091=CARTESIAN_POINT('Origin',(86.5000012889504,75.9000001490116,3.));
#2092=CARTESIAN_POINT('',(85.0500012889505,75.9000001490116,0.));
#2093=CARTESIAN_POINT('',(85.0500012889505,75.9000001490116,0.));
#2094=CARTESIAN_POINT('Origin',(86.5000012889504,75.9000001490116,0.));
#2095=CARTESIAN_POINT('Origin',(153.900002294779,7.50000007450581,0.));
#2096=CARTESIAN_POINT('',(152.450002294779,7.50000007450581,3.));
#2097=CARTESIAN_POINT('Origin',(153.900002294779,7.50000007450581,3.));
#2098=CARTESIAN_POINT('',(152.450002294779,7.50000007450581,0.));
#2099=CARTESIAN_POINT('',(152.450002294779,7.50000007450581,0.));
#2100=CARTESIAN_POINT('Origin',(153.900002294779,7.50000007450581,0.));
#2101=CARTESIAN_POINT('Origin',(84.0000012516975,78.4000000745058,0.));
#2102=CARTESIAN_POINT('',(84.0000012516975,5.00000007450581,0.));
#2103=CARTESIAN_POINT('',(84.0000012516975,78.4000000745058,0.));
#2104=CARTESIAN_POINT('',(84.0000012516975,5.00000007450581,0.));
#2105=CARTESIAN_POINT('',(84.0000012516975,5.00000007450581,3.));
#2106=CARTESIAN_POINT('',(84.0000012516975,5.00000007450581,0.));
#2107=CARTESIAN_POINT('',(84.0000012516975,78.4000000745058,3.));
#2108=CARTESIAN_POINT('',(84.0000012516975,5.00000007450581,3.));
#2109=CARTESIAN_POINT('',(84.0000012516975,78.4000000745058,0.));
#2110=CARTESIAN_POINT('Origin',(156.400001251698,78.4000000745058,0.));
#2111=CARTESIAN_POINT('',(156.400001251698,78.4000000745058,0.));
#2112=CARTESIAN_POINT('',(84.0000012516975,78.4000000745058,0.));
#2113=CARTESIAN_POINT('',(156.400001251698,78.4000000745058,3.));
#2114=CARTESIAN_POINT('',(84.0000012516975,78.4000000745058,3.));
#2115=CARTESIAN_POINT('',(156.400001251698,78.4000000745058,0.));
#2116=CARTESIAN_POINT('Origin',(156.400001251698,5.00000007450581,0.));
#2117=CARTESIAN_POINT('',(156.400001251698,5.00000007450581,0.));
#2118=CARTESIAN_POINT('',(156.400001251698,5.00000007450581,0.));
#2119=CARTESIAN_POINT('',(156.400001251698,5.00000007450581,3.));
#2120=CARTESIAN_POINT('',(156.400001251698,5.00000007450581,3.));
#2121=CARTESIAN_POINT('',(156.400001251698,5.00000007450581,0.));
#2122=CARTESIAN_POINT('Origin',(84.0000012516975,5.00000007450581,0.));
#2123=CARTESIAN_POINT('',(84.0000012516975,5.00000007450581,0.));
#2124=CARTESIAN_POINT('',(84.0000012516975,5.00000007450581,3.));
#2125=CARTESIAN_POINT('Origin',(120.200001251698,41.7000000745058,3.));
#2126=CARTESIAN_POINT('Origin',(120.200001251698,41.7000000745058,0.));
#2127=UNCERTAINTY_MEASURE_WITH_UNIT(LENGTH_MEASURE(0.01),#2131,
'DISTANCE_ACCURACY_VALUE',
'Maximum model space distance between geometric entities at asserted c
onnectivities');
#2128=UNCERTAINTY_MEASURE_WITH_UNIT(LENGTH_MEASURE(0.01),#2131,
'DISTANCE_ACCURACY_VALUE',
'Maximum model space distance between geometric entities at asserted c
onnectivities');
#2129=(
GEOMETRIC_REPRESENTATION_CONTEXT(3)
GLOBAL_UNCERTAINTY_ASSIGNED_CONTEXT((#2127))
GLOBAL_UNIT_ASSIGNED_CONTEXT((#2131,#2133,#2134))
REPRESENTATION_CONTEXT('','3D')
);
#2130=(
GEOMETRIC_REPRESENTATION_CONTEXT(3)
GLOBAL_UNCERTAINTY_ASSIGNED_CONTEXT((#2128))
GLOBAL_UNIT_ASSIGNED_CONTEXT((#2131,#2133,#2134))
REPRESENTATION_CONTEXT('','3D')
);
#2131=(
LENGTH_UNIT()
NAMED_UNIT(*)
SI_UNIT(.MILLI.,.METRE.)
);
#2132=(
LENGTH_UNIT()
NAMED_UNIT(*)
SI_UNIT($,.METRE.)
);
#2133=(
NAMED_UNIT(*)
PLANE_ANGLE_UNIT()
SI_UNIT($,.RADIAN.)
);
#2134=(
NAMED_UNIT(*)
SI_UNIT($,.STERADIAN.)
SOLID_ANGLE_UNIT()
);
#2135=SHAPE_DEFINITION_REPRESENTATION(#2136,#2137);
#2136=PRODUCT_DEFINITION_SHAPE('',$,#2139);
#2137=SHAPE_REPRESENTATION('',(#1355),#2129);
#2138=PRODUCT_DEFINITION_CONTEXT('part definition',#2143,'design');
#2139=PRODUCT_DEFINITION('2026-09-05-21-24-12-103','Macropad Cad',#2140,
#2138);
#2140=PRODUCT_DEFINITION_FORMATION('',$,#2145);
#2141=PRODUCT_RELATED_PRODUCT_CATEGORY('Macropad Cad','Macropad Cad',(#2145));
#2142=APPLICATION_PROTOCOL_DEFINITION('international standard',
'automotive_design',2009,#2143);
#2143=APPLICATION_CONTEXT(
'Core Data for Automotive Mechanical Design Process');
#2144=PRODUCT_CONTEXT('part definition',#2143,'mechanical');
#2145=PRODUCT('2026-09-05-21-24-12-103','Macropad Cad',$,(#2144));
#2146=PRESENTATION_STYLE_ASSIGNMENT((#2147));
#2147=SURFACE_STYLE_USAGE(.BOTH.,#2148);
#2148=SURFACE_SIDE_STYLE('',(#2149));
#2149=SURFACE_STYLE_FILL_AREA(#2150);
#2150=FILL_AREA_STYLE('Steel - Satin',(#2151));
#2151=FILL_AREA_STYLE_COLOUR('Steel - Satin',#2152);
#2152=COLOUR_RGB('Steel - Satin',0.627450980392157,0.627450980392157,0.627450980392157);
ENDSEC;
END-ISO-10303-21;
